<svg class="main-svg" xmlns="http://www.w3.org/2000/svg" xmlns:xlink="http://www.w3.org/1999/xlink" width="1280" height="720" style="" viewBox="0 0 1280 720"><rect x="0" y="0" width="1280" height="720" style="fill: rgb(255, 255, 255); fill-opacity: 1;"/><defs id="defs-d39cbe"><g class="clips"><clipPath id="clipd39cbexyplot" class="plotclip"><rect width="822" height="560"/></clipPath><clipPath class="axesclip" id="clipd39cbex"><rect x="418" y="0" width="822" height="720"/></clipPath><clipPath class="axesclip" id="clipd39cbey"><rect x="0" y="80" width="1280" height="560"/></clipPath><clipPath class="axesclip" id="clipd39cbexy"><rect x="418" y="80" width="822" height="560"/></clipPath></g><g class="gradients"/><g class="patterns"/></defs><g class="bglayer"/><g class="layer-below"><g class="imagelayer"/><g class="shapelayer"/></g><g class="cartesianlayer"><g class="subplot xy"><g class="layer-subplot"><g class="shapelayer"/><g class="imagelayer"/></g><g class="minor-gridlayer"><g class="x"/><g class="y"/></g><g class="gridlayer"><g class="x"><path class="xgrid crisp" transform="translate(582.4,0)" d="M0,80v560" style="stroke: rgb(235, 240, 248); stroke-opacity: 1; stroke-width: 1px;"/><path class="xgrid crisp" transform="translate(746.8,0)" d="M0,80v560" style="stroke: rgb(235, 240, 248); stroke-opacity: 1; stroke-width: 1px;"/><path class="xgrid crisp" transform="translate(911.2,0)" d="M0,80v560" style="stroke: rgb(235, 240, 248); stroke-opacity: 1; stroke-width: 1px;"/><path class="xgrid crisp" transform="translate(1075.6,0)" d="M0,80v560" style="stroke: rgb(235, 240, 248); stroke-opacity: 1; stroke-width: 1px;"/></g><g class="y"/></g><g class="zerolinelayer"><path class="xzl zl crisp" transform="translate(418,0)" d="M0,80v560" style="stroke: rgb(235, 240, 248); stroke-opacity: 1; stroke-width: 2px;"/></g><g class="layer-between"><g class="shapelayer"/><g class="imagelayer"/></g><path class="xlines-below"/><path class="ylines-below"/><g class="overlines-below"/><g class="xaxislayer-below"/><g class="yaxislayer-below"/><g class="overaxes-below"/><g class="overplot"><g class="xy" transform="translate(418,80)" clip-path="url(#clipd39cbexyplot)"><g class="violinlayer mlayer"><g class="trace violins" style="opacity: 1;"><path class="violin" d="M822,528.89L822,536.9Q800.92,537.67 790.38,537.95C779.84,538.23 769.31,538.45 758.77,538.59C748.23,538.73 737.69,538.79 727.15,538.81C716.61,538.83 706.08,538.77 695.54,538.69C685,538.61 674.46,538.48 663.92,538.33C653.38,538.18 642.85,537.99 632.31,537.79C621.77,537.59 611.23,537.36 600.69,537.11C590.15,536.86 579.62,536.58 569.08,536.3C558.54,536.02 548,535.71 537.46,535.41C526.92,535.11 516.39,534.81 505.85,534.52C495.31,534.23 484.77,533.94 474.23,533.67C463.69,533.4 453.16,533.14 442.62,532.9Q432.08,532.66 411,532.21L411,528.89" style="vector-effect: none; stroke-width: 2px; stroke: rgb(99, 110, 250); stroke-opacity: 1; fill: rgb(99, 110, 250); fill-opacity: 0.5;"/><path class="violin" d="M822,404.44L822,413.06Q805.56,413.33 797.34,413.38C789.12,413.43 780.9,413.39 772.68,413.38C764.46,413.37 756.24,413.31 748.02,413.33C739.8,413.35 731.58,413.38 723.36,413.5C715.14,413.62 706.92,413.81 698.7,414.03C690.48,414.26 682.26,414.57 674.04,414.85C665.82,415.13 657.6,415.46 649.38,415.7C641.16,415.93 632.94,416.17 624.72,416.26C616.5,416.35 608.28,416.39 600.06,416.27Q591.84,416.15 575.4,415.56L575.4,404.44" style="vector-effect: none; stroke-width: 2px; stroke: rgb(99, 110, 250); stroke-opacity: 1; fill: rgb(99, 110, 250); fill-opacity: 0.5;"/><path class="violin" d="M822,280L822,292.57Q810.27,294.55 804.39,295.4C798.52,296.25 792.65,297.06 786.77,297.67C780.91,298.28 775.04,298.78 769.16,299.08C763.29,299.38 757.41,299.5 751.54,299.47C745.67,299.44 739.8,299.21 733.93,298.88C728.05,298.55 722.18,298.04 716.31,297.47C710.43,296.9 704.57,296.2 698.7,295.48C692.83,294.76 686.96,293.95 681.09,293.16C675.22,292.36 669.34,291.52 663.47,290.71C657.6,289.9 651.73,289.07 645.86,288.3C639.99,287.53 634.12,286.77 628.24,286.08C622.37,285.39 616.5,284.73 610.63,284.16C604.76,283.59 598.89,283.09 593.01,282.65C587.14,282.22 581.27,281.85 575.4,281.55C569.53,281.25 563.66,281.02 557.79,280.83C551.92,280.64 546.04,280.51 540.17,280.4C534.3,280.29 528.43,280.23 522.56,280.18C516.69,280.13 510.81,280.11 504.94,280.09C499.07,280.07 493.2,280.06 487.33,280.07C481.46,280.08 475.58,280.1 469.71,280.13C463.84,280.16 457.97,280.2 452.1,280.27C446.23,280.34 440.36,280.43 434.49,280.55C428.62,280.67 422.74,280.83 416.87,281.01C411,281.19 405.13,281.42 399.26,281.65C393.39,281.89 387.51,282.16 381.64,282.42C375.77,282.68 369.9,282.97 364.03,283.19C358.16,283.41 352.28,283.63 346.41,283.76Q340.54,283.89 328.8,283.97L328.8,280" style="vector-effect: none; stroke-width: 2px; stroke: rgb(99, 110, 250); stroke-opacity: 1; fill: rgb(99, 110, 250); fill-opacity: 0.5;"/><path class="violin" d="M822,155.56L822,162.7Q796.88,163.35 784.32,163.56C771.76,163.77 759.21,163.9 746.65,163.97C734.09,164.04 721.53,164.04 708.97,164C696.41,163.96 683.86,163.86 671.3,163.75C658.74,163.64 646.19,163.5 633.63,163.36C621.07,163.22 608.51,163.06 595.95,162.89C583.39,162.72 570.84,162.54 558.28,162.36C545.72,162.17 533.16,161.98 520.6,161.78C508.04,161.58 495.49,161.36 482.93,161.14C470.37,160.92 457.81,160.68 445.25,160.45C432.69,160.22 420.14,159.98 407.58,159.74Q395.02,159.5 369.9,159L369.9,155.56" style="vector-effect: none; stroke-width: 2px; stroke: rgb(99, 110, 250); stroke-opacity: 1; fill: rgb(99, 110, 250); fill-opacity: 0.5;"/><path class="violin" d="M822,31.11L822,47.11Q812.03,47.79 807.05,47.99C802.07,48.19 797.09,48.23 792.11,48.32C787.13,48.41 782.14,48.43 777.16,48.55C772.18,48.67 767.2,48.82 762.22,49.03C757.24,49.24 752.25,49.55 747.27,49.8C742.29,50.05 737.31,50.37 732.33,50.54C727.35,50.71 722.36,50.87 717.38,50.83C712.4,50.79 707.42,50.63 702.44,50.3C697.45,49.97 692.46,49.46 687.49,48.84C682.5,48.22 677.52,47.41 672.55,46.57Q667.56,45.72 657.6,43.76L657.6,31.11" style="vector-effect: none; stroke-width: 2px; stroke: rgb(99, 110, 250); stroke-opacity: 1; fill: rgb(99, 110, 250); fill-opacity: 0.5;"/><path class="meanline" d="M667.88,538.38427734375V528.89" style="fill: none; vector-effect: none; stroke-width: 2px; stroke-dasharray: 4px, 2px; stroke: rgb(99, 110, 250); stroke-opacity: 1;"/><path class="meanline" d="M687.4,414.38690185546875V404.44" style="fill: none; vector-effect: none; stroke-width: 2px; stroke-dasharray: 4px, 2px; stroke: rgb(99, 110, 250); stroke-opacity: 1;"/><path class="meanline" d="M693.56,294.8287353515625V280" style="fill: none; vector-effect: none; stroke-width: 2px; stroke-dasharray: 4px, 2px; stroke: rgb(99, 110, 250); stroke-opacity: 1;"/><path class="meanline" d="M647.33,163.51002502441406V155.56" style="fill: none; vector-effect: none; stroke-width: 2px; stroke-dasharray: 4px, 2px; stroke: rgb(99, 110, 250); stroke-opacity: 1;"/><path class="meanline" d="M750.08,49.65333557128906V31.11" style="fill: none; vector-effect: none; stroke-width: 2px; stroke-dasharray: 4px, 2px; stroke: rgb(99, 110, 250); stroke-opacity: 1;"/></g><g class="trace violins" style="opacity: 1;"><path class="violin" d="M411,528.89L411,524.48Q432.92,524.05 443.88,523.83C454.84,523.61 465.8,523.4 476.76,523.16C487.72,522.92 498.68,522.67 509.64,522.39C520.6,522.11 531.56,521.8 542.52,521.48C553.48,521.16 564.44,520.81 575.4,520.47C586.36,520.14 597.32,519.77 608.28,519.47C619.24,519.17 630.2,518.87 641.16,518.66C652.12,518.46 663.08,518.28 674.04,518.24C685,518.2 695.96,518.24 706.92,518.39Q717.88,518.54 739.8,519.15L739.8,528.89" style="vector-effect: none; stroke-width: 2px; stroke: rgb(239, 85, 59); stroke-opacity: 1; fill: rgb(239, 85, 59); fill-opacity: 0.5;"/><path class="violin" d="M493.2,404.44L493.2,398.99Q508.15,398.72 515.62,398.57C523.09,398.42 530.57,398.32 538.04,398.11C545.51,397.91 552.98,397.68 560.45,397.34C567.92,397 575.4,396.58 582.87,396.07C590.35,395.56 597.82,394.92 605.29,394.27C612.77,393.62 620.24,392.87 627.71,392.19C635.18,391.52 642.65,390.79 650.13,390.22C657.6,389.65 665.07,389.11 672.55,388.76C680.02,388.42 687.49,388.18 694.96,388.15C702.43,388.12 709.91,388.26 717.38,388.56Q724.86,388.86 739.8,389.95L739.8,404.44" style="vector-effect: none; stroke-width: 2px; stroke: rgb(239, 85, 59); stroke-opacity: 1; fill: rgb(239, 85, 59); fill-opacity: 0.5;"/><path class="violin" d="M616.5,280L616.5,269.48Q626.62,268.2 631.68,267.51C636.74,266.82 641.79,266.11 646.85,265.36C651.91,264.61 656.97,263.79 662.03,263.01C667.09,262.24 672.14,261.39 677.2,260.71C682.25,260.03 687.31,259.36 692.38,258.94C697.43,258.52 702.49,258.23 707.55,258.19C712.61,258.15 717.68,258.34 722.73,258.69C727.79,259.04 732.85,259.66 737.9,260.29C742.97,260.92 748.02,261.74 753.08,262.48C758.14,263.22 763.19,264.03 768.25,264.74C773.31,265.45 778.37,266.12 783.43,266.73C788.48,267.34 793.54,267.88 798.6,268.42Q803.66,268.96 813.78,269.99L813.78,280" style="vector-effect: none; stroke-width: 2px; stroke: rgb(239, 85, 59); stroke-opacity: 1; fill: rgb(239, 85, 59); fill-opacity: 0.5;"/><path class="violin" d="M411,155.56L411,149.12Q438.4,148.52 452.1,148.32C465.8,148.12 479.5,147.98 493.2,147.92C506.9,147.86 520.6,147.88 534.3,147.93C548,147.98 561.7,148.1 575.4,148.21C589.1,148.32 602.8,148.48 616.5,148.61C630.2,148.74 643.9,148.87 657.6,148.98C671.3,149.09 685,149.18 698.7,149.28C712.4,149.38 726.1,149.46 739.8,149.57C753.5,149.68 767.2,149.8 780.9,149.96Q794.6,150.12 822,150.53L822,155.56" style="vector-effect: none; stroke-width: 2px; stroke: rgb(239, 85, 59); stroke-opacity: 1; fill: rgb(239, 85, 59); fill-opacity: 0.5;"/><path class="violin" d="M739.8,31.11L739.8,0.62Q746.67,0.48 750.08,0.8C753.52,1.12 756.94,1.86 760.35,2.55C763.79,3.24 767.2,4.19 770.63,4.93C774.05,5.67 777.46,6.45 780.9,7.01C784.31,7.56 787.75,7.97 791.18,8.26C794.6,8.55 798.03,8.62 801.45,8.75C804.88,8.88 808.31,8.86 811.73,9.04Q815.16,9.22 822,9.82L822,31.11" style="vector-effect: none; stroke-width: 2px; stroke: rgb(239, 85, 59); stroke-opacity: 1; fill: rgb(239, 85, 59); fill-opacity: 0.5;"/><path class="meanline" d="M624.72,519.03125V528.89" style="fill: none; vector-effect: none; stroke-width: 2px; stroke-dasharray: 4px, 2px; stroke: rgb(239, 85, 59); stroke-opacity: 1;"/><path class="meanline" d="M657.6,389.666748046875V404.44" style="fill: none; vector-effect: none; stroke-width: 2px; stroke-dasharray: 4px, 2px; stroke: rgb(239, 85, 59); stroke-opacity: 1;"/><path class="meanline" d="M713.5,258.2451477050781V280" style="fill: none; vector-effect: none; stroke-width: 2px; stroke-dasharray: 4px, 2px; stroke: rgb(239, 85, 59); stroke-opacity: 1;"/><path class="meanline" d="M600.06,148.44400024414062V155.56" style="fill: none; vector-effect: none; stroke-width: 2px; stroke-dasharray: 4px, 2px; stroke: rgb(239, 85, 59); stroke-opacity: 1;"/><path class="meanline" d="M772.68,5.376389980316162V31.11" style="fill: none; vector-effect: none; stroke-width: 2px; stroke-dasharray: 4px, 2px; stroke: rgb(239, 85, 59); stroke-opacity: 1;"/></g></g></g></g><g class="zerolinelayer-above"/><path class="xlines-above crisp" d="M0,0" style="fill: none;"/><path class="ylines-above crisp" d="M0,0" style="fill: none;"/><g class="overlines-above"/><g class="xaxislayer-above"><g class="xtick"><text text-anchor="middle" x="0" y="661" transform="translate(418,0)" style="font-family: 'Open Sans', verdana, arial, sans-serif; font-size: 20px; fill: rgb(42, 63, 95); fill-opacity: 1; white-space: pre;">0</text></g><g class="xtick"><text text-anchor="middle" x="0" y="661" style="font-family: 'Open Sans', verdana, arial, sans-serif; font-size: 20px; fill: rgb(42, 63, 95); fill-opacity: 1; white-space: pre;" transform="translate(582.4,0)">20</text></g><g class="xtick"><text text-anchor="middle" x="0" y="661" style="font-family: 'Open Sans', verdana, arial, sans-serif; font-size: 20px; fill: rgb(42, 63, 95); fill-opacity: 1; white-space: pre;" transform="translate(746.8,0)">40</text></g><g class="xtick"><text text-anchor="middle" x="0" y="661" style="font-family: 'Open Sans', verdana, arial, sans-serif; font-size: 20px; fill: rgb(42, 63, 95); fill-opacity: 1; white-space: pre;" transform="translate(911.2,0)">60</text></g><g class="xtick"><text text-anchor="middle" x="0" y="661" style="font-family: 'Open Sans', verdana, arial, sans-serif; font-size: 20px; fill: rgb(42, 63, 95); fill-opacity: 1; white-space: pre;" transform="translate(1075.6,0)">80</text></g><g class="xtick"><text text-anchor="middle" x="0" y="661" style="font-family: 'Open Sans', verdana, arial, sans-serif; font-size: 20px; fill: rgb(42, 63, 95); fill-opacity: 1; white-space: pre;" transform="translate(1240,0)">100</text></g></g><g class="yaxislayer-above"><g class="ytick"><text text-anchor="end" x="417" y="7" transform="translate(0,608.89)" style="font-family: 'Open Sans', verdana, arial, sans-serif; font-size: 20px; fill: rgb(42, 63, 95); fill-opacity: 1; white-space: pre;">Sustainability vs carbon</text></g><g class="ytick"><text text-anchor="end" x="417" y="7" transform="translate(0,484.44)" style="font-family: 'Open Sans', verdana, arial, sans-serif; font-size: 20px; fill: rgb(42, 63, 95); fill-opacity: 1; white-space: pre;">Willingness to use</text></g><g class="ytick"><text text-anchor="end" x="417" y="7" transform="translate(0,360)" style="font-family: 'Open Sans', verdana, arial, sans-serif; font-size: 20px; fill: rgb(42, 63, 95); fill-opacity: 1; white-space: pre;">Overall riding satisfaction</text></g><g class="ytick"><text text-anchor="end" x="417" y="7" transform="translate(0,235.56)" style="font-family: 'Open Sans', verdana, arial, sans-serif; font-size: 20px; fill: rgb(42, 63, 95); fill-opacity: 1; white-space: pre;">Overall vs carbon frame</text></g><g class="ytick"><text text-anchor="end" x="417" y="7" transform="translate(0,111.11)" style="font-family: 'Open Sans', verdana, arial, sans-serif; font-size: 20px; fill: rgb(42, 63, 95); fill-opacity: 1; white-space: pre;">Confidence riding natural-fibre frame</text></g></g><g class="overaxes-above"/></g></g><g class="polarlayer"/><g class="smithlayer"/><g class="ternarylayer"/><g class="geolayer"/><g class="funnelarealayer"/><g class="pielayer"/><g class="iciclelayer"/><g class="treemaplayer"/><g class="sunburstlayer"/><g class="glimages"/><defs id="topdefs-d39cbe"><g class="clips"/><clipPath id="legendd39cbe"><rect width="152" height="39" x="0" y="0"/></clipPath></defs><g class="layer-above"><g class="imagelayer"/><g class="shapelayer"/></g><g class="infolayer"><g class="legend" pointer-events="all" transform="translate(1088,29.799999999999983)"><rect class="bg" shape-rendering="crispEdges" style="stroke: rgb(68, 68, 68); stroke-opacity: 1; fill: rgb(255, 255, 255); fill-opacity: 1; stroke-width: 0px;" width="152" height="39" x="0" y="0"/><g class="scrollbox" transform="" clip-path="url(#legendd39cbe)"><g class="groups" transform=""><g class="traces" transform="translate(0,19.5)" style="opacity: 1;"><text class="legendtext" text-anchor="start" x="40" y="7.8" style="font-family: 'Open Sans', verdana, arial, sans-serif; font-size: 20px; fill: rgb(42, 63, 95); fill-opacity: 1; white-space: pre;">No</text><g class="layers" style="opacity: 1;"><g class="legendfill"/><g class="legendlines"/><g class="legendsymbols"><g class="legendpoints"><path class="legendbox" d="M6,6H-6V-6H6Z" transform="translate(20,0)" style="stroke-width: 2px; fill: rgb(99, 110, 250); fill-opacity: 0.5; stroke: rgb(99, 110, 250); stroke-opacity: 1;"/></g></g></g><rect class="legendtoggle" x="0" y="-14.5" width="69.609375" height="29" style="fill: rgb(0, 0, 0); fill-opacity: 0;"/></g></g><g class="groups" transform="translate(72.109375,0)"><g class="traces" transform="translate(0,19.5)" style="opacity: 1;"><text class="legendtext" text-anchor="start" x="40" y="7.8" style="font-family: 'Open Sans', verdana, arial, sans-serif; font-size: 20px; fill: rgb(42, 63, 95); fill-opacity: 1; white-space: pre;">Yes</text><g class="layers" style="opacity: 1;"><g class="legendfill"/><g class="legendlines"/><g class="legendsymbols"><g class="legendpoints"><path class="legendbox" d="M6,6H-6V-6H6Z" transform="translate(20,0)" style="stroke-width: 2px; fill: rgb(239, 85, 59); fill-opacity: 0.5; stroke: rgb(239, 85, 59); stroke-opacity: 1;"/></g></g></g><rect class="legendtoggle" x="0" y="-14.5" width="76.875" height="29" style="fill: rgb(0, 0, 0); fill-opacity: 0;"/></g></g></g><rect class="scrollbar" rx="20" ry="3" width="0" height="0" style="fill: rgb(128, 139, 164); fill-opacity: 1;" x="0" y="0"/></g><g class="g-gtitle"><text class="gtitle" x="64" y="40" text-anchor="start" dy="0em" style="opacity: 1; font-family: 'Open Sans', verdana, arial, sans-serif; font-size: 28px; fill: rgb(42, 63, 95); fill-opacity: 1; white-space: pre;">Sustainability, willingness &amp; satisfaction (split by perceived fibre difference)</text></g><g class="g-xtitle"><text class="xtitle" x="829" y="696.3" text-anchor="middle" style="opacity: 1; font-family: 'Open Sans', verdana, arial, sans-serif; font-size: 24px; fill: rgb(42, 63, 95); fill-opacity: 1; white-space: pre;">Score (0–100)</text></g><g class="g-ytitle" transform="translate(2.728515625,0)"><text class="ytitle" transform="rotate(-90,21.271875000000023,360)" x="21.271875000000023" y="360" text-anchor="middle" style="opacity: 1; font-family: 'Open Sans', verdana, arial, sans-serif; font-size: 24px; fill: rgb(42, 63, 95); fill-opacity: 1; white-space: pre;">Question</text></g></g></svg>