<svg class="main-svg" xmlns="http://www.w3.org/2000/svg" xmlns:xlink="http://www.w3.org/1999/xlink" width="1280" height="720" style="" viewBox="0 0 1280 720"><rect x="0" y="0" width="1280" height="720" style="fill: rgb(255, 255, 255); fill-opacity: 1;"/><defs id="defs-27b4de"><g class="clips"><clipPath id="clip27b4dexyplot" class="plotclip"><rect width="555" height="560"/></clipPath><clipPath class="axesclip" id="clip27b4dex"><rect x="685" y="0" width="555" height="720"/></clipPath><clipPath class="axesclip" id="clip27b4dey"><rect x="0" y="80" width="1280" height="560"/></clipPath><clipPath class="axesclip" id="clip27b4dexy"><rect x="685" y="80" width="555" height="560"/></clipPath></g><g class="gradients"/><g class="patterns"/></defs><g class="bglayer"/><g class="layer-below"><g class="imagelayer"/><g class="shapelayer"/></g><g class="cartesianlayer"><g class="subplot xy"><g class="layer-subplot"><g class="shapelayer"/><g class="imagelayer"/></g><g class="minor-gridlayer"><g class="x"/><g class="y"/></g><g class="gridlayer"><g class="x"><path class="xgrid crisp" transform="translate(811.14,0)" d="M0,80v560" style="stroke: rgb(235, 240, 248); stroke-opacity: 1; stroke-width: 1px;"/><path class="xgrid crisp" transform="translate(912.05,0)" d="M0,80v560" style="stroke: rgb(235, 240, 248); stroke-opacity: 1; stroke-width: 1px;"/><path class="xgrid crisp" transform="translate(1012.95,0)" d="M0,80v560" style="stroke: rgb(235, 240, 248); stroke-opacity: 1; stroke-width: 1px;"/><path class="xgrid crisp" transform="translate(1113.8600000000001,0)" d="M0,80v560" style="stroke: rgb(235, 240, 248); stroke-opacity: 1; stroke-width: 1px;"/><path class="xgrid crisp" transform="translate(1214.77,0)" d="M0,80v560" style="stroke: rgb(235, 240, 248); stroke-opacity: 1; stroke-width: 1px;"/></g><g class="y"/></g><g class="zerolinelayer"><path class="xzl zl crisp" transform="translate(710.23,0)" d="M0,80v560" style="stroke: rgb(235, 240, 248); stroke-opacity: 1; stroke-width: 2px;"/></g><g class="layer-between"><g class="shapelayer"/><g class="imagelayer"/></g><path class="xlines-below"/><path class="ylines-below"/><g class="overlines-below"/><g class="xaxislayer-below"/><g class="yaxislayer-below"/><g class="overaxes-below"/><g class="overplot"><g class="xy" transform="translate(685,80)" clip-path="url(#clip27b4dexyplot)"><g class="violinlayer mlayer"><g class="trace violins" style="opacity: 1;"><path class="violin" d="M-41.75,465.9Q-33.27,465.51 -29.03,465.25C-24.79,464.99 -20.56,464.67 -16.32,464.34C-12.08,464 -7.84,463.61 -3.6,463.24C0.64,462.87 4.88,462.46 9.12,462.14C13.36,461.82 17.6,461.51 21.84,461.31C26.08,461.12 30.31,460.98 34.55,460.97C38.79,460.96 43.03,461.06 47.27,461.23C51.51,461.4 55.75,461.71 59.99,462.02C64.23,462.33 68.47,462.74 72.71,463.11C76.95,463.48 81.18,463.88 85.42,464.22C89.66,464.56 93.9,464.89 98.14,465.16C102.38,465.43 106.62,465.65 110.86,465.83C115.1,466.01 119.34,466.14 123.58,466.25C127.82,466.36 132.05,466.42 136.29,466.48C140.53,466.54 144.77,466.56 149.01,466.59C153.25,466.62 157.49,466.63 161.73,466.64C165.97,466.65 170.21,466.66 174.45,466.66C178.69,466.66 182.92,466.66 187.16,466.66C191.4,466.66 195.64,466.67 199.88,466.67C204.12,466.67 208.36,466.67 212.6,466.67C216.84,466.67 221.08,466.67 225.32,466.67C229.56,466.67 233.79,466.67 238.03,466.67C242.27,466.67 246.51,466.67 250.75,466.67C254.99,466.67 259.23,466.67 263.47,466.67C267.71,466.67 271.95,466.66 276.19,466.66C280.43,466.66 284.66,466.66 288.9,466.65C293.14,466.64 297.38,466.63 301.62,466.61C305.86,466.59 310.1,466.57 314.34,466.52C318.58,466.46 322.82,466.4 327.06,466.28C331.3,466.16 335.53,466.03 339.77,465.78C344.01,465.53 348.26,465.24 352.49,464.79C356.74,464.34 360.98,463.8 365.21,463.07C369.46,462.33 373.71,461.45 377.93,460.37C382.19,459.28 386.43,458 390.64,456.57C394.91,455.12 399.14,453.45 403.36,451.71C407.62,449.95 411.85,448.01 416.08,446.08C420.33,444.14 424.56,442.07 428.8,440.1C433.03,438.14 437.25,436.13 441.51,434.3C445.73,432.49 449.96,430.71 454.23,429.17C458.44,427.65 462.68,426.23 466.95,425.08C471.16,423.94 475.41,422.97 479.67,422.28C483.89,421.59 488.14,421.1 492.38,420.93C496.61,420.76 500.87,420.83 505.1,421.24C509.36,421.65 513.62,422.38 517.82,423.42C522.1,424.48 526.35,425.94 530.54,427.6C534.83,429.31 539.05,431.41 543.25,433.57C547.53,435.77 551.74,438.28 555.97,440.67C560.22,443.06 564.42,445.63 568.69,447.92C572.9,450.18 577.13,452.42 581.41,454.34C585.6,456.21 589.84,457.92 594.12,459.32Q598.32,460.7 606.84,462.71L606.84,470.62Q598.32,472.63 594.12,474.01C589.84,475.41 585.6,477.12 581.41,478.99C577.13,480.91 572.9,483.15 568.69,485.41C564.42,487.7 560.22,490.27 555.97,492.66C551.74,495.05 547.53,497.56 543.25,499.76C539.05,501.92 534.83,504.02 530.54,505.73C526.35,507.39 522.1,508.85 517.82,509.91C513.62,510.95 509.36,511.68 505.1,512.09C500.87,512.5 496.61,512.57 492.38,512.4C488.14,512.23 483.89,511.75 479.67,511.06C475.41,510.37 471.16,509.39 466.95,508.25C462.68,507.1 458.44,505.68 454.23,504.16C449.96,502.62 445.73,500.84 441.51,499.03C437.25,497.2 433.03,495.19 428.8,493.23C424.56,491.27 420.33,489.2 416.08,487.26C411.85,485.33 407.62,483.38 403.36,481.62C399.14,479.88 394.91,478.21 390.64,476.76C386.43,475.33 382.19,474.05 377.93,472.96C373.71,471.89 369.46,471.01 365.21,470.27C360.98,469.54 356.74,468.99 352.49,468.54C348.26,468.09 344.01,467.81 339.77,467.56C335.53,467.31 331.3,467.17 327.06,467.05C322.82,466.92 318.58,466.87 314.34,466.81C310.1,466.76 305.86,466.74 301.62,466.72C297.38,466.7 293.14,466.69 288.9,466.68C284.66,466.67 280.43,466.67 276.19,466.67C271.95,466.67 267.71,466.67 263.47,466.67C259.23,466.67 254.99,466.67 250.75,466.67C246.51,466.67 242.27,466.67 238.03,466.67C233.79,466.67 229.56,466.67 225.32,466.67C221.08,466.67 216.84,466.67 212.6,466.67C208.36,466.67 204.12,466.67 199.88,466.67C195.64,466.67 191.4,466.67 187.16,466.67C182.92,466.67 178.69,466.68 174.45,466.68C170.21,466.68 165.97,466.68 161.73,466.69C157.49,466.7 153.25,466.71 149.01,466.74C144.77,466.77 140.53,466.79 136.29,466.85C132.05,466.91 127.82,466.97 123.58,467.08C119.34,467.19 115.1,467.32 110.86,467.5C106.62,467.68 102.38,467.91 98.14,468.18C93.9,468.45 89.66,468.77 85.42,469.11C81.18,469.45 76.95,469.86 72.71,470.23C68.47,470.6 64.23,471 59.99,471.31C55.75,471.62 51.51,471.92 47.27,472.1C43.03,472.28 38.79,472.38 34.55,472.37C30.31,472.36 26.08,472.23 21.84,472.03C17.6,471.83 13.36,471.51 9.12,471.19C4.88,470.87 0.64,470.46 -3.6,470.09C-7.84,469.72 -12.08,469.33 -16.32,468.99C-20.56,468.66 -24.79,468.34 -29.03,468.08Q-33.27,467.82 -41.75,467.44Z" style="vector-effect: none; stroke-width: 2px; stroke: rgb(99, 110, 250); stroke-opacity: 1; fill: rgb(99, 110, 250); fill-opacity: 0.5;"/><path class="violin" d="M188.57,279.33Q198.13,279 202.91,278.77C207.69,278.54 212.47,278.27 217.25,277.97C222.03,277.67 226.81,277.32 231.59,276.96C236.37,276.6 241.14,276.2 245.92,275.83C250.7,275.45 255.48,275.07 260.26,274.71C265.04,274.35 269.82,274 274.6,273.67C279.38,273.34 284.16,273.04 288.94,272.72C293.72,272.4 298.49,272.1 303.27,271.73C308.05,271.36 312.83,270.98 317.61,270.52C322.39,270.06 327.17,269.55 331.95,268.97C336.73,268.39 341.51,267.74 346.29,267.05C351.07,266.35 355.85,265.59 360.62,264.8C365.4,264.01 370.18,263.17 374.96,262.33C379.74,261.49 384.52,260.61 389.3,259.75C394.08,258.89 398.86,258.01 403.64,257.16C408.42,256.31 413.19,255.46 417.97,254.63C422.75,253.8 427.53,252.99 432.31,252.2C437.09,251.41 441.87,250.64 446.65,249.9C451.43,249.16 456.21,248.41 460.99,247.77C465.76,247.13 470.54,246.49 475.32,246.04C480.09,245.6 484.88,245.2 489.66,245.1C494.44,245 499.23,245.06 504,245.46C508.79,245.86 513.59,246.56 518.34,247.53C523.15,248.51 527.92,249.86 532.67,251.33C537.48,252.82 542.25,254.65 547.01,256.45C551.81,258.26 556.56,260.29 561.35,262.14C566.12,263.99 570.89,265.89 575.69,267.55C580.44,269.19 585.22,270.75 590.02,272.06C594.77,273.36 599.56,274.46 604.36,275.38Q609.12,276.29 618.7,277.55L618.7,282.45Q609.12,283.71 604.36,284.62C599.56,285.54 594.77,286.64 590.02,287.94C585.22,289.25 580.44,290.81 575.69,292.45C570.89,294.11 566.12,296.01 561.35,297.86C556.56,299.71 551.81,301.74 547.01,303.55C542.25,305.35 537.48,307.18 532.67,308.67C527.92,310.14 523.15,311.49 518.34,312.47C513.59,313.44 508.79,314.14 504,314.54C499.23,314.94 494.44,315 489.66,314.9C484.88,314.8 480.09,314.4 475.32,313.96C470.54,313.51 465.76,312.87 460.99,312.23C456.21,311.59 451.43,310.84 446.65,310.1C441.87,309.36 437.09,308.59 432.31,307.8C427.53,307.01 422.75,306.2 417.97,305.37C413.19,304.54 408.42,303.69 403.64,302.84C398.86,301.99 394.08,301.11 389.3,300.25C384.52,299.39 379.74,298.51 374.96,297.67C370.18,296.83 365.4,295.99 360.62,295.2C355.85,294.41 351.07,293.65 346.29,292.95C341.51,292.26 336.73,291.61 331.95,291.03C327.17,290.45 322.39,289.94 317.61,289.48C312.83,289.02 308.05,288.64 303.27,288.27C298.49,287.9 293.72,287.6 288.94,287.28C284.16,286.96 279.38,286.66 274.6,286.33C269.82,286 265.04,285.65 260.26,285.29C255.48,284.93 250.7,284.55 245.92,284.17C241.14,283.8 236.37,283.4 231.59,283.04C226.81,282.68 222.03,282.33 217.25,282.03C212.47,281.73 207.69,281.46 202.91,281.23Q198.13,281 188.57,280.67Z" style="vector-effect: none; stroke-width: 2px; stroke: rgb(99, 110, 250); stroke-opacity: 1; fill: rgb(99, 110, 250); fill-opacity: 0.5;"/><path class="violin" d="M-72.53,92.93Q-56.41,92.73 -48.35,92.6C-40.29,92.47 -32.24,92.31 -24.18,92.14C-16.12,91.97 -8.06,91.76 0,91.57C8.06,91.38 16.12,91.17 24.18,91C32.24,90.83 40.29,90.66 48.35,90.55C56.41,90.44 64.47,90.36 72.53,90.33C80.59,90.3 88.65,90.33 96.71,90.38C104.77,90.43 112.82,90.54 120.88,90.61C128.94,90.69 137,90.8 145.06,90.83C153.12,90.86 161.17,90.88 169.23,90.8C177.29,90.72 185.35,90.57 193.41,90.32C201.47,90.07 209.53,89.71 217.59,89.28C225.65,88.84 233.7,88.29 241.76,87.71C249.82,87.13 257.88,86.46 265.94,85.81C274,85.16 282.05,84.46 290.11,83.8C298.17,83.14 306.23,82.49 314.29,81.84C322.35,81.18 330.41,80.57 338.47,79.87C346.53,79.17 354.59,78.47 362.64,77.66C370.7,76.85 378.76,75.95 386.82,75.01C394.88,74.07 402.93,72.98 410.99,72.01C419.05,71.04 427.1,69.96 435.17,69.17C443.22,68.38 451.28,67.63 459.35,67.29C467.4,66.95 475.47,66.85 483.52,67.15C491.59,67.45 499.66,68.15 507.7,69.09C515.77,70.03 523.83,71.41 531.87,72.81C539.94,74.22 547.99,75.94 556.05,77.52C564.11,79.1 572.16,80.81 580.23,82.28C588.28,83.75 596.33,85.16 604.4,86.33C612.45,87.5 620.51,88.5 628.58,89.32Q636.63,90.14 652.75,91.25L652.75,95.42Q636.63,96.53 628.58,97.35C620.51,98.17 612.45,99.17 604.4,100.34C596.33,101.51 588.28,102.93 580.23,104.39C572.16,105.86 564.11,107.56 556.05,109.14C547.99,110.72 539.94,112.45 531.87,113.86C523.83,115.26 515.77,116.64 507.7,117.58C499.66,118.52 491.59,119.21 483.52,119.51C475.47,119.81 467.4,119.71 459.35,119.38C451.28,119.05 443.22,118.29 435.17,117.5C427.1,116.71 419.05,115.63 410.99,114.66C402.93,113.69 394.88,112.6 386.82,111.66C378.76,110.72 370.7,109.82 362.64,109.01C354.59,108.2 346.53,107.5 338.47,106.8C330.41,106.1 322.35,105.49 314.29,104.83C306.23,104.17 298.17,103.52 290.11,102.86C282.05,102.2 274,101.51 265.94,100.86C257.88,100.21 249.82,99.54 241.76,98.96C233.7,98.38 225.65,97.83 217.59,97.39C209.53,96.95 201.47,96.6 193.41,96.34C185.35,96.09 177.29,95.94 169.23,95.86C161.17,95.78 153.12,95.81 145.06,95.84C137,95.87 128.94,95.98 120.88,96.06C112.82,96.13 104.77,96.24 96.71,96.29C88.65,96.34 80.59,96.36 72.53,96.33C64.47,96.3 56.41,96.23 48.35,96.12C40.29,96.01 32.24,95.84 24.18,95.67C16.12,95.5 8.06,95.28 0,95.09C-8.06,94.9 -16.12,94.7 -24.18,94.53C-32.24,94.36 -40.29,94.19 -48.35,94.06Q-56.41,93.93 -72.53,93.73Z" style="vector-effect: none; stroke-width: 2px; stroke: rgb(99, 110, 250); stroke-opacity: 1; fill: rgb(99, 110, 250); fill-opacity: 0.5;"/><path class="meanline" d="M454.87,428.9398193359375V504.40018066406253" style="fill: none; vector-effect: none; stroke-width: 2px; stroke-dasharray: 4px, 2px; stroke: rgb(99, 110, 250); stroke-opacity: 1;"/><path class="meanline" d="M450.21,249.34877014160156V310.65122985839844" style="fill: none; vector-effect: none; stroke-width: 2px; stroke-dasharray: 4px, 2px; stroke: rgb(99, 110, 250); stroke-opacity: 1;"/><path class="meanline" d="M411.4,71.96017456054688V114.69982543945312" style="fill: none; vector-effect: none; stroke-width: 2px; stroke-dasharray: 4px, 2px; stroke: rgb(99, 110, 250); stroke-opacity: 1;"/></g></g></g></g><g class="zerolinelayer-above"/><path class="xlines-above crisp" d="M0,0" style="fill: none;"/><path class="ylines-above crisp" d="M0,0" style="fill: none;"/><g class="overlines-above"/><g class="xaxislayer-above"><g class="xtick"><text text-anchor="middle" x="0" y="661" transform="translate(710.23,0)" style="font-family: 'Open Sans', verdana, arial, sans-serif; font-size: 20px; fill: rgb(42, 63, 95); fill-opacity: 1; white-space: pre;">0</text></g><g class="xtick"><text text-anchor="middle" x="0" y="661" style="font-family: 'Open Sans', verdana, arial, sans-serif; font-size: 20px; fill: rgb(42, 63, 95); fill-opacity: 1; white-space: pre;" transform="translate(811.14,0)">20</text></g><g class="xtick"><text text-anchor="middle" x="0" y="661" style="font-family: 'Open Sans', verdana, arial, sans-serif; font-size: 20px; fill: rgb(42, 63, 95); fill-opacity: 1; white-space: pre;" transform="translate(912.05,0)">40</text></g><g class="xtick"><text text-anchor="middle" x="0" y="661" style="font-family: 'Open Sans', verdana, arial, sans-serif; font-size: 20px; fill: rgb(42, 63, 95); fill-opacity: 1; white-space: pre;" transform="translate(1012.95,0)">60</text></g><g class="xtick"><text text-anchor="middle" x="0" y="661" style="font-family: 'Open Sans', verdana, arial, sans-serif; font-size: 20px; fill: rgb(42, 63, 95); fill-opacity: 1; white-space: pre;" transform="translate(1113.8600000000001,0)">80</text></g><g class="xtick"><text text-anchor="middle" x="0" y="661" style="font-family: 'Open Sans', verdana, arial, sans-serif; font-size: 20px; fill: rgb(42, 63, 95); fill-opacity: 1; white-space: pre;" transform="translate(1214.77,0)">100</text></g></g><g class="yaxislayer-above"><g class="ytick"><text text-anchor="end" x="684" y="7" transform="translate(0,546.6700000000001)" style="font-family: 'Open Sans', verdana, arial, sans-serif; font-size: 20px; fill: rgb(42, 63, 95); fill-opacity: 1; white-space: pre;">the comfort on smooth road surfaces (cycle path, road surface)</text></g><g class="ytick"><text text-anchor="end" x="684" y="7" transform="translate(0,360)" style="font-family: 'Open Sans', verdana, arial, sans-serif; font-size: 20px; fill: rgb(42, 63, 95); fill-opacity: 1; white-space: pre;">the comfort of the ride on rough road (gravel, cobblestone)</text></g><g class="ytick"><text text-anchor="end" x="684" y="7" transform="translate(0,173.32999999999998)" style="font-family: 'Open Sans', verdana, arial, sans-serif; font-size: 20px; fill: rgb(42, 63, 95); fill-opacity: 1; white-space: pre;">if you felt a vibration dampening (how smooth the ride felt)</text></g></g><g class="overaxes-above"/></g></g><g class="polarlayer"/><g class="smithlayer"/><g class="ternarylayer"/><g class="geolayer"/><g class="funnelarealayer"/><g class="pielayer"/><g class="iciclelayer"/><g class="treemaplayer"/><g class="sunburstlayer"/><g class="glimages"/><defs id="topdefs-27b4de"><g class="clips"/></defs><g class="layer-above"><g class="imagelayer"/><g class="shapelayer"/></g><g class="infolayer"><g class="g-gtitle"><text class="gtitle" x="64" y="40" text-anchor="start" dy="0em" style="opacity: 1; font-family: 'Open Sans', verdana, arial, sans-serif; font-size: 28px; fill: rgb(42, 63, 95); fill-opacity: 1; white-space: pre;">Comfort &amp; vibration (0–100 sliders)</text></g><g class="g-xtitle"><text class="xtitle" x="962.5" y="696.3" text-anchor="middle" style="opacity: 1; font-family: 'Open Sans', verdana, arial, sans-serif; font-size: 24px; fill: rgb(42, 63, 95); fill-opacity: 1; white-space: pre;">Score (0–100)</text></g><g class="g-ytitle" transform="translate(2.759765625,0)"><text class="ytitle" transform="rotate(-90,21.240625000000023,360)" x="21.240625000000023" y="360" text-anchor="middle" style="opacity: 1; font-family: 'Open Sans', verdana, arial, sans-serif; font-size: 24px; fill: rgb(42, 63, 95); fill-opacity: 1; white-space: pre;">Statement</text></g></g></svg>