<svg class="main-svg" xmlns="http://www.w3.org/2000/svg" xmlns:xlink="http://www.w3.org/1999/xlink" width="1280" height="720" style="" viewBox="0 0 1280 720"><rect x="0" y="0" width="1280" height="720" style="fill: rgb(255, 255, 255); fill-opacity: 1;"/><defs id="defs-9dcfac"><g class="clips"><clipPath id="clip9dcfacxyplot" class="plotclip"><rect width="1160" height="560"/></clipPath><clipPath class="axesclip" id="clip9dcfacx"><rect x="80" y="0" width="1160" height="720"/></clipPath><clipPath class="axesclip" id="clip9dcfacy"><rect x="0" y="80" width="1280" height="560"/></clipPath><clipPath class="axesclip" id="clip9dcfacxy"><rect x="80" y="80" width="1160" height="560"/></clipPath></g><g class="gradients"/><g class="patterns"/></defs><g class="bglayer"/><g class="layer-below"><g class="imagelayer"/><g class="shapelayer"/></g><g class="cartesianlayer"><g class="subplot xy"><g class="layer-subplot"><g class="shapelayer"/><g class="imagelayer"/></g><g class="minor-gridlayer"><g class="x"/><g class="y"/></g><g class="gridlayer"><g class="x"><path class="xgrid crisp" transform="translate(343.64,0)" d="M0,80v560" style="stroke: rgb(235, 240, 248); stroke-opacity: 1; stroke-width: 1px;"/><path class="xgrid crisp" transform="translate(554.55,0)" d="M0,80v560" style="stroke: rgb(235, 240, 248); stroke-opacity: 1; stroke-width: 1px;"/><path class="xgrid crisp" transform="translate(765.45,0)" d="M0,80v560" style="stroke: rgb(235, 240, 248); stroke-opacity: 1; stroke-width: 1px;"/><path class="xgrid crisp" transform="translate(976.36,0)" d="M0,80v560" style="stroke: rgb(235, 240, 248); stroke-opacity: 1; stroke-width: 1px;"/><path class="xgrid crisp" transform="translate(1187.27,0)" d="M0,80v560" style="stroke: rgb(235, 240, 248); stroke-opacity: 1; stroke-width: 1px;"/></g><g class="y"/></g><g class="zerolinelayer"><path class="xzl zl crisp" transform="translate(132.73,0)" d="M0,80v560" style="stroke: rgb(235, 240, 248); stroke-opacity: 1; stroke-width: 2px;"/></g><g class="layer-between"><g class="shapelayer"/><g class="imagelayer"/></g><path class="xlines-below"/><path class="ylines-below"/><g class="overlines-below"/><g class="xaxislayer-below"/><g class="yaxislayer-below"/><g class="overaxes-below"/><g class="overplot"><g class="xy" transform="translate(80,80)" clip-path="url(#clip9dcfacxyplot)"><g class="violinlayer mlayer"><g class="trace violins" style="opacity: 1;"><path class="violin" d="M264.91,275.44Q293.26,272.99 307.4,271.13C321.59,269.26 335.78,267.03 349.89,264.22C364.1,261.4 378.28,258.05 392.38,254.22C406.61,250.35 420.77,245.86 434.87,241.08C449.1,236.26 463.24,230.84 477.36,225.39C491.56,219.91 505.68,213.97 519.85,208.29C534.01,202.61 548.13,196.7 562.34,191.32C576.45,185.98 590.59,180.68 604.83,176.14C618.92,171.65 633.08,167.5 647.32,164.22C661.41,160.98 675.6,158.38 689.81,156.53C703.93,154.69 718.12,153.72 732.29,153.13C746.44,152.54 760.62,152.82 774.78,152.96C788.94,153.1 803.11,153.82 817.27,153.98C831.43,154.14 845.6,154.35 859.76,153.94C873.93,153.53 888.1,152.63 902.25,151.49C916.43,150.35 930.57,148.49 944.74,147.09C958.9,145.69 973.05,143.79 987.23,143.08C1001.38,142.37 1015.59,141.81 1029.72,142.8C1043.92,143.8 1058.18,145.79 1072.21,149.08C1086.52,152.44 1100.71,157.36 1114.7,162.88C1129.04,168.54 1143.12,175.71 1157.19,182.78C1171.45,189.95 1185.5,198.12 1199.68,205.64C1213.82,213.14 1227.88,220.98 1242.16,227.85C1256.21,234.61 1270.35,241.1 1284.65,246.58C1298.68,251.95 1312.88,256.62 1327.14,260.48Q1341.21,264.29 1369.63,269.64L1369.63,290.36Q1341.21,295.71 1327.14,299.52C1312.88,303.38 1298.68,308.05 1284.65,313.42C1270.35,318.9 1256.21,325.39 1242.16,332.15C1227.88,339.02 1213.82,346.86 1199.68,354.36C1185.5,361.88 1171.45,370.05 1157.19,377.22C1143.12,384.29 1129.04,391.46 1114.7,397.12C1100.71,402.64 1086.52,407.56 1072.21,410.92C1058.18,414.21 1043.92,416.2 1029.72,417.2C1015.59,418.19 1001.38,417.63 987.23,416.92C973.05,416.21 958.9,414.31 944.74,412.91C930.57,411.51 916.43,409.65 902.25,408.51C888.1,407.37 873.93,406.47 859.76,406.06C845.6,405.65 831.43,405.86 817.27,406.02C803.11,406.18 788.94,406.9 774.78,407.04C760.62,407.18 746.44,407.46 732.29,406.87C718.12,406.28 703.93,405.31 689.81,403.47C675.6,401.62 661.41,399.02 647.32,395.78C633.08,392.5 618.92,388.35 604.83,383.86C590.59,379.32 576.45,374.02 562.34,368.68C548.13,363.3 534.01,357.39 519.85,351.71C505.68,346.03 491.56,340.09 477.36,334.61C463.24,329.16 449.1,323.74 434.87,318.92C420.77,314.14 406.61,309.65 392.38,305.78C378.28,301.95 364.1,298.6 349.89,295.78C335.78,292.97 321.59,290.74 307.4,288.87Q293.26,287.01 264.91,284.56Z" style="vector-effect: none; stroke-width: 2px; stroke: rgb(99, 110, 250); stroke-opacity: 1; fill: rgb(99, 110, 250); fill-opacity: 0.5;"/><path class="meanline" d="M859.86,153.9368896484375V406.0631103515625" style="fill: none; vector-effect: none; stroke-width: 2px; stroke-dasharray: 4px, 2px; stroke: rgb(99, 110, 250); stroke-opacity: 1;"/></g></g></g></g><g class="zerolinelayer-above"/><path class="xlines-above crisp" d="M0,0" style="fill: none;"/><path class="ylines-above crisp" d="M0,0" style="fill: none;"/><g class="overlines-above"/><g class="xaxislayer-above"><g class="xtick"><text text-anchor="middle" x="0" y="661" transform="translate(132.73,0)" style="font-family: 'Open Sans', verdana, arial, sans-serif; font-size: 20px; fill: rgb(42, 63, 95); fill-opacity: 1; white-space: pre;">0</text></g><g class="xtick"><text text-anchor="middle" x="0" y="661" style="font-family: 'Open Sans', verdana, arial, sans-serif; font-size: 20px; fill: rgb(42, 63, 95); fill-opacity: 1; white-space: pre;" transform="translate(343.64,0)">20</text></g><g class="xtick"><text text-anchor="middle" x="0" y="661" style="font-family: 'Open Sans', verdana, arial, sans-serif; font-size: 20px; fill: rgb(42, 63, 95); fill-opacity: 1; white-space: pre;" transform="translate(554.55,0)">40</text></g><g class="xtick"><text text-anchor="middle" x="0" y="661" style="font-family: 'Open Sans', verdana, arial, sans-serif; font-size: 20px; fill: rgb(42, 63, 95); fill-opacity: 1; white-space: pre;" transform="translate(765.45,0)">60</text></g><g class="xtick"><text text-anchor="middle" x="0" y="661" style="font-family: 'Open Sans', verdana, arial, sans-serif; font-size: 20px; fill: rgb(42, 63, 95); fill-opacity: 1; white-space: pre;" transform="translate(976.36,0)">80</text></g><g class="xtick"><text text-anchor="middle" x="0" y="661" style="font-family: 'Open Sans', verdana, arial, sans-serif; font-size: 20px; fill: rgb(42, 63, 95); fill-opacity: 1; white-space: pre;" transform="translate(1187.27,0)">100</text></g></g><g class="yaxislayer-above"/><g class="overaxes-above"/></g></g><g class="polarlayer"/><g class="smithlayer"/><g class="ternarylayer"/><g class="geolayer"/><g class="funnelarealayer"/><g class="pielayer"/><g class="iciclelayer"/><g class="treemaplayer"/><g class="sunburstlayer"/><g class="glimages"/><defs id="topdefs-9dcfac"><g class="clips"/></defs><g class="layer-above"><g class="imagelayer"/><g class="shapelayer"><g class="shape-group" data-index="0" clip-path="url(#clip9dcfacx)"><path data-index="0" fill-rule="evenodd" d="M660,640L660,80" style="opacity: 1; stroke: rgb(0, 0, 0); stroke-opacity: 1; fill: rgb(0, 0, 0); fill-opacity: 0; stroke-dasharray: 9px, 9px; stroke-width: 2px;"/></g></g></g><g class="infolayer"><g class="g-gtitle"><text class="gtitle" x="64" y="40" text-anchor="start" dy="0em" style="opacity: 1; font-family: 'Open Sans', verdana, arial, sans-serif; font-size: 28px; fill: rgb(42, 63, 95); fill-opacity: 1; white-space: pre;">Perceived performance compared to carbon frame</text></g><g class="g-xtitle"><text class="xtitle" x="660" y="696.3" text-anchor="middle" style="opacity: 1; font-family: 'Open Sans', verdana, arial, sans-serif; font-size: 24px; fill: rgb(42, 63, 95); fill-opacity: 1; white-space: pre;">Rating (0–100, 50 = same as carbon)</text></g><g class="g-ytitle"/></g></svg>