<svg class="main-svg" xmlns="http://www.w3.org/2000/svg" xmlns:xlink="http://www.w3.org/1999/xlink" width="1280" height="720" style="" viewBox="0 0 1280 720"><rect x="0" y="0" width="1280" height="720" style="fill: rgb(255, 255, 255); fill-opacity: 1;"/><defs id="defs-783ee3"><g class="clips"><clipPath id="clip783ee3xyplot" class="plotclip"><rect width="1160" height="560"/></clipPath><clipPath class="axesclip" id="clip783ee3x"><rect x="80" y="0" width="1160" height="720"/></clipPath><clipPath class="axesclip" id="clip783ee3y"><rect x="0" y="80" width="1280" height="560"/></clipPath><clipPath class="axesclip" id="clip783ee3xy"><rect x="80" y="80" width="1160" height="560"/></clipPath></g><g class="gradients"/><g class="patterns"/></defs><g class="bglayer"/><g class="layer-below"><g class="imagelayer"/><g class="shapelayer"/></g><g class="cartesianlayer"><g class="subplot xy"><g class="layer-subplot"><g class="shapelayer"/><g class="imagelayer"/></g><g class="minor-gridlayer"><g class="x"/><g class="y"/></g><g class="gridlayer"><g class="x"><path class="xgrid crisp" transform="translate(208.89,0)" d="M0,80v560" style="stroke: rgb(235, 240, 248); stroke-opacity: 1; stroke-width: 1px;"/><path class="xgrid crisp" transform="translate(337.78,0)" d="M0,80v560" style="stroke: rgb(235, 240, 248); stroke-opacity: 1; stroke-width: 1px;"/><path class="xgrid crisp" transform="translate(466.67,0)" d="M0,80v560" style="stroke: rgb(235, 240, 248); stroke-opacity: 1; stroke-width: 1px;"/><path class="xgrid crisp" transform="translate(595.56,0)" d="M0,80v560" style="stroke: rgb(235, 240, 248); stroke-opacity: 1; stroke-width: 1px;"/><path class="xgrid crisp" transform="translate(724.44,0)" d="M0,80v560" style="stroke: rgb(235, 240, 248); stroke-opacity: 1; stroke-width: 1px;"/><path class="xgrid crisp" transform="translate(853.33,0)" d="M0,80v560" style="stroke: rgb(235, 240, 248); stroke-opacity: 1; stroke-width: 1px;"/><path class="xgrid crisp" transform="translate(982.22,0)" d="M0,80v560" style="stroke: rgb(235, 240, 248); stroke-opacity: 1; stroke-width: 1px;"/><path class="xgrid crisp" transform="translate(1111.11,0)" d="M0,80v560" style="stroke: rgb(235, 240, 248); stroke-opacity: 1; stroke-width: 1px;"/></g><g class="y"/></g><g class="zerolinelayer"><path class="xzl zl crisp" transform="translate(80,0)" d="M0,80v560" style="stroke: rgb(235, 240, 248); stroke-opacity: 1; stroke-width: 2px;"/></g><g class="layer-between"><g class="shapelayer"/><g class="imagelayer"/></g><path class="xlines-below"/><path class="ylines-below"/><g class="overlines-below"/><g class="xaxislayer-below"/><g class="yaxislayer-below"/><g class="overaxes-below"/><g class="overplot"><g class="xy" transform="translate(80,80)" clip-path="url(#clip783ee3xyplot)"><g class="violinlayer mlayer"><g class="trace violins" style="opacity: 1;"><path class="violin" d="M-63.64,267.78Q-30.68,261.17 -14.4,256.38C2.16,251.51 18.63,245.58 34.85,238.7C51.47,231.65 67.85,223.27 84.09,214.45C100.69,205.43 116.99,195.16 133.33,185.07C149.82,174.88 166.11,163.88 182.58,153.6C198.94,143.39 215.26,132.99 231.82,123.57C248.1,114.31 264.5,105.49 281.07,97.49C297.34,89.64 313.79,82.54 330.31,75.95C346.62,69.44 363.07,63.58 379.56,58.15C395.9,52.77 412.31,47.73 428.8,43.47C445.14,39.25 461.55,35.28 478.04,32.7C494.38,30.14 510.87,28.18 527.29,28C543.7,27.82 560.24,28.89 576.53,31.59C593.07,34.33 609.58,38.85 625.78,44.45C642.42,50.21 658.82,57.77 675.02,65.89C691.67,74.24 708.01,84.06 724.27,94.02C740.84,104.17 757.15,115.35 773.51,126.31C789.98,137.34 806.28,148.98 822.75,160C839.11,170.95 855.43,182.08 872,192.23C888.27,202.19 904.62,211.9 921.24,220.4C937.46,228.7 953.89,236.31 970.49,242.74C986.73,249.03 1003.2,254.33 1019.73,258.71Q1036.03,263.03 1068.98,268.94L1068.98,291.06Q1036.03,296.97 1019.73,301.29C1003.2,305.67 986.73,310.97 970.49,317.26C953.89,323.69 937.46,331.3 921.24,339.6C904.62,348.1 888.27,357.81 872,367.77C855.43,377.92 839.11,389.05 822.75,400C806.28,411.02 789.98,422.66 773.51,433.69C757.15,444.65 740.84,455.83 724.27,465.98C708.01,475.94 691.67,485.76 675.02,494.11C658.82,502.23 642.42,509.79 625.78,515.55C609.58,521.15 593.07,525.67 576.53,528.41C560.24,531.11 543.7,532.18 527.29,532C510.87,531.82 494.38,529.86 478.04,527.3C461.55,524.72 445.14,520.75 428.8,516.53C412.31,512.27 395.9,507.23 379.56,501.85C363.07,496.42 346.62,490.56 330.31,484.05C313.79,477.46 297.34,470.36 281.07,462.51C264.5,454.51 248.1,445.69 231.82,436.43C215.26,427.01 198.94,416.61 182.58,406.4C166.11,396.12 149.82,385.12 133.33,374.93C116.99,364.84 100.69,354.57 84.09,345.55C67.85,336.73 51.47,328.35 34.85,321.3C18.63,314.42 2.16,308.49 -14.4,303.62Q-30.68,298.83 -63.64,292.22Z" style="vector-effect: none; stroke-width: 2px; stroke: rgb(99, 110, 250); stroke-opacity: 1; fill: rgb(99, 110, 250); fill-opacity: 0.5;"/><path class="meanline" d="M500.52,29.679046630859375V530.3209533691406" style="fill: none; vector-effect: none; stroke-width: 2px; stroke-dasharray: 4px, 2px; stroke: rgb(99, 110, 250); stroke-opacity: 1;"/></g></g></g></g><g class="zerolinelayer-above"/><path class="xlines-above crisp" d="M0,0" style="fill: none;"/><path class="ylines-above crisp" d="M0,0" style="fill: none;"/><g class="overlines-above"/><g class="xaxislayer-above"><g class="xtick"><text text-anchor="middle" x="0" y="661" transform="translate(80,0)" style="font-family: 'Open Sans', verdana, arial, sans-serif; font-size: 20px; fill: rgb(42, 63, 95); fill-opacity: 1; white-space: pre;">0</text></g><g class="xtick"><text text-anchor="middle" x="0" y="661" style="font-family: 'Open Sans', verdana, arial, sans-serif; font-size: 20px; fill: rgb(42, 63, 95); fill-opacity: 1; white-space: pre;" transform="translate(208.89,0)">1000</text></g><g class="xtick"><text text-anchor="middle" x="0" y="661" style="font-family: 'Open Sans', verdana, arial, sans-serif; font-size: 20px; fill: rgb(42, 63, 95); fill-opacity: 1; white-space: pre;" transform="translate(337.78,0)">2000</text></g><g class="xtick"><text text-anchor="middle" x="0" y="661" style="font-family: 'Open Sans', verdana, arial, sans-serif; font-size: 20px; fill: rgb(42, 63, 95); fill-opacity: 1; white-space: pre;" transform="translate(466.67,0)">3000</text></g><g class="xtick"><text text-anchor="middle" x="0" y="661" style="font-family: 'Open Sans', verdana, arial, sans-serif; font-size: 20px; fill: rgb(42, 63, 95); fill-opacity: 1; white-space: pre;" transform="translate(595.56,0)">4000</text></g><g class="xtick"><text text-anchor="middle" x="0" y="661" style="font-family: 'Open Sans', verdana, arial, sans-serif; font-size: 20px; fill: rgb(42, 63, 95); fill-opacity: 1; white-space: pre;" transform="translate(724.44,0)">5000</text></g><g class="xtick"><text text-anchor="middle" x="0" y="661" style="font-family: 'Open Sans', verdana, arial, sans-serif; font-size: 20px; fill: rgb(42, 63, 95); fill-opacity: 1; white-space: pre;" transform="translate(853.33,0)">6000</text></g><g class="xtick"><text text-anchor="middle" x="0" y="661" style="font-family: 'Open Sans', verdana, arial, sans-serif; font-size: 20px; fill: rgb(42, 63, 95); fill-opacity: 1; white-space: pre;" transform="translate(982.22,0)">7000</text></g><g class="xtick"><text text-anchor="middle" x="0" y="661" style="font-family: 'Open Sans', verdana, arial, sans-serif; font-size: 20px; fill: rgb(42, 63, 95); fill-opacity: 1; white-space: pre;" transform="translate(1111.11,0)">8000</text></g><g class="xtick"><text text-anchor="middle" x="0" y="661" style="font-family: 'Open Sans', verdana, arial, sans-serif; font-size: 20px; fill: rgb(42, 63, 95); fill-opacity: 1; white-space: pre;" transform="translate(1240,0)">9000</text></g></g><g class="yaxislayer-above"/><g class="overaxes-above"/></g></g><g class="polarlayer"/><g class="smithlayer"/><g class="ternarylayer"/><g class="geolayer"/><g class="funnelarealayer"/><g class="pielayer"/><g class="iciclelayer"/><g class="treemaplayer"/><g class="sunburstlayer"/><g class="glimages"/><defs id="topdefs-783ee3"><g class="clips"/></defs><g class="layer-above"><g class="imagelayer"/><g class="shapelayer"/></g><g class="infolayer"><g class="g-gtitle"><text class="gtitle" x="64" y="40" text-anchor="start" dy="0em" style="opacity: 1; font-family: 'Open Sans', verdana, arial, sans-serif; font-size: 28px; fill: rgb(42, 63, 95); fill-opacity: 1; white-space: pre;">Willingness to pay for a complete natural-fibre bicycle</text></g><g class="g-xtitle"><text class="xtitle" x="660" y="696.3" text-anchor="middle" style="opacity: 1; font-family: 'Open Sans', verdana, arial, sans-serif; font-size: 24px; fill: rgb(42, 63, 95); fill-opacity: 1; white-space: pre;">Price (€)</text></g><g class="g-ytitle"/></g></svg>