<svg class="main-svg" xmlns="http://www.w3.org/2000/svg" xmlns:xlink="http://www.w3.org/1999/xlink" width="1280" height="720" style="" viewBox="0 0 1280 720"><rect x="0" y="0" width="1280" height="720" style="fill: rgb(255, 255, 255); fill-opacity: 1;"/><defs id="defs-880ec0"><g class="clips"><clipPath id="clip880ec0xyplot" class="plotclip"><rect width="555" height="560"/></clipPath><clipPath class="axesclip" id="clip880ec0x"><rect x="685" y="0" width="555" height="720"/></clipPath><clipPath class="axesclip" id="clip880ec0y"><rect x="0" y="80" width="1280" height="560"/></clipPath><clipPath class="axesclip" id="clip880ec0xy"><rect x="685" y="80" width="555" height="560"/></clipPath></g><g class="gradients"/><g class="patterns"/></defs><g class="bglayer"/><g class="layer-below"><g class="imagelayer"/><g class="shapelayer"/></g><g class="cartesianlayer"><g class="subplot xy"><g class="layer-subplot"><g class="shapelayer"/><g class="imagelayer"/></g><g class="minor-gridlayer"><g class="x"/><g class="y"/></g><g class="gridlayer"><g class="x"><path class="xgrid crisp" transform="translate(811.14,0)" d="M0,80v560" style="stroke: rgb(235, 240, 248); stroke-opacity: 1; stroke-width: 1px;"/><path class="xgrid crisp" transform="translate(912.05,0)" d="M0,80v560" style="stroke: rgb(235, 240, 248); stroke-opacity: 1; stroke-width: 1px;"/><path class="xgrid crisp" transform="translate(1012.95,0)" d="M0,80v560" style="stroke: rgb(235, 240, 248); stroke-opacity: 1; stroke-width: 1px;"/><path class="xgrid crisp" transform="translate(1113.8600000000001,0)" d="M0,80v560" style="stroke: rgb(235, 240, 248); stroke-opacity: 1; stroke-width: 1px;"/><path class="xgrid crisp" transform="translate(1214.77,0)" d="M0,80v560" style="stroke: rgb(235, 240, 248); stroke-opacity: 1; stroke-width: 1px;"/></g><g class="y"/></g><g class="zerolinelayer"><path class="xzl zl crisp" transform="translate(710.23,0)" d="M0,80v560" style="stroke: rgb(235, 240, 248); stroke-opacity: 1; stroke-width: 2px;"/></g><g class="layer-between"><g class="shapelayer"/><g class="imagelayer"/></g><path class="xlines-below"/><path class="ylines-below"/><g class="overlines-below"/><g class="xaxislayer-below"/><g class="yaxislayer-below"/><g class="overaxes-below"/><g class="overplot"><g class="xy" transform="translate(685,80)" clip-path="url(#clip880ec0xyplot)"><g class="violinlayer mlayer"><g class="trace violins" style="opacity: 1;"><path class="violin" d="M-9.35,465.37Q-4.42,464.72 -1.96,464.29C0.51,463.85 2.97,463.32 5.43,462.76C7.9,462.19 10.36,461.52 12.82,460.9C15.28,460.28 17.74,459.59 20.21,459.05C22.67,458.51 25.13,457.98 27.6,457.65C30.05,457.33 32.53,457.1 34.99,457.09C37.45,457.08 39.93,457.26 42.38,457.56C44.85,457.86 47.31,458.37 49.77,458.9C52.24,459.43 54.7,460.11 57.16,460.73C59.62,461.35 62.08,462.03 64.55,462.6C67.01,463.17 69.47,463.72 71.94,464.17C74.4,464.62 76.86,464.99 79.33,465.29C81.79,465.59 84.25,465.81 86.72,465.99C89.18,466.17 91.65,466.28 94.11,466.37C96.57,466.46 99.04,466.51 101.5,466.55C103.96,466.59 106.43,466.6 108.89,466.62C111.35,466.64 113.82,466.64 116.28,466.65C118.74,466.66 121.21,466.66 123.67,466.66C126.13,466.66 128.6,466.67 131.06,466.67C133.52,466.67 135.99,466.67 138.45,466.67C140.91,466.67 143.38,466.67 145.84,466.67C148.3,466.67 150.77,466.67 153.23,466.67C155.69,466.67 158.16,466.67 160.62,466.67C163.08,466.67 165.55,466.67 168.01,466.67C170.47,466.67 172.93,466.67 175.39,466.67C177.85,466.67 180.32,466.67 182.78,466.67C185.24,466.67 187.71,466.67 190.17,466.67C192.63,466.67 195.1,466.67 197.56,466.67C200.02,466.67 202.49,466.67 204.95,466.67C207.41,466.67 209.88,466.67 212.34,466.67C214.8,466.67 217.27,466.67 219.73,466.67C222.19,466.67 224.66,466.67 227.12,466.67C229.58,466.67 232.05,466.67 234.51,466.67C236.97,466.67 239.44,466.67 241.9,466.67C244.36,466.67 246.83,466.67 249.29,466.67C251.75,466.67 254.22,466.67 256.68,466.67C259.14,466.67 261.61,466.67 264.07,466.67C266.53,466.67 269,466.67 271.46,466.67C273.92,466.67 276.39,466.67 278.85,466.67C281.31,466.67 283.78,466.67 286.24,466.67C288.7,466.67 291.17,466.67 293.63,466.67C296.09,466.67 298.56,466.67 301.02,466.67C303.48,466.67 305.95,466.67 308.41,466.67C310.87,466.67 313.34,466.67 315.8,466.67C318.26,466.67 320.73,466.67 323.19,466.67C325.65,466.67 328.12,466.67 330.58,466.67C333.04,466.67 335.51,466.66 337.97,466.66C340.43,466.66 342.9,466.66 345.36,466.66C347.82,466.66 350.29,466.65 352.75,466.64C355.21,466.63 357.68,466.61 360.14,466.58C362.6,466.55 365.07,466.51 367.53,466.44C369.99,466.36 372.46,466.28 374.92,466.13C377.38,465.98 379.85,465.8 382.31,465.52C384.78,465.24 387.25,464.9 389.7,464.45C392.17,463.99 394.64,463.44 397.09,462.78C399.57,462.11 402.03,461.31 404.48,460.44C406.96,459.56 409.42,458.55 411.87,457.5C414.35,456.43 416.8,455.27 419.25,454.07C421.72,452.86 424.19,451.6 426.64,450.27C429.12,448.93 431.59,447.54 434.03,446.05C436.51,444.54 438.98,442.94 441.42,441.26C443.91,439.54 446.36,437.69 448.81,435.84C451.29,433.97 453.71,431.94 456.2,430.11C458.64,428.31 461.06,426.39 463.59,424.94C465.99,423.56 468.46,422.2 470.98,421.54C473.39,420.91 475.93,420.65 478.37,420.93C480.86,421.22 483.36,422.21 485.76,423.31C488.29,424.47 490.71,426.24 493.15,427.84C495.64,429.47 498.05,431.39 500.54,433C502.98,434.57 505.42,436.14 507.93,437.4C510.35,438.62 512.83,439.6 515.32,440.47C517.76,441.32 520.25,441.88 522.71,442.57C525.17,443.26 527.65,443.82 530.1,444.61C532.58,445.41 535.05,446.29 537.49,447.33C539.98,448.39 542.43,449.66 544.88,450.92C547.36,452.2 549.8,453.63 552.27,454.95C554.73,456.26 557.17,457.62 559.66,458.79C562.1,459.93 564.56,461 567.05,461.89Q569.49,462.76 574.44,464.07L574.44,469.26Q569.49,470.57 567.05,471.44C564.56,472.33 562.1,473.41 559.66,474.55C557.17,475.72 554.73,477.07 552.27,478.38C549.8,479.69 547.36,481.13 544.88,482.41C542.43,483.67 539.98,484.94 537.49,486C535.05,487.04 532.58,487.93 530.1,488.73C527.65,489.52 525.17,490.07 522.71,490.76C520.24,491.45 517.76,492.02 515.32,492.87C512.83,493.74 510.35,494.72 507.93,495.93C505.42,497.19 502.98,498.76 500.54,500.33C498.05,501.94 495.64,503.86 493.15,505.49C490.71,507.09 488.29,508.86 485.76,510.02C483.36,511.12 480.86,512.11 478.37,512.4C475.93,512.68 473.39,512.42 470.98,511.79C468.46,511.13 465.99,509.77 463.59,508.39C461.06,506.94 458.64,505.02 456.2,503.22C453.71,501.39 451.29,499.36 448.81,497.49C446.36,495.64 443.91,493.79 441.42,492.07C438.98,490.39 436.51,488.8 434.03,487.29C431.59,485.8 429.12,484.41 426.64,483.06C424.19,481.73 421.72,480.47 419.25,479.26C416.8,478.06 414.35,476.9 411.87,475.83C409.42,474.78 406.96,473.77 404.48,472.89C402.03,472.02 399.57,471.23 397.09,470.56C394.64,469.9 392.17,469.35 389.7,468.89C387.25,468.43 384.78,468.09 382.31,467.81C379.85,467.53 377.38,467.35 374.92,467.2C372.46,467.05 369.99,466.97 367.53,466.89C365.07,466.82 362.6,466.78 360.14,466.75C357.68,466.72 355.21,466.71 352.75,466.7C350.29,466.69 347.82,466.69 345.36,466.68C342.9,466.68 340.43,466.67 337.97,466.67C335.51,466.67 333.04,466.67 330.58,466.67C328.12,466.67 325.65,466.67 323.19,466.67C320.73,466.67 318.26,466.67 315.8,466.67C313.34,466.67 310.87,466.67 308.41,466.67C305.95,466.67 303.48,466.67 301.02,466.67C298.56,466.67 296.09,466.67 293.63,466.67C291.17,466.67 288.7,466.67 286.24,466.67C283.78,466.67 281.31,466.67 278.85,466.67C276.39,466.67 273.92,466.67 271.46,466.67C269,466.67 266.53,466.67 264.07,466.67C261.61,466.67 259.14,466.67 256.68,466.67C254.22,466.67 251.75,466.67 249.29,466.67C246.83,466.67 244.36,466.67 241.9,466.67C239.44,466.67 236.97,466.67 234.51,466.67C232.05,466.67 229.58,466.67 227.12,466.67C224.66,466.67 222.19,466.67 219.73,466.67C217.27,466.67 214.8,466.67 212.34,466.67C209.88,466.67 207.41,466.67 204.95,466.67C202.49,466.67 200.02,466.67 197.56,466.67C195.1,466.67 192.63,466.67 190.17,466.67C187.71,466.67 185.24,466.67 182.78,466.67C180.32,466.67 177.85,466.67 175.39,466.67C172.93,466.67 170.47,466.67 168.01,466.67C165.55,466.67 163.08,466.67 160.62,466.67C158.16,466.67 155.69,466.67 153.23,466.67C150.77,466.67 148.3,466.67 145.84,466.67C143.38,466.67 140.91,466.67 138.45,466.67C135.99,466.67 133.52,466.67 131.06,466.67C128.6,466.67 126.13,466.67 123.67,466.67C121.21,466.67 118.74,466.67 116.28,466.68C113.82,466.69 111.35,466.69 108.89,466.71C106.43,466.73 103.96,466.75 101.5,466.79C99.04,466.83 96.57,466.88 94.11,466.97C91.65,467.06 89.18,467.16 86.72,467.34C84.25,467.52 81.79,467.74 79.33,468.04C76.86,468.34 74.4,468.71 71.94,469.16C69.47,469.61 67.01,470.16 64.55,470.73C62.08,471.3 59.62,471.98 57.16,472.6C54.7,473.22 52.24,473.9 49.77,474.43C47.31,474.96 44.85,475.47 42.38,475.77C39.93,476.07 37.45,476.25 34.99,476.24C32.53,476.23 30.05,476 27.6,475.68C25.13,475.35 22.67,474.82 20.21,474.28C17.74,473.74 15.28,473.05 12.82,472.43C10.36,471.81 7.9,471.15 5.43,470.58C2.97,470.02 0.51,469.48 -1.96,469.04Q-4.42,468.6 -9.35,467.96Z" style="vector-effect: none; stroke-width: 2px; stroke: rgb(99, 110, 250); stroke-opacity: 1; fill: rgb(99, 110, 250); fill-opacity: 0.5;"/><path class="violin" d="M307.2,279.13Q315.04,278.69 318.95,278.36C322.87,278.03 326.79,277.64 330.7,277.15C334.62,276.66 338.54,276.1 342.45,275.44C346.37,274.78 350.29,274.03 354.2,273.21C358.12,272.38 362.04,271.46 365.95,270.49C369.88,269.51 373.8,268.44 377.71,267.36C381.63,266.27 385.54,265.11 389.46,263.98C393.38,262.85 397.29,261.67 401.21,260.6C405.12,259.53 409.03,258.46 412.96,257.56C416.86,256.66 420.78,255.85 424.71,255.19C428.62,254.54 432.54,254.03 436.46,253.63C440.37,253.23 444.3,252.99 448.22,252.79C452.14,252.59 456.05,252.5 459.97,252.41C463.89,252.32 467.8,252.26 471.72,252.23C475.64,252.2 479.55,252.17 483.47,252.24C487.39,252.31 491.31,252.39 495.22,252.63C499.14,252.88 503.06,253.19 506.97,253.71C510.9,254.23 514.82,254.91 518.72,255.75C522.66,256.6 526.58,257.66 530.48,258.8C534.42,259.95 538.32,261.31 542.23,262.64C546.16,263.98 550.06,265.45 553.98,266.81C557.89,268.16 561.8,269.55 565.73,270.77C569.63,271.98 573.55,273.13 577.48,274.1C581.38,275.06 585.3,275.88 589.23,276.56Q593.14,277.24 600.99,278.19L600.99,281.81Q593.14,282.76 589.23,283.44C585.3,284.12 581.38,284.94 577.48,285.9C573.55,286.87 569.63,288.02 565.73,289.23C561.8,290.45 557.89,291.84 553.98,293.19C550.06,294.55 546.16,296.02 542.23,297.36C538.32,298.69 534.42,300.05 530.48,301.2C526.58,302.34 522.66,303.4 518.72,304.25C514.82,305.09 510.9,305.77 506.97,306.29C503.06,306.81 499.14,307.12 495.22,307.37C491.31,307.61 487.39,307.69 483.47,307.76C479.55,307.83 475.64,307.8 471.72,307.77C467.8,307.74 463.89,307.68 459.97,307.59C456.05,307.5 452.14,307.41 448.22,307.21C444.3,307.01 440.37,306.77 436.46,306.37C432.54,305.97 428.62,305.46 424.71,304.81C420.78,304.15 416.86,303.34 412.96,302.44C409.03,301.54 405.12,300.47 401.21,299.4C397.29,298.33 393.38,297.15 389.46,296.02C385.54,294.89 381.63,293.73 377.71,292.64C373.8,291.56 369.88,290.49 365.95,289.51C362.04,288.54 358.12,287.62 354.2,286.79C350.29,285.97 346.37,285.22 342.45,284.56C338.54,283.9 334.62,283.34 330.7,282.85C326.79,282.36 322.87,281.97 318.95,281.64Q315.04,281.31 307.2,280.87Z" style="vector-effect: none; stroke-width: 2px; stroke: rgb(99, 110, 250); stroke-opacity: 1; fill: rgb(99, 110, 250); fill-opacity: 0.5;"/><path class="violin" d="M219.78,92.46Q228.86,92.01 233.4,91.68C237.94,91.35 242.48,90.94 247.02,90.47C251.56,90 256.09,89.44 260.63,88.87C265.17,88.3 269.71,87.63 274.25,87.03C278.79,86.43 283.33,85.77 287.87,85.25C292.41,84.73 296.95,84.24 301.49,83.92C306.03,83.6 310.57,83.39 315.11,83.34C319.65,83.29 324.19,83.41 328.73,83.59C333.27,83.77 337.81,84.13 342.35,84.42C346.89,84.71 351.43,85.12 355.97,85.35C360.51,85.58 365.05,85.81 369.59,85.79C374.13,85.77 378.68,85.63 383.21,85.22C387.76,84.81 392.31,84.18 396.83,83.34C401.39,82.49 405.93,81.36 410.45,80.13C415.01,78.88 419.54,77.38 424.07,75.89C428.62,74.4 433.13,72.7 437.68,71.19C442.21,69.68 446.73,68.08 451.3,66.83C455.81,65.59 460.35,64.41 464.92,63.7C469.44,62.99 474,62.54 478.54,62.55C483.08,62.56 487.65,62.99 492.16,63.74C496.73,64.5 501.27,65.76 505.78,67.12C510.36,68.5 514.88,70.29 519.4,72C523.96,73.73 528.47,75.68 533.02,77.44C537.55,79.19 542.08,80.97 546.64,82.51C551.16,84.03 555.7,85.44 560.26,86.62C564.78,87.78 569.32,88.74 573.88,89.54Q578.4,90.33 587.5,91.39L587.5,95.28Q578.4,96.33 573.88,97.12C569.32,97.92 564.78,98.89 560.26,100.05C555.7,101.23 551.16,102.63 546.64,104.15C542.08,105.69 537.55,107.48 533.02,109.23C528.47,110.99 523.96,112.93 519.4,114.66C514.87,116.37 510.36,118.16 505.78,119.55C501.27,120.91 496.73,122.17 492.16,122.93C487.65,123.68 483.08,124.12 478.54,124.12C474,124.12 469.44,123.67 464.92,122.96C460.35,122.24 455.81,121.07 451.3,119.83C446.73,118.58 442.21,116.99 437.68,115.48C433.13,113.97 428.62,112.27 424.07,110.78C419.54,109.29 415.01,107.79 410.45,106.54C405.93,105.31 401.39,104.18 396.83,103.33C392.31,102.49 387.76,101.86 383.21,101.45C378.68,101.04 374.13,100.9 369.59,100.88C365.05,100.86 360.51,101.08 355.97,101.31C351.43,101.54 346.89,101.95 342.35,102.25C337.81,102.54 333.27,102.9 328.73,103.08C324.19,103.26 319.65,103.38 315.11,103.32C310.57,103.26 306.03,103.06 301.49,102.74C296.95,102.42 292.41,101.94 287.87,101.42C283.33,100.9 278.79,100.24 274.25,99.64C269.71,99.04 265.17,98.38 260.63,97.8C256.09,97.23 251.56,96.66 247.02,96.19C242.48,95.72 237.94,95.32 233.4,94.99Q228.86,94.66 219.78,94.2Z" style="vector-effect: none; stroke-width: 2px; stroke: rgb(99, 110, 250); stroke-opacity: 1; fill: rgb(99, 110, 250); fill-opacity: 0.5;"/><path class="meanline" d="M432.79,446.7975769042969V486.54242309570316" style="fill: none; vector-effect: none; stroke-width: 2px; stroke-dasharray: 4px, 2px; stroke: rgb(99, 110, 250); stroke-opacity: 1;"/><path class="meanline" d="M465.3,252.306396484375V307.693603515625" style="fill: none; vector-effect: none; stroke-width: 2px; stroke-dasharray: 4px, 2px; stroke: rgb(99, 110, 250); stroke-opacity: 1;"/><path class="meanline" d="M440.08,70.38367462158203V116.27632537841797" style="fill: none; vector-effect: none; stroke-width: 2px; stroke-dasharray: 4px, 2px; stroke: rgb(99, 110, 250); stroke-opacity: 1;"/></g></g></g></g><g class="zerolinelayer-above"/><path class="xlines-above crisp" d="M0,0" style="fill: none;"/><path class="ylines-above crisp" d="M0,0" style="fill: none;"/><g class="overlines-above"/><g class="xaxislayer-above"><g class="xtick"><text text-anchor="middle" x="0" y="661" transform="translate(710.23,0)" style="font-family: 'Open Sans', verdana, arial, sans-serif; font-size: 20px; fill: rgb(42, 63, 95); fill-opacity: 1; white-space: pre;">0</text></g><g class="xtick"><text text-anchor="middle" x="0" y="661" style="font-family: 'Open Sans', verdana, arial, sans-serif; font-size: 20px; fill: rgb(42, 63, 95); fill-opacity: 1; white-space: pre;" transform="translate(811.14,0)">20</text></g><g class="xtick"><text text-anchor="middle" x="0" y="661" style="font-family: 'Open Sans', verdana, arial, sans-serif; font-size: 20px; fill: rgb(42, 63, 95); fill-opacity: 1; white-space: pre;" transform="translate(912.05,0)">40</text></g><g class="xtick"><text text-anchor="middle" x="0" y="661" style="font-family: 'Open Sans', verdana, arial, sans-serif; font-size: 20px; fill: rgb(42, 63, 95); fill-opacity: 1; white-space: pre;" transform="translate(1012.95,0)">60</text></g><g class="xtick"><text text-anchor="middle" x="0" y="661" style="font-family: 'Open Sans', verdana, arial, sans-serif; font-size: 20px; fill: rgb(42, 63, 95); fill-opacity: 1; white-space: pre;" transform="translate(1113.8600000000001,0)">80</text></g><g class="xtick"><text text-anchor="middle" x="0" y="661" style="font-family: 'Open Sans', verdana, arial, sans-serif; font-size: 20px; fill: rgb(42, 63, 95); fill-opacity: 1; white-space: pre;" transform="translate(1214.77,0)">100</text></g></g><g class="yaxislayer-above"><g class="ytick"><text text-anchor="end" x="684" y="7" transform="translate(0,546.6700000000001)" style="font-family: 'Open Sans', verdana, arial, sans-serif; font-size: 20px; fill: rgb(42, 63, 95); fill-opacity: 1; white-space: pre;">the comfort on smooth road surfaces (cycle path, road surface)</text></g><g class="ytick"><text text-anchor="end" x="684" y="7" transform="translate(0,360)" style="font-family: 'Open Sans', verdana, arial, sans-serif; font-size: 20px; fill: rgb(42, 63, 95); fill-opacity: 1; white-space: pre;">the comfort of the ride on rough road (gravel, cobblestone)</text></g><g class="ytick"><text text-anchor="end" x="684" y="7" transform="translate(0,173.32999999999998)" style="font-family: 'Open Sans', verdana, arial, sans-serif; font-size: 20px; fill: rgb(42, 63, 95); fill-opacity: 1; white-space: pre;">if you felt a vibration dampening (how smooth the ride felt)</text></g></g><g class="overaxes-above"/></g></g><g class="polarlayer"/><g class="smithlayer"/><g class="ternarylayer"/><g class="geolayer"/><g class="funnelarealayer"/><g class="pielayer"/><g class="iciclelayer"/><g class="treemaplayer"/><g class="sunburstlayer"/><g class="glimages"/><defs id="topdefs-880ec0"><g class="clips"/></defs><g class="layer-above"><g class="imagelayer"/><g class="shapelayer"/></g><g class="infolayer"><g class="g-gtitle"><text class="gtitle" x="64" y="40" text-anchor="start" dy="0em" style="opacity: 1; font-family: 'Open Sans', verdana, arial, sans-serif; font-size: 28px; fill: rgb(42, 63, 95); fill-opacity: 1; white-space: pre;">Comfort &amp; vibration (0–100 sliders)</text></g><g class="g-xtitle"><text class="xtitle" x="962.5" y="696.3" text-anchor="middle" style="opacity: 1; font-family: 'Open Sans', verdana, arial, sans-serif; font-size: 24px; fill: rgb(42, 63, 95); fill-opacity: 1; white-space: pre;">Score (0–100)</text></g><g class="g-ytitle" transform="translate(2.759765625,0)"><text class="ytitle" transform="rotate(-90,21.240625000000023,360)" x="21.240625000000023" y="360" text-anchor="middle" style="opacity: 1; font-family: 'Open Sans', verdana, arial, sans-serif; font-size: 24px; fill: rgb(42, 63, 95); fill-opacity: 1; white-space: pre;">Statement</text></g></g></svg>