<svg class="main-svg" xmlns="http://www.w3.org/2000/svg" xmlns:xlink="http://www.w3.org/1999/xlink" width="1280" height="720" style="" viewBox="0 0 1280 720"><rect x="0" y="0" width="1280" height="720" style="fill: rgb(255, 255, 255); fill-opacity: 1;"/><defs id="defs-be8546"><g class="clips"><clipPath id="clipbe8546xyplot" class="plotclip"><rect width="1160" height="560"/></clipPath><clipPath class="axesclip" id="clipbe8546x"><rect x="80" y="0" width="1160" height="720"/></clipPath><clipPath class="axesclip" id="clipbe8546y"><rect x="0" y="80" width="1280" height="560"/></clipPath><clipPath class="axesclip" id="clipbe8546xy"><rect x="80" y="80" width="1160" height="560"/></clipPath></g><g class="gradients"/><g class="patterns"/></defs><g class="bglayer"/><g class="layer-below"><g class="imagelayer"/><g class="shapelayer"/></g><g class="cartesianlayer"><g class="subplot xy"><g class="layer-subplot"><g class="shapelayer"/><g class="imagelayer"/></g><g class="minor-gridlayer"><g class="x"/><g class="y"/></g><g class="gridlayer"><g class="x"><path class="xgrid crisp" transform="translate(343.64,0)" d="M0,80v560" style="stroke: rgb(235, 240, 248); stroke-opacity: 1; stroke-width: 1px;"/><path class="xgrid crisp" transform="translate(554.55,0)" d="M0,80v560" style="stroke: rgb(235, 240, 248); stroke-opacity: 1; stroke-width: 1px;"/><path class="xgrid crisp" transform="translate(765.45,0)" d="M0,80v560" style="stroke: rgb(235, 240, 248); stroke-opacity: 1; stroke-width: 1px;"/><path class="xgrid crisp" transform="translate(976.36,0)" d="M0,80v560" style="stroke: rgb(235, 240, 248); stroke-opacity: 1; stroke-width: 1px;"/><path class="xgrid crisp" transform="translate(1187.27,0)" d="M0,80v560" style="stroke: rgb(235, 240, 248); stroke-opacity: 1; stroke-width: 1px;"/></g><g class="y"/></g><g class="zerolinelayer"><path class="xzl zl crisp" transform="translate(132.73,0)" d="M0,80v560" style="stroke: rgb(235, 240, 248); stroke-opacity: 1; stroke-width: 2px;"/></g><g class="layer-between"><g class="shapelayer"/><g class="imagelayer"/></g><path class="xlines-below"/><path class="ylines-below"/><g class="overlines-below"/><g class="xaxislayer-below"/><g class="yaxislayer-below"/><g class="overaxes-below"/><g class="overplot"><g class="xy" transform="translate(80,80)" clip-path="url(#clipbe8546xyplot)"><g class="violinlayer mlayer"><g class="trace violins" style="opacity: 1;"><path class="violin" d="M223.14,273.36Q256.19,269.8 272.65,267.13C289.2,264.44 305.73,261.21 322.16,257.25C338.74,253.25 355.26,248.5 371.67,243.23C388.27,237.9 404.74,231.73 421.18,225.42C437.75,219.06 454.19,211.97 470.69,205.2C487.2,198.43 503.64,191.22 520.21,184.79C536.65,178.41 553.11,172.02 569.72,166.73C586.12,161.51 602.63,156.77 619.23,153.18C635.64,149.64 652.19,147.01 668.74,145.28C685.2,143.56 701.74,143 718.25,142.8C734.75,142.6 751.26,143.44 767.76,144.05C784.27,144.66 800.76,145.86 817.27,146.47C833.77,147.08 850.28,147.64 866.78,147.71C883.29,147.78 899.8,147.3 916.3,146.9C932.81,146.5 949.3,145.47 965.81,145.32C982.31,145.17 998.85,144.86 1015.32,145.97C1031.85,147.08 1048.43,148.86 1064.83,152C1081.44,155.18 1097.98,159.71 1114.34,165C1131,170.39 1147.44,177.27 1163.85,184.14C1180.45,191.09 1196.84,199.11 1213.36,206.5C1229.85,213.88 1246.27,221.66 1262.87,228.45C1279.28,235.16 1295.76,241.62 1312.39,247.05C1328.78,252.4 1345.31,257.03 1361.9,260.85Q1378.32,264.63 1411.41,269.9L1411.41,290.1Q1378.32,295.37 1361.9,299.15C1345.31,302.97 1328.78,307.6 1312.39,312.95C1295.76,318.38 1279.28,324.84 1262.87,331.55C1246.27,338.34 1229.85,346.12 1213.36,353.5C1196.84,360.89 1180.45,368.91 1163.85,375.86C1147.44,382.73 1131,389.61 1114.34,395C1097.98,400.29 1081.44,404.82 1064.83,408C1048.43,411.14 1031.85,412.92 1015.32,414.03C998.85,415.14 982.31,414.83 965.81,414.68C949.3,414.53 932.81,413.5 916.3,413.1C899.8,412.7 883.29,412.22 866.78,412.29C850.28,412.36 833.77,412.92 817.27,413.53C800.76,414.14 784.27,415.34 767.76,415.95C751.26,416.56 734.75,417.4 718.25,417.2C701.74,417 685.2,416.44 668.74,414.72C652.19,412.99 635.64,410.36 619.23,406.82C602.63,403.23 586.12,398.49 569.72,393.27C553.11,387.98 536.65,381.59 520.21,375.21C503.64,368.78 487.2,361.57 470.69,354.8C454.19,348.03 437.75,340.94 421.18,334.58C404.74,328.27 388.27,322.1 371.67,316.77C355.26,311.5 338.74,306.75 322.16,302.75C305.73,298.79 289.2,295.56 272.65,292.87Q256.19,290.2 223.14,286.64Z" style="vector-effect: none; stroke-width: 2px; stroke: rgb(99, 110, 250); stroke-opacity: 1; fill: rgb(99, 110, 250); fill-opacity: 0.5;"/><path class="meanline" d="M837.78,147.17047119140625V412.82952880859375" style="fill: none; vector-effect: none; stroke-width: 2px; stroke-dasharray: 4px, 2px; stroke: rgb(99, 110, 250); stroke-opacity: 1;"/></g></g></g></g><g class="zerolinelayer-above"/><path class="xlines-above crisp" d="M0,0" style="fill: none;"/><path class="ylines-above crisp" d="M0,0" style="fill: none;"/><g class="overlines-above"/><g class="xaxislayer-above"><g class="xtick"><text text-anchor="middle" x="0" y="661" transform="translate(132.73,0)" style="font-family: 'Open Sans', verdana, arial, sans-serif; font-size: 20px; fill: rgb(42, 63, 95); fill-opacity: 1; white-space: pre;">0</text></g><g class="xtick"><text text-anchor="middle" x="0" y="661" style="font-family: 'Open Sans', verdana, arial, sans-serif; font-size: 20px; fill: rgb(42, 63, 95); fill-opacity: 1; white-space: pre;" transform="translate(343.64,0)">20</text></g><g class="xtick"><text text-anchor="middle" x="0" y="661" style="font-family: 'Open Sans', verdana, arial, sans-serif; font-size: 20px; fill: rgb(42, 63, 95); fill-opacity: 1; white-space: pre;" transform="translate(554.55,0)">40</text></g><g class="xtick"><text text-anchor="middle" x="0" y="661" style="font-family: 'Open Sans', verdana, arial, sans-serif; font-size: 20px; fill: rgb(42, 63, 95); fill-opacity: 1; white-space: pre;" transform="translate(765.45,0)">60</text></g><g class="xtick"><text text-anchor="middle" x="0" y="661" style="font-family: 'Open Sans', verdana, arial, sans-serif; font-size: 20px; fill: rgb(42, 63, 95); fill-opacity: 1; white-space: pre;" transform="translate(976.36,0)">80</text></g><g class="xtick"><text text-anchor="middle" x="0" y="661" style="font-family: 'Open Sans', verdana, arial, sans-serif; font-size: 20px; fill: rgb(42, 63, 95); fill-opacity: 1; white-space: pre;" transform="translate(1187.27,0)">100</text></g></g><g class="yaxislayer-above"/><g class="overaxes-above"/></g></g><g class="polarlayer"/><g class="smithlayer"/><g class="ternarylayer"/><g class="geolayer"/><g class="funnelarealayer"/><g class="pielayer"/><g class="iciclelayer"/><g class="treemaplayer"/><g class="sunburstlayer"/><g class="glimages"/><defs id="topdefs-be8546"><g class="clips"/></defs><g class="layer-above"><g class="imagelayer"/><g class="shapelayer"><g class="shape-group" data-index="0" clip-path="url(#clipbe8546x)"><path data-index="0" fill-rule="evenodd" d="M660,640L660,80" style="opacity: 1; stroke: rgb(0, 0, 0); stroke-opacity: 1; fill: rgb(0, 0, 0); fill-opacity: 0; stroke-dasharray: 9px, 9px; stroke-width: 2px;"/></g></g></g><g class="infolayer"><g class="g-gtitle"><text class="gtitle" x="64" y="40" text-anchor="start" dy="0em" style="opacity: 1; font-family: 'Open Sans', verdana, arial, sans-serif; font-size: 28px; fill: rgb(42, 63, 95); fill-opacity: 1; white-space: pre;">Perceived performance compared to carbon frame</text></g><g class="g-xtitle"><text class="xtitle" x="660" y="696.3" text-anchor="middle" style="opacity: 1; font-family: 'Open Sans', verdana, arial, sans-serif; font-size: 24px; fill: rgb(42, 63, 95); fill-opacity: 1; white-space: pre;">Rating (0–100, 50 = same as carbon)</text></g><g class="g-ytitle"/></g></svg>