<svg class="main-svg" xmlns="http://www.w3.org/2000/svg" xmlns:xlink="http://www.w3.org/1999/xlink" width="1280" height="720" style="" viewBox="0 0 1280 720"><rect x="0" y="0" width="1280" height="720" style="fill: rgb(255, 255, 255); fill-opacity: 1;"/><defs id="defs-fb9cee"><g class="clips"><clipPath id="clipfb9ceexyplot" class="plotclip"><rect width="807" height="560"/></clipPath><clipPath class="axesclip" id="clipfb9ceex"><rect x="433" y="0" width="807" height="720"/></clipPath><clipPath class="axesclip" id="clipfb9ceey"><rect x="0" y="80" width="1280" height="560"/></clipPath><clipPath class="axesclip" id="clipfb9ceexy"><rect x="433" y="80" width="807" height="560"/></clipPath></g><g class="gradients"/><g class="patterns"/></defs><g class="bglayer"/><g class="layer-below"><g class="imagelayer"/><g class="shapelayer"/></g><g class="cartesianlayer"><g class="subplot xy"><g class="layer-subplot"><g class="shapelayer"/><g class="imagelayer"/></g><g class="minor-gridlayer"><g class="x"/><g class="y"/></g><g class="gridlayer"><g class="x"><path class="xgrid crisp" transform="translate(616.41,0)" d="M0,80v560" style="stroke: rgb(235, 240, 248); stroke-opacity: 1; stroke-width: 1px;"/><path class="xgrid crisp" transform="translate(763.14,0)" d="M0,80v560" style="stroke: rgb(235, 240, 248); stroke-opacity: 1; stroke-width: 1px;"/><path class="xgrid crisp" transform="translate(909.86,0)" d="M0,80v560" style="stroke: rgb(235, 240, 248); stroke-opacity: 1; stroke-width: 1px;"/><path class="xgrid crisp" transform="translate(1056.5900000000001,0)" d="M0,80v560" style="stroke: rgb(235, 240, 248); stroke-opacity: 1; stroke-width: 1px;"/><path class="xgrid crisp" transform="translate(1203.3200000000002,0)" d="M0,80v560" style="stroke: rgb(235, 240, 248); stroke-opacity: 1; stroke-width: 1px;"/></g><g class="y"/></g><g class="zerolinelayer"><path class="xzl zl crisp" transform="translate(469.68,0)" d="M0,80v560" style="stroke: rgb(235, 240, 248); stroke-opacity: 1; stroke-width: 2px;"/></g><g class="layer-between"><g class="shapelayer"/><g class="imagelayer"/></g><path class="xlines-below"/><path class="ylines-below"/><g class="overlines-below"/><g class="xaxislayer-below"/><g class="yaxislayer-below"/><g class="overaxes-below"/><g class="overplot"><g class="xy" transform="translate(433,80)" clip-path="url(#clipfb9ceexyplot)"><g class="violinlayer mlayer"><g class="trace violins" style="opacity: 1;"><path class="violin" d="M381.09,512.71Q395.58,512.37 402.82,512.13C410.07,511.89 417.31,511.6 424.56,511.26C431.81,510.92 439.05,510.51 446.3,510.08C453.55,509.65 460.79,509.15 468.04,508.68C475.28,508.21 482.52,507.71 489.77,507.28C497.01,506.85 504.26,506.42 511.51,506.09C518.76,505.76 526,505.49 533.25,505.31C540.49,505.13 547.74,505.05 554.98,505C562.23,504.95 569.47,504.99 576.72,505.04C583.97,505.09 591.21,505.2 598.46,505.28C605.7,505.36 612.95,505.46 620.19,505.53C627.44,505.6 634.68,505.66 641.93,505.71C649.18,505.76 656.42,505.78 663.67,505.83C670.92,505.88 678.16,505.91 685.41,505.99C692.65,506.06 699.9,506.15 707.14,506.28C714.39,506.41 721.63,506.58 728.88,506.79C736.13,507 743.37,507.26 750.62,507.54C757.86,507.82 765.11,508.16 772.35,508.49C779.6,508.83 786.84,509.2 794.09,509.55C801.34,509.9 808.58,510.26 815.83,510.58C823.07,510.9 830.32,511.22 837.56,511.49C844.81,511.76 852.05,512 859.3,512.2C866.55,512.4 873.79,512.56 881.04,512.69Q888.29,512.82 902.78,513L902.78,513.66Q888.29,513.84 881.04,513.97C873.79,514.11 866.55,514.27 859.3,514.47C852.05,514.67 844.81,514.91 837.56,515.18C830.32,515.45 823.07,515.77 815.83,516.09C808.58,516.41 801.34,516.77 794.09,517.12C786.84,517.47 779.6,517.84 772.35,518.17C765.11,518.5 757.86,518.84 750.62,519.12C743.37,519.41 736.13,519.67 728.88,519.88C721.63,520.09 714.39,520.26 707.14,520.39C699.9,520.52 692.65,520.61 685.41,520.68C678.16,520.75 670.92,520.78 663.67,520.83C656.42,520.88 649.18,520.91 641.93,520.96C634.68,521.01 627.44,521.07 620.19,521.14C612.95,521.21 605.7,521.31 598.46,521.39C591.21,521.47 583.97,521.57 576.72,521.62C569.47,521.67 562.23,521.72 554.98,521.67C547.74,521.62 540.49,521.53 533.25,521.35C526,521.17 518.76,520.9 511.51,520.57C504.26,520.24 497.01,519.82 489.77,519.39C482.52,518.96 475.28,518.45 468.04,517.98C460.79,517.51 453.55,517.02 446.3,516.59C439.05,516.16 431.81,515.75 424.56,515.41C417.31,515.07 410.07,514.77 402.82,514.53Q395.58,514.29 381.09,513.96Z" style="vector-effect: none; stroke-width: 2px; stroke: rgb(99, 110, 250); stroke-opacity: 1; fill: rgb(99, 110, 250); fill-opacity: 0.5;"/><path class="violin" d="M365.96,419.57Q374.14,419.35 378.23,419.2C382.32,419.05 386.41,418.88 390.5,418.69C394.59,418.5 398.68,418.28 402.77,418.07C406.86,417.86 410.95,417.63 415.04,417.45C419.13,417.27 423.22,417.09 427.31,416.98C431.4,416.87 435.5,416.79 439.59,416.79C443.68,416.79 447.77,416.85 451.86,416.95C455.95,417.05 460.04,417.22 464.13,417.4C468.22,417.58 472.31,417.81 476.4,418.01C480.49,418.22 484.58,418.44 488.67,418.63C492.76,418.82 496.85,419.01 500.94,419.16C505.03,419.31 509.12,419.44 513.21,419.54C517.3,419.64 521.4,419.71 525.49,419.77C529.58,419.83 533.67,419.87 537.76,419.9C541.85,419.93 545.94,419.95 550.03,419.96C554.12,419.97 558.21,419.98 562.3,419.98C566.39,419.98 570.48,419.98 574.57,419.97C578.66,419.96 582.75,419.95 586.84,419.92C590.93,419.89 595.02,419.86 599.11,419.79C603.2,419.72 607.3,419.65 611.39,419.51C615.48,419.37 619.57,419.21 623.66,418.96C627.75,418.71 631.84,418.43 635.93,418.03C640.02,417.63 644.12,417.15 648.2,416.57C652.3,415.99 656.39,415.3 660.47,414.54C664.57,413.78 668.66,412.91 672.74,412.01C676.84,411.11 680.92,410.1 685.01,409.14C689.1,408.18 693.19,407.16 697.29,406.24C701.38,405.32 705.46,404.4 709.56,403.63C713.64,402.86 717.73,402.15 721.83,401.63C725.91,401.11 730.01,400.7 734.1,400.51C738.19,400.32 742.28,400.3 746.37,400.47C750.46,400.64 754.56,401.03 758.64,401.56C762.74,402.1 766.83,402.86 770.91,403.69C775.01,404.53 779.1,405.55 783.19,406.56C787.29,407.57 791.37,408.72 795.46,409.76C799.55,410.8 803.63,411.88 807.73,412.82C811.81,413.76 815.9,414.65 820,415.4C824.08,416.15 828.17,416.79 832.27,417.32Q836.35,417.85 844.54,418.58L844.54,421.42Q836.35,422.15 832.27,422.68C828.17,423.21 824.08,423.85 820,424.6C815.9,425.35 811.81,426.24 807.73,427.18C803.63,428.12 799.55,429.2 795.46,430.24C791.37,431.28 787.29,432.43 783.19,433.44C779.1,434.45 775.01,435.47 770.91,436.31C766.83,437.14 762.74,437.9 758.64,438.44C754.56,438.97 750.46,439.36 746.37,439.53C742.28,439.7 738.19,439.68 734.1,439.49C730.01,439.3 725.91,438.89 721.83,438.37C717.73,437.85 713.64,437.14 709.56,436.37C705.46,435.6 701.38,434.68 697.29,433.76C693.19,432.84 689.1,431.82 685.01,430.86C680.92,429.9 676.84,428.89 672.74,427.99C668.66,427.09 664.57,426.22 660.47,425.46C656.39,424.7 652.3,424.01 648.2,423.43C644.12,422.85 640.02,422.37 635.93,421.97C631.84,421.57 627.75,421.29 623.66,421.04C619.57,420.79 615.48,420.63 611.39,420.49C607.3,420.35 603.2,420.28 599.11,420.21C595.02,420.14 590.93,420.11 586.84,420.08C582.75,420.05 578.66,420.04 574.57,420.03C570.48,420.02 566.39,420.02 562.3,420.02C558.21,420.02 554.12,420.03 550.03,420.04C545.94,420.05 541.85,420.07 537.76,420.1C533.67,420.13 529.58,420.17 525.49,420.23C521.4,420.29 517.3,420.36 513.21,420.46C509.12,420.56 505.03,420.69 500.94,420.84C496.85,420.99 492.76,421.18 488.67,421.37C484.58,421.56 480.49,421.78 476.4,421.99C472.31,422.19 468.22,422.42 464.13,422.6C460.04,422.78 455.95,422.95 451.86,423.05C447.77,423.15 443.68,423.21 439.59,423.21C435.5,423.21 431.4,423.13 427.31,423.02C423.22,422.91 419.13,422.73 415.04,422.55C410.95,422.37 406.86,422.14 402.77,421.93C398.68,421.72 394.59,421.5 390.5,421.31C386.41,421.12 382.32,420.95 378.23,420.8Q374.14,420.65 365.96,420.43Z" style="vector-effect: none; stroke-width: 2px; stroke: rgb(99, 110, 250); stroke-opacity: 1; fill: rgb(99, 110, 250); fill-opacity: 0.5;"/><path class="violin" d="M467.16,325.97Q472.22,325.63 474.75,325.4C477.28,325.17 479.82,324.89 482.35,324.59C484.88,324.29 487.42,323.94 489.95,323.61C492.48,323.28 495.01,322.91 497.55,322.62C500.08,322.33 502.61,322.04 505.15,321.86C507.68,321.68 510.22,321.56 512.75,321.54C515.28,321.52 517.82,321.6 520.35,321.75C522.89,321.9 525.42,322.16 527.95,322.43C530.49,322.7 533.02,323.06 535.55,323.39C538.08,323.72 540.62,324.08 543.15,324.39C545.68,324.7 548.21,325 550.74,325.25C553.27,325.5 555.81,325.7 558.34,325.87C560.87,326.04 563.41,326.16 565.94,326.26C568.47,326.36 571.01,326.42 573.54,326.47C576.07,326.52 578.61,326.54 581.14,326.55C583.67,326.56 586.21,326.55 588.74,326.51C591.27,326.47 593.81,326.42 596.34,326.31C598.87,326.2 601.41,326.07 603.94,325.85C606.48,325.62 609.02,325.36 611.54,324.96C614.08,324.55 616.61,324.06 619.13,323.42C621.68,322.77 624.22,321.99 626.73,321.1C629.28,320.2 631.81,319.13 634.33,318.03C636.88,316.92 639.4,315.66 641.93,314.48C644.46,313.29 646.98,312.03 649.53,310.92C652.05,309.82 654.58,308.75 657.13,307.86C659.64,306.99 662.18,306.22 664.73,305.62C667.25,305.03 669.79,304.6 672.33,304.3C674.86,304 677.4,303.84 679.93,303.8C682.46,303.76 685,303.85 687.53,304.05C690.07,304.25 692.6,304.59 695.12,305.02C697.66,305.46 700.2,306.04 702.72,306.67C705.26,307.31 707.79,308.09 710.32,308.85C712.86,309.61 715.38,310.47 717.92,311.25C720.45,312.03 722.98,312.84 725.52,313.54C728.05,314.24 730.58,314.89 733.12,315.44C735.65,315.99 738.18,316.46 740.72,316.86C743.25,317.26 745.78,317.57 748.32,317.86C750.85,318.15 753.39,318.36 755.92,318.59C758.45,318.82 760.99,319.02 763.52,319.26C766.05,319.5 768.58,319.75 771.11,320.05C773.64,320.35 776.18,320.69 778.71,321.05C781.25,321.41 783.78,321.82 786.31,322.22C788.84,322.62 791.38,323.05 793.91,323.43C796.44,323.81 798.97,324.2 801.51,324.52C804.04,324.84 806.57,325.13 809.11,325.37Q811.64,325.61 816.71,325.96L816.71,327.37Q811.64,327.72 809.11,327.96C806.57,328.2 804.04,328.5 801.51,328.82C798.97,329.14 796.44,329.52 793.91,329.9C791.38,330.28 788.84,330.71 786.31,331.11C783.78,331.51 781.25,331.92 778.71,332.28C776.18,332.64 773.64,332.98 771.11,333.28C768.58,333.58 766.05,333.82 763.52,334.07C760.99,334.31 758.45,334.52 755.92,334.75C753.39,334.99 750.85,335.19 748.32,335.48C745.78,335.77 743.25,336.07 740.72,336.47C738.18,336.87 735.64,337.34 733.12,337.89C730.58,338.45 728.05,339.1 725.52,339.8C722.98,340.5 720.45,341.3 717.92,342.08C715.38,342.86 712.86,343.73 710.32,344.49C707.79,345.25 705.26,346.02 702.72,346.66C700.2,347.29 697.66,347.87 695.12,348.31C692.6,348.74 690.07,349.08 687.53,349.28C685,349.48 682.46,349.57 679.93,349.53C677.4,349.49 674.86,349.34 672.33,349.04C669.79,348.74 667.25,348.3 664.73,347.71C662.18,347.11 659.64,346.34 657.13,345.47C654.58,344.58 652.05,343.5 649.53,342.41C646.98,341.3 644.46,340.04 641.93,338.86C639.4,337.68 636.88,336.42 634.33,335.31C631.81,334.21 629.28,333.14 626.73,332.24C624.22,331.35 621.68,330.57 619.13,329.92C616.61,329.28 614.08,328.79 611.54,328.38C609.02,327.98 606.48,327.71 603.94,327.48C601.41,327.25 598.87,327.13 596.34,327.02C593.81,326.91 591.27,326.87 588.74,326.83C586.21,326.79 583.67,326.79 581.14,326.79C578.61,326.79 576.07,326.81 573.54,326.86C571.01,326.91 568.47,326.97 565.94,327.07C563.41,327.17 560.87,327.29 558.34,327.46C555.81,327.63 553.27,327.84 550.74,328.09C548.21,328.34 545.68,328.63 543.15,328.94C540.62,329.25 538.08,329.61 535.55,329.94C533.02,330.27 530.49,330.63 527.95,330.9C525.42,331.17 522.89,331.43 520.35,331.58C517.82,331.73 515.28,331.82 512.75,331.8C510.22,331.78 507.68,331.65 505.15,331.47C502.61,331.29 500.08,331 497.55,330.71C495.01,330.42 492.48,330.06 489.95,329.73C487.42,329.4 484.89,329.04 482.35,328.74C479.82,328.44 477.28,328.16 474.75,327.93Q472.22,327.7 467.16,327.36Z" style="vector-effect: none; stroke-width: 2px; stroke: rgb(99, 110, 250); stroke-opacity: 1; fill: rgb(99, 110, 250); fill-opacity: 0.5;"/><path class="violin" d="M439.85,232.73Q452.09,232.42 458.21,232.2C464.33,231.98 470.46,231.72 476.58,231.42C482.7,231.12 488.83,230.76 494.95,230.38C501.07,230 507.2,229.58 513.32,229.16C519.44,228.74 525.57,228.3 531.69,227.87C537.81,227.44 543.94,227 550.06,226.59C556.18,226.18 562.31,225.78 568.43,225.4C574.55,225.02 580.68,224.66 586.8,224.33C592.92,224 599.05,223.67 605.17,223.41C611.29,223.15 617.41,222.91 623.53,222.76C629.65,222.6 635.78,222.5 641.9,222.48C648.02,222.46 654.15,222.53 660.27,222.65C666.39,222.77 672.52,222.98 678.64,223.21C684.76,223.44 690.89,223.75 697.01,224.03C703.13,224.31 709.26,224.62 715.38,224.91C721.5,225.2 727.63,225.48 733.75,225.76C739.87,226.04 746,226.29 752.12,226.57C758.24,226.85 764.37,227.12 770.49,227.42C776.61,227.72 782.74,228.04 788.86,228.38C794.98,228.72 801.1,229.09 807.22,229.45C813.34,229.81 819.47,230.18 825.59,230.52C831.71,230.86 837.84,231.19 843.96,231.48C850.08,231.76 856.21,232.02 862.33,232.23Q868.45,232.44 880.7,232.74L880.7,233.93Q868.45,234.23 862.33,234.44C856.21,234.65 850.08,234.9 843.96,235.18C837.84,235.46 831.71,235.8 825.59,236.14C819.47,236.48 813.34,236.86 807.22,237.22C801.1,237.58 794.98,237.94 788.86,238.28C782.74,238.62 776.61,238.95 770.49,239.25C764.37,239.55 758.24,239.82 752.12,240.1C746,240.38 739.87,240.64 733.75,240.91C727.63,241.19 721.5,241.46 715.38,241.75C709.26,242.04 703.13,242.36 697.01,242.64C690.89,242.92 684.76,243.22 678.64,243.45C672.52,243.68 666.39,243.9 660.27,244.02C654.15,244.14 648.02,244.2 641.9,244.18C635.78,244.16 629.65,244.07 623.53,243.91C617.41,243.76 611.29,243.51 605.17,243.25C599.05,242.99 592.92,242.67 586.8,242.34C580.68,242.01 574.55,241.65 568.43,241.27C562.31,240.89 556.18,240.48 550.06,240.07C543.94,239.66 537.81,239.23 531.69,238.8C525.57,238.37 519.44,237.92 513.32,237.5C507.2,237.08 501.07,236.66 494.95,236.28C488.83,235.91 482.7,235.55 476.58,235.25C470.46,234.95 464.33,234.68 458.21,234.46Q452.09,234.24 439.85,233.94Z" style="vector-effect: none; stroke-width: 2px; stroke: rgb(99, 110, 250); stroke-opacity: 1; fill: rgb(99, 110, 250); fill-opacity: 0.5;"/><path class="violin" d="M544.43,139.18Q552.9,138.78 557.14,138.51C561.38,138.24 565.62,137.91 569.85,137.55C574.09,137.19 578.32,136.76 582.56,136.34C586.8,135.91 591.03,135.44 595.27,135C599.51,134.56 603.74,134.1 607.98,133.69C612.22,133.28 616.45,132.89 620.69,132.53C624.93,132.17 629.16,131.86 633.4,131.54C637.64,131.22 641.87,130.92 646.11,130.6C650.35,130.28 654.58,129.95 658.82,129.6C663.06,129.25 667.29,128.87 671.53,128.49C675.77,128.11 680,127.7 684.24,127.34C688.48,126.98 692.71,126.62 696.95,126.32C701.19,126.03 705.42,125.76 709.66,125.57C713.9,125.38 718.13,125.24 722.37,125.17C726.61,125.1 730.85,125.08 735.09,125.14C739.33,125.2 743.57,125.31 747.8,125.51C752.04,125.71 756.28,125.99 760.51,126.36C764.75,126.74 768.99,127.21 773.22,127.76C777.46,128.31 781.7,128.98 785.93,129.67C790.17,130.36 794.4,131.15 798.64,131.9C802.88,132.65 807.11,133.44 811.35,134.15C815.58,134.86 819.82,135.55 824.06,136.14C828.29,136.73 832.53,137.25 836.77,137.68Q841,138.11 849.48,138.73L849.48,141.27Q841,141.89 836.77,142.32C832.53,142.75 828.29,143.27 824.06,143.86C819.82,144.45 815.58,145.14 811.35,145.85C807.11,146.56 802.88,147.35 798.64,148.1C794.4,148.85 790.17,149.64 785.93,150.33C781.7,151.02 777.46,151.69 773.22,152.24C768.99,152.79 764.75,153.26 760.51,153.64C756.28,154.01 752.04,154.29 747.8,154.49C743.57,154.69 739.33,154.8 735.09,154.86C730.85,154.92 726.61,154.9 722.37,154.83C718.13,154.76 713.9,154.62 709.66,154.43C705.42,154.24 701.19,153.97 696.95,153.68C692.71,153.38 688.48,153.02 684.24,152.66C680,152.3 675.77,151.89 671.53,151.51C667.29,151.13 663.06,150.75 658.82,150.4C654.58,150.05 650.35,149.72 646.11,149.4C641.87,149.08 637.64,148.78 633.4,148.46C629.16,148.14 624.93,147.83 620.69,147.47C616.45,147.11 612.22,146.72 607.98,146.31C603.74,145.9 599.51,145.44 595.27,145C591.03,144.56 586.8,144.09 582.56,143.66C578.32,143.24 574.09,142.81 569.85,142.45C565.62,142.09 561.38,141.76 557.14,141.49Q552.9,141.22 544.43,140.82Z" style="vector-effect: none; stroke-width: 2px; stroke: rgb(99, 110, 250); stroke-opacity: 1; fill: rgb(99, 110, 250); fill-opacity: 0.5;"/><path class="violin" d="M445.68,46.34Q457.12,46.18 462.84,46.06C468.56,45.94 474.29,45.81 480.01,45.64C485.73,45.47 491.46,45.27 497.18,45.06C502.9,44.84 508.63,44.6 514.35,44.35C520.07,44.1 525.8,43.83 531.52,43.55C537.24,43.28 542.96,42.98 548.68,42.7C554.4,42.42 560.13,42.14 565.85,41.87C571.57,41.6 577.3,41.34 583.02,41.1C588.74,40.86 594.47,40.63 600.19,40.41C605.91,40.19 611.63,39.99 617.35,39.79C623.07,39.59 628.8,39.41 634.52,39.19C640.24,38.97 645.97,38.75 651.69,38.47C657.41,38.19 663.14,37.88 668.86,37.53C674.58,37.18 680.3,36.77 686.02,36.38C691.74,35.99 697.47,35.53 703.19,35.18C708.91,34.83 714.63,34.47 720.36,34.27C726.08,34.07 731.81,33.95 737.53,34C743.25,34.05 748.98,34.25 754.7,34.58C760.42,34.91 766.14,35.42 771.86,35.99C777.59,36.56 783.31,37.28 789.03,37.98C794.76,38.68 800.48,39.48 806.2,40.19C811.92,40.9 817.64,41.63 823.37,42.25C829.09,42.87 834.81,43.44 840.53,43.92C846.25,44.4 851.97,44.78 857.7,45.11Q863.42,45.43 874.87,45.87L874.87,47.47Q863.42,47.9 857.7,48.22C851.97,48.54 846.25,48.93 840.53,49.41C834.81,49.89 829.09,50.46 823.37,51.08C817.64,51.7 811.92,52.43 806.2,53.14C800.48,53.85 794.76,54.65 789.03,55.35C783.31,56.05 777.59,56.78 771.86,57.35C766.14,57.92 760.42,58.43 754.7,58.76C748.98,59.09 743.25,59.28 737.53,59.33C731.81,59.38 726.08,59.26 720.36,59.06C714.63,58.86 708.91,58.5 703.19,58.15C697.47,57.8 691.74,57.35 686.02,56.96C680.3,56.57 674.58,56.15 668.86,55.8C663.14,55.45 657.41,55.15 651.69,54.87C645.97,54.6 640.24,54.37 634.52,54.15C628.8,53.93 623.07,53.74 617.35,53.54C611.63,53.34 605.91,53.15 600.19,52.93C594.47,52.71 588.74,52.47 583.02,52.23C577.3,51.98 571.57,51.73 565.85,51.46C560.13,51.19 554.4,50.91 548.68,50.63C542.96,50.35 537.24,50.06 531.52,49.79C525.8,49.52 520.07,49.24 514.35,48.99C508.63,48.74 502.9,48.49 497.18,48.27C491.46,48.06 485.73,47.87 480.01,47.7C474.29,47.53 468.56,47.39 462.84,47.27Q457.12,47.15 445.68,46.99Z" style="vector-effect: none; stroke-width: 2px; stroke: rgb(99, 110, 250); stroke-opacity: 1; fill: rgb(99, 110, 250); fill-opacity: 0.5;"/><path class="meanline" d="M623.59,505.56048583984375V521.0995141601563" style="fill: none; vector-effect: none; stroke-width: 2px; stroke-dasharray: 4px, 2px; stroke: rgb(99, 110, 250); stroke-opacity: 1;"/><path class="meanline" d="M705.11,404.5191650390625V435.4808349609375" style="fill: none; vector-effect: none; stroke-width: 2px; stroke-dasharray: 4px, 2px; stroke: rgb(99, 110, 250); stroke-opacity: 1;"/><path class="meanline" d="M676.58,303.9246826171875V349.41531738281253" style="fill: none; vector-effect: none; stroke-width: 2px; stroke-dasharray: 4px, 2px; stroke: rgb(99, 110, 250); stroke-opacity: 1;"/><path class="meanline" d="M656.2,222.57850646972656V244.08149353027346" style="fill: none; vector-effect: none; stroke-width: 2px; stroke-dasharray: 4px, 2px; stroke: rgb(99, 110, 250); stroke-opacity: 1;"/><path class="meanline" d="M709.18,125.59259033203125V154.40740966796875" style="fill: none; vector-effect: none; stroke-width: 2px; stroke-dasharray: 4px, 2px; stroke: rgb(99, 110, 250); stroke-opacity: 1;"/><path class="meanline" d="M692.88,35.890384674072266V57.44961532592774" style="fill: none; vector-effect: none; stroke-width: 2px; stroke-dasharray: 4px, 2px; stroke: rgb(99, 110, 250); stroke-opacity: 1;"/></g></g></g></g><g class="zerolinelayer-above"/><path class="xlines-above crisp" d="M0,0" style="fill: none;"/><path class="ylines-above crisp" d="M0,0" style="fill: none;"/><g class="overlines-above"/><g class="xaxislayer-above"><g class="xtick"><text text-anchor="middle" x="0" y="661" transform="translate(469.68,0)" style="font-family: 'Open Sans', verdana, arial, sans-serif; font-size: 20px; fill: rgb(42, 63, 95); fill-opacity: 1; white-space: pre;">0</text></g><g class="xtick"><text text-anchor="middle" x="0" y="661" style="font-family: 'Open Sans', verdana, arial, sans-serif; font-size: 20px; fill: rgb(42, 63, 95); fill-opacity: 1; white-space: pre;" transform="translate(616.41,0)">20</text></g><g class="xtick"><text text-anchor="middle" x="0" y="661" style="font-family: 'Open Sans', verdana, arial, sans-serif; font-size: 20px; fill: rgb(42, 63, 95); fill-opacity: 1; white-space: pre;" transform="translate(763.14,0)">40</text></g><g class="xtick"><text text-anchor="middle" x="0" y="661" style="font-family: 'Open Sans', verdana, arial, sans-serif; font-size: 20px; fill: rgb(42, 63, 95); fill-opacity: 1; white-space: pre;" transform="translate(909.86,0)">60</text></g><g class="xtick"><text text-anchor="middle" x="0" y="661" style="font-family: 'Open Sans', verdana, arial, sans-serif; font-size: 20px; fill: rgb(42, 63, 95); fill-opacity: 1; white-space: pre;" transform="translate(1056.5900000000001,0)">80</text></g><g class="xtick"><text text-anchor="middle" x="0" y="661" style="font-family: 'Open Sans', verdana, arial, sans-serif; font-size: 20px; fill: rgb(42, 63, 95); fill-opacity: 1; white-space: pre;" transform="translate(1203.3200000000002,0)">100</text></g></g><g class="yaxislayer-above"><g class="ytick"><text text-anchor="end" x="432" y="7" transform="translate(0,593.33)" style="font-family: 'Open Sans', verdana, arial, sans-serif; font-size: 20px; fill: rgb(42, 63, 95); fill-opacity: 1; white-space: pre;"> the steering responsiveness</text></g><g class="ytick"><text text-anchor="end" x="432" y="7" transform="translate(0,500)" style="font-family: 'Open Sans', verdana, arial, sans-serif; font-size: 20px; fill: rgb(42, 63, 95); fill-opacity: 1; white-space: pre;"> the stability during straight riding</text></g><g class="ytick"><text text-anchor="end" x="432" y="7" transform="translate(0,406.67)" style="font-family: 'Open Sans', verdana, arial, sans-serif; font-size: 20px; fill: rgb(42, 63, 95); fill-opacity: 1; white-space: pre;"> the stability in corners / turns</text></g><g class="ytick"><text text-anchor="end" x="432" y="7" transform="translate(0,313.33000000000004)" style="font-family: 'Open Sans', verdana, arial, sans-serif; font-size: 20px; fill: rgb(42, 63, 95); fill-opacity: 1; white-space: pre;"> the stability under braking</text></g><g class="ytick"><text text-anchor="end" x="432" y="7" transform="translate(0,220)" style="font-family: 'Open Sans', verdana, arial, sans-serif; font-size: 20px; fill: rgb(42, 63, 95); fill-opacity: 1; white-space: pre;"> the responsiveness when accelerating</text></g><g class="ytick"><text text-anchor="end" x="432" y="7" transform="translate(0,126.67)" style="font-family: 'Open Sans', verdana, arial, sans-serif; font-size: 20px; fill: rgb(42, 63, 95); fill-opacity: 1; white-space: pre;"> the percived stiffness of the frame</text></g></g><g class="overaxes-above"/></g></g><g class="polarlayer"/><g class="smithlayer"/><g class="ternarylayer"/><g class="geolayer"/><g class="funnelarealayer"/><g class="pielayer"/><g class="iciclelayer"/><g class="treemaplayer"/><g class="sunburstlayer"/><g class="glimages"/><defs id="topdefs-fb9cee"><g class="clips"/></defs><g class="layer-above"><g class="imagelayer"/><g class="shapelayer"/></g><g class="infolayer"><g class="g-gtitle"><text class="gtitle" x="64" y="40" text-anchor="start" dy="0em" style="opacity: 1; font-family: 'Open Sans', verdana, arial, sans-serif; font-size: 28px; fill: rgb(42, 63, 95); fill-opacity: 1; white-space: pre;">Handling &amp; stability ratings (0–100 sliders)</text></g><g class="g-xtitle"><text class="xtitle" x="836.5" y="696.3" text-anchor="middle" style="opacity: 1; font-family: 'Open Sans', verdana, arial, sans-serif; font-size: 24px; fill: rgb(42, 63, 95); fill-opacity: 1; white-space: pre;">Score (0–100)</text></g><g class="g-ytitle" transform="translate(2.947265625,0)"><text class="ytitle" transform="rotate(-90,21.053125000000023,360)" x="21.053125000000023" y="360" text-anchor="middle" style="opacity: 1; font-family: 'Open Sans', verdana, arial, sans-serif; font-size: 24px; fill: rgb(42, 63, 95); fill-opacity: 1; white-space: pre;">Statement</text></g></g></svg>