<svg class="main-svg" xmlns="http://www.w3.org/2000/svg" xmlns:xlink="http://www.w3.org/1999/xlink" width="1280" height="720" style="" viewBox="0 0 1280 720"><rect x="0" y="0" width="1280" height="720" style="fill: rgb(255, 255, 255); fill-opacity: 1;"/><defs id="defs-4ef78e"><g class="clips"><clipPath id="clip4ef78exyplot" class="plotclip"><rect width="807" height="560"/></clipPath><clipPath class="axesclip" id="clip4ef78ex"><rect x="433" y="0" width="807" height="720"/></clipPath><clipPath class="axesclip" id="clip4ef78ey"><rect x="0" y="80" width="1280" height="560"/></clipPath><clipPath class="axesclip" id="clip4ef78exy"><rect x="433" y="80" width="807" height="560"/></clipPath></g><g class="gradients"/><g class="patterns"/></defs><g class="bglayer"/><g class="layer-below"><g class="imagelayer"/><g class="shapelayer"/></g><g class="cartesianlayer"><g class="subplot xy"><g class="layer-subplot"><g class="shapelayer"/><g class="imagelayer"/></g><g class="minor-gridlayer"><g class="x"/><g class="y"/></g><g class="gridlayer"><g class="x"><path class="xgrid crisp" transform="translate(616.41,0)" d="M0,80v560" style="stroke: rgb(235, 240, 248); stroke-opacity: 1; stroke-width: 1px;"/><path class="xgrid crisp" transform="translate(763.14,0)" d="M0,80v560" style="stroke: rgb(235, 240, 248); stroke-opacity: 1; stroke-width: 1px;"/><path class="xgrid crisp" transform="translate(909.86,0)" d="M0,80v560" style="stroke: rgb(235, 240, 248); stroke-opacity: 1; stroke-width: 1px;"/><path class="xgrid crisp" transform="translate(1056.5900000000001,0)" d="M0,80v560" style="stroke: rgb(235, 240, 248); stroke-opacity: 1; stroke-width: 1px;"/><path class="xgrid crisp" transform="translate(1203.3200000000002,0)" d="M0,80v560" style="stroke: rgb(235, 240, 248); stroke-opacity: 1; stroke-width: 1px;"/></g><g class="y"/></g><g class="zerolinelayer"><path class="xzl zl crisp" transform="translate(469.68,0)" d="M0,80v560" style="stroke: rgb(235, 240, 248); stroke-opacity: 1; stroke-width: 2px;"/></g><g class="layer-between"><g class="shapelayer"/><g class="imagelayer"/></g><path class="xlines-below"/><path class="ylines-below"/><g class="overlines-below"/><g class="xaxislayer-below"/><g class="yaxislayer-below"/><g class="overaxes-below"/><g class="overplot"><g class="xy" transform="translate(433,80)" clip-path="url(#clip4ef78exyplot)"><g class="violinlayer mlayer"><g class="trace violins" style="opacity: 1;"><path class="violin" d="M174.97,513.15Q191.65,513.06 199.99,513C208.33,512.94 216.67,512.87 225.01,512.79C233.35,512.71 241.68,512.62 250.02,512.53C258.36,512.44 266.7,512.34 275.04,512.25C283.38,512.16 291.72,512.08 300.06,512C308.4,511.92 316.73,511.86 325.07,511.79C333.41,511.72 341.75,511.67 350.09,511.59C358.43,511.51 366.77,511.44 375.11,511.32C383.45,511.2 391.79,511.06 400.13,510.86C408.47,510.66 416.8,510.41 425.14,510.11C433.48,509.81 441.82,509.44 450.16,509.06C458.5,508.68 466.84,508.24 475.18,507.82C483.52,507.41 491.85,506.95 500.19,506.57C508.53,506.19 516.87,505.82 525.21,505.53C533.55,505.24 541.89,505.01 550.23,504.83C558.57,504.65 566.9,504.55 575.24,504.47C583.58,504.39 591.92,504.38 600.26,504.37C608.6,504.36 616.94,504.38 625.28,504.39C633.62,504.4 641.96,504.43 650.3,504.46C658.64,504.49 666.97,504.52 675.31,504.59C683.65,504.66 691.99,504.74 700.33,504.87C708.67,505.01 717.01,505.18 725.35,505.4C733.69,505.62 742.02,505.89 750.36,506.21C758.7,506.53 767.04,506.91 775.38,507.3C783.72,507.69 792.06,508.11 800.4,508.53C808.74,508.94 817.07,509.39 825.41,509.79C833.75,510.19 842.09,510.57 850.43,510.91C858.77,511.25 867.11,511.55 875.45,511.81C883.79,512.07 892.12,512.28 900.46,512.46Q908.8,512.64 925.48,512.87L925.48,513.79Q908.8,514.03 900.46,514.21C892.12,514.39 883.79,514.6 875.45,514.86C867.11,515.12 858.77,515.42 850.43,515.76C842.09,516.1 833.75,516.48 825.41,516.88C817.07,517.27 808.74,517.72 800.4,518.13C792.06,518.55 783.72,518.98 775.38,519.37C767.04,519.76 758.7,520.13 750.36,520.45C742.02,520.77 733.69,521.05 725.35,521.27C717.01,521.49 708.67,521.66 700.33,521.79C691.99,521.92 683.65,522 675.31,522.07C666.97,522.14 658.64,522.18 650.3,522.21C641.96,522.25 633.62,522.27 625.28,522.28C616.94,522.29 608.6,522.31 600.26,522.3C591.92,522.29 583.58,522.27 575.24,522.19C566.9,522.11 558.57,522.01 550.23,521.84C541.89,521.66 533.55,521.43 525.21,521.14C516.87,520.85 508.53,520.48 500.19,520.1C491.85,519.72 483.52,519.27 475.18,518.85C466.84,518.43 458.5,517.98 450.16,517.6C441.82,517.22 433.48,516.86 425.14,516.56C416.8,516.26 408.47,516.01 400.13,515.81C391.79,515.61 383.45,515.47 375.11,515.35C366.77,515.23 358.43,515.16 350.09,515.08C341.75,515 333.41,514.95 325.07,514.88C316.73,514.81 308.4,514.75 300.06,514.67C291.72,514.59 283.38,514.5 275.04,514.41C266.7,514.32 258.36,514.22 250.02,514.13C241.68,514.04 233.35,513.95 225.01,513.87C216.67,513.79 208.33,513.72 199.99,513.66Q191.65,513.6 174.97,513.52Z" style="vector-effect: none; stroke-width: 2px; stroke: rgb(99, 110, 250); stroke-opacity: 1; fill: rgb(99, 110, 250); fill-opacity: 0.5;"/><path class="violin" d="M371.22,419.59Q378.83,419.39 382.64,419.25C386.44,419.11 390.25,418.94 394.05,418.76C397.86,418.58 401.66,418.37 405.47,418.17C409.27,417.98 413.08,417.76 416.88,417.59C420.69,417.42 424.49,417.24 428.3,417.14C432.11,417.04 435.91,416.97 439.72,416.97C443.52,416.97 447.33,417.03 451.13,417.12C454.94,417.22 458.74,417.37 462.55,417.54C466.36,417.71 470.16,417.92 473.97,418.12C477.77,418.31 481.58,418.53 485.38,418.71C489.19,418.89 492.99,419.07 496.8,419.21C500.6,419.35 504.41,419.47 508.21,419.56C512.02,419.65 515.82,419.71 519.63,419.75C523.44,419.79 527.24,419.82 531.05,419.82C534.85,419.82 538.66,419.81 542.46,419.77C546.27,419.73 550.07,419.68 553.88,419.59C557.68,419.51 561.49,419.4 565.29,419.26C569.1,419.12 572.9,418.96 576.71,418.77C580.52,418.58 584.32,418.36 588.13,418.13C591.93,417.9 595.74,417.64 599.54,417.39C603.35,417.14 607.15,416.88 610.96,416.61C614.76,416.34 618.57,416.07 622.37,415.75C626.18,415.43 629.99,415.11 633.79,414.69C637.6,414.27 641.41,413.81 645.21,413.22C649.02,412.63 652.83,411.94 656.62,411.16C660.44,410.37 664.24,409.44 668.04,408.5C671.85,407.55 675.64,406.49 679.45,405.49C683.25,404.5 687.05,403.44 690.87,402.53C694.67,401.62 698.47,400.75 702.29,400.04C706.08,399.33 709.89,398.73 713.7,398.27C717.5,397.82 721.31,397.5 725.12,397.31C728.92,397.12 732.73,397.06 736.53,397.13C740.34,397.2 744.15,397.4 747.95,397.75C751.76,398.1 755.58,398.59 759.37,399.22C763.19,399.85 766.99,400.65 770.78,401.55C774.6,402.45 778.4,403.53 782.2,404.62C786.02,405.71 789.81,406.95 793.62,408.1C797.42,409.25 801.22,410.47 805.03,411.54C808.83,412.6 812.63,413.63 816.45,414.5C820.24,415.37 824.05,416.13 827.86,416.76Q831.66,417.39 839.28,418.27L839.28,421.73Q831.66,422.61 827.86,423.24C824.05,423.87 820.24,424.63 816.45,425.5C812.63,426.37 808.83,427.4 805.03,428.46C801.22,429.53 797.42,430.75 793.62,431.9C789.81,433.05 786.02,434.29 782.2,435.38C778.4,436.47 774.6,437.55 770.78,438.45C766.99,439.35 763.19,440.15 759.37,440.78C755.58,441.41 751.76,441.9 747.95,442.25C744.15,442.6 740.34,442.8 736.53,442.87C732.73,442.94 728.92,442.88 725.12,442.69C721.31,442.5 717.5,442.18 713.7,441.73C709.89,441.27 706.08,440.67 702.29,439.96C698.47,439.25 694.67,438.38 690.87,437.47C687.05,436.56 683.25,435.5 679.45,434.51C675.64,433.51 671.85,432.45 668.04,431.5C664.24,430.56 660.44,429.63 656.62,428.84C652.83,428.06 649.02,427.37 645.21,426.78C641.41,426.19 637.6,425.73 633.79,425.31C629.99,424.89 626.18,424.57 622.37,424.25C618.57,423.93 614.76,423.66 610.96,423.39C607.15,423.12 603.35,422.86 599.54,422.61C595.74,422.36 591.93,422.1 588.13,421.87C584.32,421.64 580.52,421.42 576.71,421.23C572.9,421.04 569.1,420.88 565.29,420.74C561.49,420.6 557.68,420.49 553.88,420.41C550.07,420.32 546.27,420.27 542.46,420.23C538.66,420.19 534.85,420.18 531.05,420.18C527.24,420.18 523.44,420.21 519.63,420.25C515.82,420.29 512.02,420.35 508.21,420.44C504.41,420.53 500.6,420.65 496.8,420.79C492.99,420.93 489.19,421.11 485.38,421.29C481.58,421.47 477.77,421.69 473.97,421.88C470.16,422.08 466.36,422.29 462.55,422.46C458.74,422.63 454.94,422.78 451.13,422.88C447.33,422.97 443.52,423.03 439.72,423.03C435.91,423.03 432.11,422.96 428.3,422.86C424.49,422.76 420.69,422.58 416.88,422.41C413.08,422.24 409.27,422.02 405.47,421.83C401.66,421.63 397.86,421.42 394.05,421.24C390.25,421.06 386.44,420.89 382.64,420.75Q378.83,420.61 371.22,420.41Z" style="vector-effect: none; stroke-width: 2px; stroke: rgb(99, 110, 250); stroke-opacity: 1; fill: rgb(99, 110, 250); fill-opacity: 0.5;"/><path class="violin" d="M408.4,326.11Q419.93,325.82 425.7,325.62C431.47,325.42 437.23,325.18 443,324.9C448.77,324.62 454.53,324.3 460.3,323.96C466.07,323.62 471.83,323.24 477.6,322.88C483.36,322.52 489.13,322.13 494.89,321.78C500.66,321.43 506.42,321.09 512.19,320.8C517.96,320.51 523.72,320.25 529.49,320.03C535.26,319.81 541.02,319.63 546.79,319.46C552.56,319.29 558.32,319.16 564.09,319C569.86,318.83 575.62,318.69 581.39,318.47C587.16,318.25 592.93,318.01 598.69,317.7C604.46,317.39 610.22,317.02 615.98,316.6C621.75,316.18 627.51,315.68 633.28,315.2C639.05,314.72 644.81,314.17 650.58,313.72C656.35,313.27 662.11,312.8 667.88,312.48C673.64,312.16 679.41,311.9 685.18,311.81C690.95,311.72 696.72,311.75 702.48,311.93C708.25,312.11 714.02,312.44 719.78,312.87C725.55,313.3 731.31,313.89 737.07,314.51C742.84,315.13 748.6,315.87 754.37,316.58C760.14,317.3 765.9,318.08 771.67,318.8C777.44,319.52 783.2,320.26 788.97,320.92C794.73,321.58 800.5,322.21 806.27,322.75C812.03,323.29 817.8,323.77 823.57,324.18C829.33,324.59 835.1,324.92 840.87,325.2C846.63,325.48 852.4,325.69 858.16,325.87Q863.93,326.05 875.46,326.27L875.46,327.06Q863.93,327.28 858.16,327.46C852.4,327.64 846.63,327.85 840.87,328.13C835.1,328.41 829.33,328.75 823.57,329.16C817.8,329.57 812.03,330.05 806.27,330.59C800.5,331.13 794.73,331.75 788.97,332.41C783.2,333.07 777.44,333.81 771.67,334.53C765.9,335.25 760.14,336.03 754.37,336.75C748.6,337.47 742.84,338.21 737.07,338.83C731.31,339.45 725.55,340.03 719.78,340.46C714.02,340.89 708.25,341.22 702.48,341.4C696.72,341.58 690.95,341.61 685.18,341.52C679.41,341.43 673.64,341.17 667.88,340.85C662.11,340.53 656.35,340.06 650.58,339.61C644.81,339.16 639.05,338.61 633.28,338.13C627.51,337.65 621.75,337.16 615.98,336.74C610.22,336.32 604.46,335.94 598.69,335.63C592.93,335.32 587.16,335.09 581.39,334.87C575.62,334.66 569.86,334.51 564.09,334.34C558.32,334.17 552.56,334.04 546.79,333.87C541.02,333.7 535.26,333.52 529.49,333.3C523.72,333.08 517.96,332.82 512.19,332.53C506.42,332.24 500.66,331.9 494.89,331.55C489.13,331.2 483.36,330.81 477.6,330.45C471.83,330.09 466.07,329.71 460.3,329.37C454.53,329.03 448.77,328.71 443,328.43C437.23,328.15 431.47,327.91 425.7,327.71Q419.93,327.51 408.4,327.23Z" style="vector-effect: none; stroke-width: 2px; stroke: rgb(99, 110, 250); stroke-opacity: 1; fill: rgb(99, 110, 250); fill-opacity: 0.5;"/><path class="violin" d="M408.47,232.95Q420,232.75 425.77,232.58C431.53,232.42 437.3,232.21 443.06,231.96C448.82,231.71 454.59,231.41 460.35,231.06C466.12,230.71 471.89,230.3 477.65,229.86C483.42,229.42 489.18,228.92 494.94,228.42C500.7,227.92 506.47,227.37 512.23,226.84C518,226.31 523.76,225.77 529.53,225.26C535.29,224.75 541.06,224.24 546.82,223.77C552.58,223.3 558.34,222.85 564.11,222.44C569.87,222.03 575.64,221.65 581.41,221.32C587.17,220.99 592.94,220.7 598.7,220.48C604.46,220.26 610.23,220.08 615.99,219.99C621.76,219.9 627.52,219.88 633.29,219.93C639.05,219.98 644.82,220.13 650.58,220.31C656.34,220.5 662.11,220.77 667.87,221.04C673.63,221.31 679.4,221.64 685.16,221.95C690.93,222.26 696.69,222.6 702.46,222.9C708.22,223.2 713.99,223.48 719.75,223.77C725.51,224.05 731.28,224.32 737.04,224.61C742.81,224.9 748.57,225.18 754.34,225.51C760.1,225.83 765.87,226.18 771.63,226.56C777.39,226.94 783.16,227.36 788.92,227.78C794.69,228.2 800.45,228.66 806.22,229.09C811.98,229.52 817.75,229.95 823.51,230.34C829.27,230.73 835.03,231.1 840.8,231.41C846.56,231.72 852.33,231.99 858.1,232.21Q863.86,232.43 875.39,232.74L875.39,233.93Q863.86,234.24 858.1,234.46C852.33,234.68 846.56,234.95 840.8,235.26C835.03,235.57 829.27,235.93 823.51,236.32C817.75,236.71 811.98,237.15 806.22,237.58C800.45,238.01 794.69,238.47 788.92,238.89C783.16,239.31 777.39,239.73 771.63,240.11C765.87,240.49 760.1,240.84 754.34,241.16C748.57,241.49 742.81,241.77 737.04,242.06C731.28,242.35 725.51,242.61 719.75,242.89C713.99,243.18 708.22,243.47 702.46,243.77C696.69,244.07 690.93,244.4 685.16,244.71C679.4,245.02 673.63,245.35 667.87,245.63C662.11,245.9 656.34,246.17 650.58,246.36C644.82,246.54 639.05,246.69 633.29,246.74C627.52,246.79 621.76,246.77 615.99,246.68C610.23,246.59 604.46,246.41 598.7,246.19C592.94,245.97 587.17,245.68 581.41,245.35C575.64,245.02 569.87,244.64 564.11,244.23C558.34,243.82 552.58,243.37 546.82,242.9C541.06,242.43 535.29,241.92 529.53,241.41C523.76,240.9 518,240.35 512.23,239.82C506.47,239.29 500.7,238.75 494.94,238.25C489.18,237.75 483.42,237.25 477.65,236.81C471.89,236.37 466.12,235.96 460.35,235.61C454.59,235.26 448.82,234.95 443.06,234.7C437.3,234.45 431.53,234.25 425.77,234.09Q420,233.92 408.47,233.71Z" style="vector-effect: none; stroke-width: 2px; stroke: rgb(99, 110, 250); stroke-opacity: 1; fill: rgb(99, 110, 250); fill-opacity: 0.5;"/><path class="violin" d="M45.49,139.79Q60.62,139.69 68.19,139.62C75.76,139.55 83.32,139.47 90.89,139.38C98.46,139.29 106.03,139.18 113.6,139.08C121.17,138.98 128.73,138.86 136.3,138.77C143.87,138.67 151.44,138.58 159.01,138.51C166.58,138.44 174.14,138.37 181.71,138.33C189.28,138.29 196.84,138.27 204.41,138.26C211.98,138.25 219.55,138.26 227.12,138.26C234.69,138.26 242.25,138.28 249.82,138.28C257.39,138.28 264.96,138.27 272.53,138.27C280.1,138.27 287.66,138.26 295.23,138.26C302.8,138.26 310.37,138.26 317.94,138.28C325.51,138.3 333.07,138.34 340.64,138.39C348.21,138.44 355.77,138.52 363.34,138.6C370.91,138.68 378.48,138.78 386.05,138.88C393.62,138.98 401.18,139.09 408.75,139.18C416.32,139.27 423.89,139.36 431.46,139.42C439.03,139.48 446.59,139.53 454.16,139.54C461.73,139.55 469.29,139.55 476.86,139.5C484.43,139.45 492,139.37 499.57,139.24C507.14,139.11 514.7,138.95 522.27,138.73C529.84,138.51 537.41,138.24 544.98,137.93C552.55,137.61 560.11,137.25 567.68,136.84C575.25,136.43 582.81,135.97 590.38,135.49C597.95,135.01 605.52,134.48 613.09,133.94C620.66,133.4 628.22,132.82 635.79,132.26C643.36,131.7 650.93,131.1 658.5,130.56C666.07,130.02 673.63,129.46 681.2,129C688.76,128.54 696.33,128.09 703.9,127.78C711.47,127.47 719.04,127.23 726.61,127.15C734.18,127.07 741.74,127.11 749.31,127.3C756.88,127.49 764.45,127.85 772.02,128.31C779.59,128.77 787.16,129.4 794.72,130.05C802.29,130.7 809.85,131.49 817.42,132.22C824.99,132.95 832.56,133.75 840.13,134.45C847.7,135.14 855.26,135.82 862.83,136.39C870.4,136.96 877.97,137.47 885.54,137.88Q893.11,138.29 908.24,138.87L908.24,141.13Q893.11,141.71 885.54,142.12C877.97,142.53 870.4,143.04 862.83,143.61C855.26,144.18 847.7,144.86 840.13,145.55C832.56,146.25 824.99,147.05 817.42,147.78C809.85,148.51 802.29,149.3 794.72,149.95C787.16,150.6 779.59,151.23 772.02,151.69C764.45,152.15 756.88,152.51 749.31,152.7C741.74,152.89 734.18,152.93 726.61,152.85C719.04,152.77 711.47,152.53 703.9,152.22C696.33,151.91 688.76,151.46 681.2,151C673.63,150.54 666.07,149.98 658.5,149.44C650.93,148.9 643.36,148.3 635.79,147.74C628.22,147.18 620.66,146.6 613.09,146.06C605.52,145.52 597.95,144.99 590.38,144.51C582.81,144.03 575.25,143.57 567.68,143.16C560.11,142.75 552.55,142.39 544.98,142.07C537.41,141.76 529.84,141.49 522.27,141.27C514.7,141.05 507.14,140.89 499.57,140.76C492,140.63 484.43,140.55 476.86,140.5C469.29,140.45 461.73,140.45 454.16,140.46C446.59,140.47 439.03,140.52 431.46,140.58C423.89,140.64 416.32,140.73 408.75,140.82C401.18,140.91 393.62,141.02 386.05,141.12C378.48,141.22 370.91,141.32 363.34,141.4C355.77,141.48 348.21,141.56 340.64,141.61C333.07,141.66 325.51,141.7 317.94,141.72C310.37,141.74 302.8,141.74 295.23,141.74C287.66,141.74 280.1,141.73 272.53,141.73C264.96,141.73 257.39,141.72 249.82,141.72C242.25,141.72 234.69,141.74 227.12,141.74C219.55,141.74 211.98,141.75 204.41,141.74C196.84,141.73 189.28,141.71 181.71,141.67C174.14,141.63 166.58,141.56 159.01,141.49C151.44,141.42 143.87,141.33 136.3,141.23C128.73,141.14 121.17,141.02 113.6,140.92C106.03,140.82 98.46,140.71 90.89,140.62C83.32,140.53 75.76,140.45 68.19,140.38Q60.62,140.31 45.49,140.21Z" style="vector-effect: none; stroke-width: 2px; stroke: rgb(99, 110, 250); stroke-opacity: 1; fill: rgb(99, 110, 250); fill-opacity: 0.5;"/><path class="violin" d="M71.35,46.41Q83.64,46.28 89.78,46.2C95.92,46.12 102.07,46.02 108.21,45.91C114.35,45.8 120.5,45.67 126.64,45.55C132.79,45.43 138.93,45.3 145.08,45.19C151.22,45.08 157.37,44.98 163.51,44.91C169.65,44.85 175.8,44.8 181.94,44.8C188.08,44.8 194.23,44.82 200.37,44.88C206.52,44.94 212.66,45.04 218.81,45.14C224.95,45.24 231.1,45.37 237.24,45.49C243.38,45.61 249.53,45.74 255.67,45.85C261.82,45.96 267.96,46.07 274.11,46.16C280.25,46.25 286.4,46.33 292.54,46.39C298.68,46.45 304.83,46.49 310.97,46.53C317.11,46.56 323.26,46.58 329.4,46.6C335.55,46.62 341.69,46.63 347.84,46.64C353.98,46.65 360.13,46.65 366.27,46.65C372.41,46.65 378.56,46.65 384.7,46.64C390.84,46.63 396.99,46.62 403.13,46.6C409.28,46.58 415.42,46.57 421.57,46.53C427.71,46.49 433.86,46.45 440,46.38C446.14,46.31 452.29,46.23 458.43,46.13C464.57,46.02 470.72,45.9 476.86,45.75C483.01,45.6 489.15,45.42 495.3,45.23C501.44,45.04 507.59,44.82 513.73,44.59C519.87,44.36 526.02,44.11 532.16,43.85C538.3,43.59 544.45,43.32 550.59,43.04C556.74,42.76 562.88,42.48 569.03,42.19C575.17,41.9 581.32,41.62 587.46,41.31C593.6,41 599.75,40.69 605.89,40.35C612.03,40 618.18,39.65 624.32,39.24C630.47,38.83 636.62,38.4 642.76,37.91C648.91,37.42 655.05,36.87 661.19,36.3C667.33,35.73 673.48,35.1 679.62,34.51C685.76,33.93 691.9,33.29 698.05,32.79C704.19,32.29 710.34,31.81 716.49,31.53C722.63,31.25 728.78,31.08 734.92,31.12C741.06,31.16 747.21,31.39 753.35,31.79C759.5,32.19 765.64,32.81 771.78,33.5C777.93,34.19 784.08,35.09 790.22,35.95C796.37,36.81 802.5,37.78 808.65,38.66C814.79,39.53 820.93,40.43 827.08,41.2C833.22,41.97 839.37,42.67 845.52,43.26C851.66,43.85 857.8,44.34 863.95,44.74Q870.09,45.14 882.38,45.67L882.38,47.66Q870.09,48.2 863.95,48.6C857.8,49 851.66,49.48 845.52,50.07C839.37,50.66 833.22,51.36 827.08,52.13C820.93,52.9 814.79,53.79 808.65,54.67C802.5,55.55 796.37,56.53 790.22,57.39C784.08,58.25 777.93,59.14 771.78,59.83C765.64,60.52 759.5,61.14 753.35,61.54C747.21,61.94 741.06,62.17 734.92,62.21C728.78,62.25 722.63,62.08 716.49,61.8C710.34,61.52 704.19,61.04 698.05,60.54C691.9,60.04 685.76,59.4 679.62,58.82C673.48,58.23 667.33,57.6 661.19,57.03C655.05,56.47 648.91,55.92 642.76,55.43C636.62,54.94 630.47,54.5 624.32,54.09C618.18,53.68 612.03,53.33 605.89,52.98C599.75,52.64 593.6,52.33 587.46,52.02C581.32,51.71 575.17,51.43 569.03,51.14C562.88,50.85 556.74,50.57 550.59,50.29C544.45,50.02 538.3,49.75 532.16,49.49C526.02,49.23 519.87,48.97 513.73,48.74C507.59,48.51 501.44,48.29 495.3,48.1C489.15,47.91 483.01,47.73 476.86,47.58C470.72,47.43 464.57,47.31 458.43,47.2C452.29,47.1 446.14,47.02 440,46.95C433.86,46.89 427.71,46.85 421.57,46.81C415.42,46.77 409.28,46.75 403.13,46.73C396.99,46.71 390.84,46.7 384.7,46.69C378.56,46.68 372.41,46.68 366.27,46.68C360.13,46.68 353.98,46.68 347.84,46.69C341.69,46.7 335.55,46.71 329.4,46.73C323.26,46.75 317.11,46.77 310.97,46.81C304.83,46.85 298.68,46.89 292.54,46.95C286.4,47.01 280.25,47.08 274.11,47.17C267.96,47.26 261.82,47.37 255.67,47.48C249.53,47.59 243.38,47.72 237.24,47.84C231.1,47.96 224.95,48.1 218.81,48.2C212.66,48.3 206.52,48.4 200.37,48.45C194.23,48.5 188.08,48.53 181.94,48.53C175.8,48.53 169.65,48.48 163.51,48.42C157.37,48.35 151.22,48.25 145.08,48.14C138.93,48.03 132.79,47.9 126.64,47.78C120.5,47.66 114.35,47.54 108.21,47.43C102.07,47.32 95.92,47.22 89.78,47.13Q83.64,47.05 71.35,46.92Z" style="vector-effect: none; stroke-width: 2px; stroke: rgb(99, 110, 250); stroke-opacity: 1; fill: rgb(99, 110, 250); fill-opacity: 0.5;"/><path class="meanline" d="M611.18,504.3712158203125V522.2887841796876" style="fill: none; vector-effect: none; stroke-width: 2px; stroke-dasharray: 4px, 2px; stroke: rgb(99, 110, 250); stroke-opacity: 1;"/><path class="meanline" d="M702.6,399.982421875V440.017578125" style="fill: none; vector-effect: none; stroke-width: 2px; stroke-dasharray: 4px, 2px; stroke: rgb(99, 110, 250); stroke-opacity: 1;"/><path class="meanline" d="M653.5,313.4914855957031V339.8485144042969" style="fill: none; vector-effect: none; stroke-width: 2px; stroke-dasharray: 4px, 2px; stroke: rgb(99, 110, 250); stroke-opacity: 1;"/><path class="meanline" d="M643.34,220.10540771484375V246.55459228515628" style="fill: none; vector-effect: none; stroke-width: 2px; stroke-dasharray: 4px, 2px; stroke: rgb(99, 110, 250); stroke-opacity: 1;"/><path class="meanline" d="M648.99,131.2634735107422V148.7365264892578" style="fill: none; vector-effect: none; stroke-width: 2px; stroke-dasharray: 4px, 2px; stroke: rgb(99, 110, 250); stroke-opacity: 1;"/><path class="meanline" d="M663.09,36.12152099609375V57.21847900390625" style="fill: none; vector-effect: none; stroke-width: 2px; stroke-dasharray: 4px, 2px; stroke: rgb(99, 110, 250); stroke-opacity: 1;"/></g></g></g></g><g class="zerolinelayer-above"/><path class="xlines-above crisp" d="M0,0" style="fill: none;"/><path class="ylines-above crisp" d="M0,0" style="fill: none;"/><g class="overlines-above"/><g class="xaxislayer-above"><g class="xtick"><text text-anchor="middle" x="0" y="661" transform="translate(469.68,0)" style="font-family: 'Open Sans', verdana, arial, sans-serif; font-size: 20px; fill: rgb(42, 63, 95); fill-opacity: 1; white-space: pre;">0</text></g><g class="xtick"><text text-anchor="middle" x="0" y="661" style="font-family: 'Open Sans', verdana, arial, sans-serif; font-size: 20px; fill: rgb(42, 63, 95); fill-opacity: 1; white-space: pre;" transform="translate(616.41,0)">20</text></g><g class="xtick"><text text-anchor="middle" x="0" y="661" style="font-family: 'Open Sans', verdana, arial, sans-serif; font-size: 20px; fill: rgb(42, 63, 95); fill-opacity: 1; white-space: pre;" transform="translate(763.14,0)">40</text></g><g class="xtick"><text text-anchor="middle" x="0" y="661" style="font-family: 'Open Sans', verdana, arial, sans-serif; font-size: 20px; fill: rgb(42, 63, 95); fill-opacity: 1; white-space: pre;" transform="translate(909.86,0)">60</text></g><g class="xtick"><text text-anchor="middle" x="0" y="661" style="font-family: 'Open Sans', verdana, arial, sans-serif; font-size: 20px; fill: rgb(42, 63, 95); fill-opacity: 1; white-space: pre;" transform="translate(1056.5900000000001,0)">80</text></g><g class="xtick"><text text-anchor="middle" x="0" y="661" style="font-family: 'Open Sans', verdana, arial, sans-serif; font-size: 20px; fill: rgb(42, 63, 95); fill-opacity: 1; white-space: pre;" transform="translate(1203.3200000000002,0)">100</text></g></g><g class="yaxislayer-above"><g class="ytick"><text text-anchor="end" x="432" y="7" transform="translate(0,593.33)" style="font-family: 'Open Sans', verdana, arial, sans-serif; font-size: 20px; fill: rgb(42, 63, 95); fill-opacity: 1; white-space: pre;"> the steering responsiveness</text></g><g class="ytick"><text text-anchor="end" x="432" y="7" transform="translate(0,500)" style="font-family: 'Open Sans', verdana, arial, sans-serif; font-size: 20px; fill: rgb(42, 63, 95); fill-opacity: 1; white-space: pre;"> the stability during straight riding</text></g><g class="ytick"><text text-anchor="end" x="432" y="7" transform="translate(0,406.67)" style="font-family: 'Open Sans', verdana, arial, sans-serif; font-size: 20px; fill: rgb(42, 63, 95); fill-opacity: 1; white-space: pre;"> the stability in corners / turns</text></g><g class="ytick"><text text-anchor="end" x="432" y="7" transform="translate(0,313.33000000000004)" style="font-family: 'Open Sans', verdana, arial, sans-serif; font-size: 20px; fill: rgb(42, 63, 95); fill-opacity: 1; white-space: pre;"> the stability under braking</text></g><g class="ytick"><text text-anchor="end" x="432" y="7" transform="translate(0,220)" style="font-family: 'Open Sans', verdana, arial, sans-serif; font-size: 20px; fill: rgb(42, 63, 95); fill-opacity: 1; white-space: pre;"> the responsiveness when accelerating</text></g><g class="ytick"><text text-anchor="end" x="432" y="7" transform="translate(0,126.67)" style="font-family: 'Open Sans', verdana, arial, sans-serif; font-size: 20px; fill: rgb(42, 63, 95); fill-opacity: 1; white-space: pre;"> the percived stiffness of the frame</text></g></g><g class="overaxes-above"/></g></g><g class="polarlayer"/><g class="smithlayer"/><g class="ternarylayer"/><g class="geolayer"/><g class="funnelarealayer"/><g class="pielayer"/><g class="iciclelayer"/><g class="treemaplayer"/><g class="sunburstlayer"/><g class="glimages"/><defs id="topdefs-4ef78e"><g class="clips"/></defs><g class="layer-above"><g class="imagelayer"/><g class="shapelayer"/></g><g class="infolayer"><g class="g-gtitle"><text class="gtitle" x="64" y="40" text-anchor="start" dy="0em" style="opacity: 1; font-family: 'Open Sans', verdana, arial, sans-serif; font-size: 28px; fill: rgb(42, 63, 95); fill-opacity: 1; white-space: pre;">Handling &amp; stability ratings (0–100 sliders)</text></g><g class="g-xtitle"><text class="xtitle" x="836.5" y="696.3" text-anchor="middle" style="opacity: 1; font-family: 'Open Sans', verdana, arial, sans-serif; font-size: 24px; fill: rgb(42, 63, 95); fill-opacity: 1; white-space: pre;">Score (0–100)</text></g><g class="g-ytitle" transform="translate(2.947265625,0)"><text class="ytitle" transform="rotate(-90,21.053125000000023,360)" x="21.053125000000023" y="360" text-anchor="middle" style="opacity: 1; font-family: 'Open Sans', verdana, arial, sans-serif; font-size: 24px; fill: rgb(42, 63, 95); fill-opacity: 1; white-space: pre;">Statement</text></g></g></svg>