<svg class="main-svg" xmlns="http://www.w3.org/2000/svg" xmlns:xlink="http://www.w3.org/1999/xlink" width="1280" height="720" style="" viewBox="0 0 1280 720"><rect x="0" y="0" width="1280" height="720" style="fill: rgb(255, 255, 255); fill-opacity: 1;"/><defs id="defs-bd36f7"><g class="clips"><clipPath id="clipbd36f7xyplot" class="plotclip"><rect width="822" height="560"/></clipPath><clipPath class="axesclip" id="clipbd36f7x"><rect x="418" y="0" width="822" height="720"/></clipPath><clipPath class="axesclip" id="clipbd36f7y"><rect x="0" y="80" width="1280" height="560"/></clipPath><clipPath class="axesclip" id="clipbd36f7xy"><rect x="418" y="80" width="822" height="560"/></clipPath></g><g class="gradients"/><g class="patterns"/></defs><g class="bglayer"/><g class="layer-below"><g class="imagelayer"/><g class="shapelayer"/></g><g class="cartesianlayer"><g class="subplot xy"><g class="layer-subplot"><g class="shapelayer"/><g class="imagelayer"/></g><g class="minor-gridlayer"><g class="x"/><g class="y"/></g><g class="gridlayer"><g class="x"><path class="xgrid crisp" transform="translate(582.4,0)" d="M0,80v560" style="stroke: rgb(235, 240, 248); stroke-opacity: 1; stroke-width: 1px;"/><path class="xgrid crisp" transform="translate(746.8,0)" d="M0,80v560" style="stroke: rgb(235, 240, 248); stroke-opacity: 1; stroke-width: 1px;"/><path class="xgrid crisp" transform="translate(911.2,0)" d="M0,80v560" style="stroke: rgb(235, 240, 248); stroke-opacity: 1; stroke-width: 1px;"/><path class="xgrid crisp" transform="translate(1075.6,0)" d="M0,80v560" style="stroke: rgb(235, 240, 248); stroke-opacity: 1; stroke-width: 1px;"/></g><g class="y"/></g><g class="zerolinelayer"><path class="xzl zl crisp" transform="translate(418,0)" d="M0,80v560" style="stroke: rgb(235, 240, 248); stroke-opacity: 1; stroke-width: 2px;"/></g><g class="layer-between"><g class="shapelayer"/><g class="imagelayer"/></g><path class="xlines-below"/><path class="ylines-below"/><g class="overlines-below"/><g class="xaxislayer-below"/><g class="yaxislayer-below"/><g class="overaxes-below"/><g class="overplot"><g class="xy" transform="translate(418,80)" clip-path="url(#clipbd36f7xyplot)"><g class="violinlayer mlayer"><g class="trace violins" style="opacity: 1;"><path class="violin" d="M822,528.89L822,533.97Q797.09,534.55 784.64,534.79C772.18,535.03 759.73,535.23 747.27,535.39C734.82,535.54 722.36,535.66 709.91,535.72C697.46,535.78 685,535.79 672.55,535.76C660.09,535.73 647.64,535.65 635.18,535.55C622.73,535.45 610.27,535.29 597.82,535.14C585.36,534.98 572.91,534.8 560.45,534.62C548,534.44 535.54,534.23 523.09,534.04C510.64,533.85 498.18,533.65 485.73,533.46C473.27,533.26 460.82,533.07 448.36,532.87Q435.91,532.68 411,532.29L411,528.89" style="vector-effect: none; stroke-width: 2px; stroke: rgb(99, 110, 250); stroke-opacity: 1; fill: rgb(99, 110, 250); fill-opacity: 0.5;"/><path class="violin" d="M822,404.44L822,408.49Q807.05,408.57 799.58,408.59C792.11,408.61 784.63,408.57 777.16,408.59C769.69,408.61 762.22,408.62 754.75,408.72C747.28,408.82 739.8,408.95 732.33,409.19C724.86,409.43 717.38,409.76 709.91,410.17C702.43,410.58 694.96,411.11 687.49,411.67C680.01,412.23 672.54,412.9 665.07,413.53C657.6,414.16 650.12,414.86 642.65,415.45C635.18,416.03 627.71,416.63 620.24,417.04C612.77,417.44 605.29,417.77 597.82,417.88Q590.35,417.99 575.4,417.7L575.4,404.44" style="vector-effect: none; stroke-width: 2px; stroke: rgb(99, 110, 250); stroke-opacity: 1; fill: rgb(99, 110, 250); fill-opacity: 0.5;"/><path class="violin" d="M780.9,280L780.9,306.17Q775.44,307.97 772.68,308.61C769.96,309.24 767.21,309.7 764.46,310.01C761.73,310.32 758.98,310.47 756.24,310.49C753.5,310.51 750.75,310.39 748.02,310.16C745.27,309.93 742.53,309.56 739.8,309.08C737.05,308.6 734.31,307.98 731.58,307.29C728.83,306.6 726.09,305.78 723.36,304.93C720.61,304.08 717.87,303.13 715.14,302.18C712.39,301.23 709.66,300.23 706.92,299.23Q704.18,298.23 698.7,296.19L698.7,280" style="vector-effect: none; stroke-width: 2px; stroke: rgb(99, 110, 250); stroke-opacity: 1; fill: rgb(99, 110, 250); fill-opacity: 0.5;"/><path class="violin" d="M822,155.56L822,161.13Q791.86,161.4 776.79,161.45C761.72,161.5 746.65,161.48 731.58,161.43C716.51,161.38 701.44,161.25 686.37,161.12C671.3,160.99 656.23,160.81 641.16,160.65C626.09,160.48 611.02,160.3 595.95,160.13C580.88,159.96 565.81,159.79 550.74,159.64C535.67,159.49 520.6,159.35 505.53,159.22C490.46,159.09 475.39,158.97 460.32,158.85C445.25,158.73 430.18,158.63 415.11,158.51Q400.04,158.39 369.9,158.14L369.9,155.56" style="vector-effect: none; stroke-width: 2px; stroke: rgb(99, 110, 250); stroke-opacity: 1; fill: rgb(99, 110, 250); fill-opacity: 0.5;"/><path class="violin" d="M822,31.11L822,39.39Q813.56,40.13 809.35,40.53C805.13,40.93 800.92,41.32 796.71,41.79C792.49,42.26 788.27,42.78 784.06,43.35C779.84,43.92 775.63,44.58 771.42,45.23C767.2,45.88 762.99,46.61 758.77,47.24C754.56,47.87 750.34,48.52 746.12,49.02C741.91,49.52 737.7,49.96 733.48,50.23C729.27,50.5 725.05,50.63 720.83,50.63C716.61,50.63 712.39,50.46 708.18,50.2C703.96,49.94 699.75,49.53 695.54,49.07C691.32,48.61 687.1,48.04 682.89,47.44C678.67,46.84 674.46,46.15 670.25,45.45Q666.03,44.75 657.6,43.24L657.6,31.11" style="vector-effect: none; stroke-width: 2px; stroke: rgb(99, 110, 250); stroke-opacity: 1; fill: rgb(99, 110, 250); fill-opacity: 0.5;"/><path class="meanline" d="M641.16,535.5952758789062V528.89" style="fill: none; vector-effect: none; stroke-width: 2px; stroke-dasharray: 4px, 2px; stroke: rgb(99, 110, 250); stroke-opacity: 1;"/><path class="meanline" d="M641.16,415.5658874511719V404.44" style="fill: none; vector-effect: none; stroke-width: 2px; stroke-dasharray: 4px, 2px; stroke: rgb(99, 110, 250); stroke-opacity: 1;"/><path class="meanline" d="M748.02,310.1600341796875V280" style="fill: none; vector-effect: none; stroke-width: 2px; stroke-dasharray: 4px, 2px; stroke: rgb(99, 110, 250); stroke-opacity: 1;"/><path class="meanline" d="M665.82,160.91769409179688V155.56" style="fill: none; vector-effect: none; stroke-width: 2px; stroke-dasharray: 4px, 2px; stroke: rgb(99, 110, 250); stroke-opacity: 1;"/><path class="meanline" d="M731.58,50.34197235107422V31.11" style="fill: none; vector-effect: none; stroke-width: 2px; stroke-dasharray: 4px, 2px; stroke: rgb(99, 110, 250); stroke-opacity: 1;"/></g><g class="trace violins" style="opacity: 1;"><path class="violin" d="M575.4,528.89L575.4,521.03Q589.1,520.23 595.95,519.86C602.8,519.49 609.65,519.17 616.5,518.83C623.35,518.5 630.2,518.18 637.05,517.85C643.9,517.53 650.75,517.19 657.6,516.88C664.45,516.57 671.3,516.24 678.15,515.99C685,515.74 691.85,515.48 698.7,515.36C705.55,515.24 712.4,515.17 719.25,515.27Q726.1,515.37 739.8,515.96L739.8,528.89" style="vector-effect: none; stroke-width: 2px; stroke: rgb(239, 85, 59); stroke-opacity: 1; fill: rgb(239, 85, 59); fill-opacity: 0.5;"/><path class="violin" d="M657.6,404.44L657.6,385.33Q665.42,384.79 669.34,384.69C673.25,384.59 677.17,384.7 681.09,384.74C685,384.78 688.92,384.92 692.83,384.95C696.74,384.98 700.66,384.98 704.57,384.95C708.48,384.92 712.4,384.78 716.31,384.74C720.23,384.7 724.15,384.59 728.06,384.69Q731.98,384.79 739.8,385.33L739.8,404.44" style="vector-effect: none; stroke-width: 2px; stroke: rgb(239, 85, 59); stroke-opacity: 1; fill: rgb(239, 85, 59); fill-opacity: 0.5;"/><path class="violin" d="M616.5,280L616.5,269.46Q623.97,268.84 627.71,268.51C631.45,268.18 635.19,267.9 638.92,267.5C642.66,267.09 646.4,266.66 650.13,266.08C653.87,265.5 657.61,264.79 661.34,264.03C665.08,263.26 668.82,262.34 672.55,261.48C676.29,260.62 680.01,259.64 683.75,258.86C687.48,258.08 691.21,257.31 694.96,256.81C698.68,256.32 702.43,255.96 706.17,255.89C709.9,255.82 713.66,256.01 717.38,256.41C721.13,256.81 724.87,257.51 728.59,258.31Q732.35,259.12 739.8,261.27L739.8,280" style="vector-effect: none; stroke-width: 2px; stroke: rgb(239, 85, 59); stroke-opacity: 1; fill: rgb(239, 85, 59); fill-opacity: 0.5;"/><path class="violin" d="M411,155.56L411,148.62Q435.35,147.87 447.53,147.64C459.71,147.41 471.89,147.26 484.07,147.22C496.25,147.18 508.42,147.25 520.6,147.39C532.78,147.53 544.95,147.79 557.13,148.05C569.31,148.31 581.49,148.66 593.67,148.96C605.85,149.26 618.02,149.58 630.2,149.86C642.38,150.13 654.55,150.39 666.73,150.61C678.91,150.83 691.09,151.01 703.27,151.2Q715.45,151.39 739.8,151.74L739.8,155.56" style="vector-effect: none; stroke-width: 2px; stroke: rgb(239, 85, 59); stroke-opacity: 1; fill: rgb(239, 85, 59); fill-opacity: 0.5;"/><path class="violin" d="M739.8,31.11L739.8,12Q747.62,11.46 751.54,11.36C755.45,11.26 759.37,11.36 763.29,11.4C767.2,11.44 771.12,11.58 775.03,11.62C778.94,11.66 782.86,11.66 786.77,11.62C790.68,11.58 794.6,11.44 798.51,11.4C802.43,11.36 806.35,11.26 810.26,11.36Q814.18,11.46 822,12L822,31.11" style="vector-effect: none; stroke-width: 2px; stroke: rgb(239, 85, 59); stroke-opacity: 1; fill: rgb(239, 85, 59); fill-opacity: 0.5;"/><path class="meanline" d="M678.15,515.989990234375V528.89" style="fill: none; vector-effect: none; stroke-width: 2px; stroke-dasharray: 4px, 2px; stroke: rgb(239, 85, 59); stroke-opacity: 1;"/><path class="meanline" d="M698.7,384.9725341796875V404.44" style="fill: none; vector-effect: none; stroke-width: 2px; stroke-dasharray: 4px, 2px; stroke: rgb(239, 85, 59); stroke-opacity: 1;"/><path class="meanline" d="M688.43,257.9062805175781V280" style="fill: none; vector-effect: none; stroke-width: 2px; stroke-dasharray: 4px, 2px; stroke: rgb(239, 85, 59); stroke-opacity: 1;"/><path class="meanline" d="M544.58,147.78726196289062V155.56" style="fill: none; vector-effect: none; stroke-width: 2px; stroke-dasharray: 4px, 2px; stroke: rgb(239, 85, 59); stroke-opacity: 1;"/><path class="meanline" d="M780.9,11.649999618530273V31.11" style="fill: none; vector-effect: none; stroke-width: 2px; stroke-dasharray: 4px, 2px; stroke: rgb(239, 85, 59); stroke-opacity: 1;"/></g></g></g></g><g class="zerolinelayer-above"/><path class="xlines-above crisp" d="M0,0" style="fill: none;"/><path class="ylines-above crisp" d="M0,0" style="fill: none;"/><g class="overlines-above"/><g class="xaxislayer-above"><g class="xtick"><text text-anchor="middle" x="0" y="661" transform="translate(418,0)" style="font-family: 'Open Sans', verdana, arial, sans-serif; font-size: 20px; fill: rgb(42, 63, 95); fill-opacity: 1; white-space: pre;">0</text></g><g class="xtick"><text text-anchor="middle" x="0" y="661" style="font-family: 'Open Sans', verdana, arial, sans-serif; font-size: 20px; fill: rgb(42, 63, 95); fill-opacity: 1; white-space: pre;" transform="translate(582.4,0)">20</text></g><g class="xtick"><text text-anchor="middle" x="0" y="661" style="font-family: 'Open Sans', verdana, arial, sans-serif; font-size: 20px; fill: rgb(42, 63, 95); fill-opacity: 1; white-space: pre;" transform="translate(746.8,0)">40</text></g><g class="xtick"><text text-anchor="middle" x="0" y="661" style="font-family: 'Open Sans', verdana, arial, sans-serif; font-size: 20px; fill: rgb(42, 63, 95); fill-opacity: 1; white-space: pre;" transform="translate(911.2,0)">60</text></g><g class="xtick"><text text-anchor="middle" x="0" y="661" style="font-family: 'Open Sans', verdana, arial, sans-serif; font-size: 20px; fill: rgb(42, 63, 95); fill-opacity: 1; white-space: pre;" transform="translate(1075.6,0)">80</text></g><g class="xtick"><text text-anchor="middle" x="0" y="661" style="font-family: 'Open Sans', verdana, arial, sans-serif; font-size: 20px; fill: rgb(42, 63, 95); fill-opacity: 1; white-space: pre;" transform="translate(1240,0)">100</text></g></g><g class="yaxislayer-above"><g class="ytick"><text text-anchor="end" x="417" y="7" transform="translate(0,608.89)" style="font-family: 'Open Sans', verdana, arial, sans-serif; font-size: 20px; fill: rgb(42, 63, 95); fill-opacity: 1; white-space: pre;">Sustainability vs carbon</text></g><g class="ytick"><text text-anchor="end" x="417" y="7" transform="translate(0,484.44)" style="font-family: 'Open Sans', verdana, arial, sans-serif; font-size: 20px; fill: rgb(42, 63, 95); fill-opacity: 1; white-space: pre;">Willingness to use</text></g><g class="ytick"><text text-anchor="end" x="417" y="7" transform="translate(0,360)" style="font-family: 'Open Sans', verdana, arial, sans-serif; font-size: 20px; fill: rgb(42, 63, 95); fill-opacity: 1; white-space: pre;">Overall riding satisfaction</text></g><g class="ytick"><text text-anchor="end" x="417" y="7" transform="translate(0,235.56)" style="font-family: 'Open Sans', verdana, arial, sans-serif; font-size: 20px; fill: rgb(42, 63, 95); fill-opacity: 1; white-space: pre;">Overall vs carbon frame</text></g><g class="ytick"><text text-anchor="end" x="417" y="7" transform="translate(0,111.11)" style="font-family: 'Open Sans', verdana, arial, sans-serif; font-size: 20px; fill: rgb(42, 63, 95); fill-opacity: 1; white-space: pre;">Confidence riding natural-fibre frame</text></g></g><g class="overaxes-above"/></g></g><g class="polarlayer"/><g class="smithlayer"/><g class="ternarylayer"/><g class="geolayer"/><g class="funnelarealayer"/><g class="pielayer"/><g class="iciclelayer"/><g class="treemaplayer"/><g class="sunburstlayer"/><g class="glimages"/><defs id="topdefs-bd36f7"><g class="clips"/><clipPath id="legendbd36f7"><rect width="152" height="39" x="0" y="0"/></clipPath></defs><g class="layer-above"><g class="imagelayer"/><g class="shapelayer"/></g><g class="infolayer"><g class="legend" pointer-events="all" transform="translate(1088,29.799999999999983)"><rect class="bg" shape-rendering="crispEdges" style="stroke: rgb(68, 68, 68); stroke-opacity: 1; fill: rgb(255, 255, 255); fill-opacity: 1; stroke-width: 0px;" width="152" height="39" x="0" y="0"/><g class="scrollbox" transform="" clip-path="url(#legendbd36f7)"><g class="groups" transform=""><g class="traces" transform="translate(0,19.5)" style="opacity: 1;"><text class="legendtext" text-anchor="start" x="40" y="7.8" style="font-family: 'Open Sans', verdana, arial, sans-serif; font-size: 20px; fill: rgb(42, 63, 95); fill-opacity: 1; white-space: pre;">No</text><g class="layers" style="opacity: 1;"><g class="legendfill"/><g class="legendlines"/><g class="legendsymbols"><g class="legendpoints"><path class="legendbox" d="M6,6H-6V-6H6Z" transform="translate(20,0)" style="stroke-width: 2px; fill: rgb(99, 110, 250); fill-opacity: 0.5; stroke: rgb(99, 110, 250); stroke-opacity: 1;"/></g></g></g><rect class="legendtoggle" x="0" y="-14.5" width="69.609375" height="29" style="fill: rgb(0, 0, 0); fill-opacity: 0;"/></g></g><g class="groups" transform="translate(72.109375,0)"><g class="traces" transform="translate(0,19.5)" style="opacity: 1;"><text class="legendtext" text-anchor="start" x="40" y="7.8" style="font-family: 'Open Sans', verdana, arial, sans-serif; font-size: 20px; fill: rgb(42, 63, 95); fill-opacity: 1; white-space: pre;">Yes</text><g class="layers" style="opacity: 1;"><g class="legendfill"/><g class="legendlines"/><g class="legendsymbols"><g class="legendpoints"><path class="legendbox" d="M6,6H-6V-6H6Z" transform="translate(20,0)" style="stroke-width: 2px; fill: rgb(239, 85, 59); fill-opacity: 0.5; stroke: rgb(239, 85, 59); stroke-opacity: 1;"/></g></g></g><rect class="legendtoggle" x="0" y="-14.5" width="76.875" height="29" style="fill: rgb(0, 0, 0); fill-opacity: 0;"/></g></g></g><rect class="scrollbar" rx="20" ry="3" width="0" height="0" style="fill: rgb(128, 139, 164); fill-opacity: 1;" x="0" y="0"/></g><g class="g-gtitle"><text class="gtitle" x="64" y="40" text-anchor="start" dy="0em" style="opacity: 1; font-family: 'Open Sans', verdana, arial, sans-serif; font-size: 28px; fill: rgb(42, 63, 95); fill-opacity: 1; white-space: pre;">Sustainability, willingness &amp; satisfaction (split by perceived fibre difference)</text></g><g class="g-xtitle"><text class="xtitle" x="829" y="696.3" text-anchor="middle" style="opacity: 1; font-family: 'Open Sans', verdana, arial, sans-serif; font-size: 24px; fill: rgb(42, 63, 95); fill-opacity: 1; white-space: pre;">Score (0–100)</text></g><g class="g-ytitle" transform="translate(2.728515625,0)"><text class="ytitle" transform="rotate(-90,21.271875000000023,360)" x="21.271875000000023" y="360" text-anchor="middle" style="opacity: 1; font-family: 'Open Sans', verdana, arial, sans-serif; font-size: 24px; fill: rgb(42, 63, 95); fill-opacity: 1; white-space: pre;">Question</text></g></g></svg>