<svg class="main-svg" xmlns="http://www.w3.org/2000/svg" xmlns:xlink="http://www.w3.org/1999/xlink" width="1280" height="720" style="" viewBox="0 0 1280 720"><rect x="0" y="0" width="1280" height="720" style="fill: rgb(255, 255, 255); fill-opacity: 1;"/><defs id="defs-191592"><g class="clips"><clipPath id="clip191592xyplot" class="plotclip"><rect width="949" height="560"/></clipPath><clipPath class="axesclip" id="clip191592x"><rect x="83" y="0" width="949" height="720"/></clipPath><clipPath class="axesclip" id="clip191592y"><rect x="0" y="80" width="1280" height="560"/></clipPath><clipPath class="axesclip" id="clip191592xy"><rect x="83" y="80" width="949" height="560"/></clipPath></g><g class="gradients"><linearGradient x1="0" y1="1" x2="0" y2="0" gradientUnits="objectBoundingBox" id="g191592-cbcoloraxis"><stop offset="0%" stop-color="rgb(13, 8, 135)" stop-opacity="1"/><stop offset="11.111111%" stop-color="rgb(70, 3, 159)" stop-opacity="1"/><stop offset="22.222222%" stop-color="rgb(114, 1, 168)" stop-opacity="1"/><stop offset="33.333333%" stop-color="rgb(156, 23, 158)" stop-opacity="1"/><stop offset="44.444444%" stop-color="rgb(189, 55, 134)" stop-opacity="1"/><stop offset="55.555556%" stop-color="rgb(216, 87, 107)" stop-opacity="1"/><stop offset="66.666667%" stop-color="rgb(237, 121, 83)" stop-opacity="1"/><stop offset="77.777778%" stop-color="rgb(251, 159, 58)" stop-opacity="1"/><stop offset="88.888889%" stop-color="rgb(253, 202, 38)" stop-opacity="1"/><stop offset="100%" stop-color="rgb(240, 249, 33)" stop-opacity="1"/></linearGradient></g><g class="patterns"/></defs><g class="bglayer"/><g class="layer-below"><g class="imagelayer"/><g class="shapelayer"/></g><g class="cartesianlayer"><g class="subplot xy"><g class="layer-subplot"><g class="shapelayer"/><g class="imagelayer"/></g><g class="minor-gridlayer"><g class="x"/><g class="y"/></g><g class="gridlayer"><g class="x"><path class="xgrid crisp" transform="translate(145.41,0)" d="M0,80v560" style="stroke: rgb(235, 240, 248); stroke-opacity: 1; stroke-width: 1px;"/><path class="xgrid crisp" transform="translate(310.07,0)" d="M0,80v560" style="stroke: rgb(235, 240, 248); stroke-opacity: 1; stroke-width: 1px;"/><path class="xgrid crisp" transform="translate(474.74,0)" d="M0,80v560" style="stroke: rgb(235, 240, 248); stroke-opacity: 1; stroke-width: 1px;"/><path class="xgrid crisp" transform="translate(639.41,0)" d="M0,80v560" style="stroke: rgb(235, 240, 248); stroke-opacity: 1; stroke-width: 1px;"/><path class="xgrid crisp" transform="translate(804.07,0)" d="M0,80v560" style="stroke: rgb(235, 240, 248); stroke-opacity: 1; stroke-width: 1px;"/><path class="xgrid crisp" transform="translate(968.74,0)" d="M0,80v560" style="stroke: rgb(235, 240, 248); stroke-opacity: 1; stroke-width: 1px;"/></g><g class="y"><path class="ygrid crisp" transform="translate(0,596.61)" d="M83,0h949" style="stroke: rgb(235, 240, 248); stroke-opacity: 1; stroke-width: 1px;"/><path class="ygrid crisp" transform="translate(0,502.05)" d="M83,0h949" style="stroke: rgb(235, 240, 248); stroke-opacity: 1; stroke-width: 1px;"/><path class="ygrid crisp" transform="translate(0,407.49)" d="M83,0h949" style="stroke: rgb(235, 240, 248); stroke-opacity: 1; stroke-width: 1px;"/><path class="ygrid crisp" transform="translate(0,312.93)" d="M83,0h949" style="stroke: rgb(235, 240, 248); stroke-opacity: 1; stroke-width: 1px;"/><path class="ygrid crisp" transform="translate(0,218.37)" d="M83,0h949" style="stroke: rgb(235, 240, 248); stroke-opacity: 1; stroke-width: 1px;"/><path class="ygrid crisp" transform="translate(0,123.81)" d="M83,0h949" style="stroke: rgb(235, 240, 248); stroke-opacity: 1; stroke-width: 1px;"/></g></g><g class="zerolinelayer"/><g class="layer-between"><g class="shapelayer"/><g class="imagelayer"/></g><path class="xlines-below"/><path class="ylines-below"/><g class="overlines-below"/><g class="xaxislayer-below"/><g class="yaxislayer-below"/><g class="overaxes-below"/><g class="overplot"><g class="xy" transform="translate(83,80)" clip-path="url(#clip191592xyplot)"><g class="scatterlayer mlayer"><g class="trace scatter trace56dc96" style="stroke-miterlimit: 2; opacity: 1;"><g class="fills"/><g class="errorbars"/><g class="lines"/><g class="points"><path class="point plotly-customdata" transform="translate(227.07,327.49)" d="M13.38,0A13.38,13.38 0 1,1 0,-13.38A13.38,13.38 0 0,1 13.38,0Z" style="opacity: 0.7; stroke-width: 1px; fill: rgb(156, 23, 158); fill-opacity: 1; stroke: rgb(255, 255, 255); stroke-opacity: 1;"/><path class="point plotly-customdata" transform="translate(885.74,43.81)" d="M14.14,0A14.14,14.14 0 1,1 0,-14.14A14.14,14.14 0 0,1 14.14,0Z" style="opacity: 0.7; stroke-width: 1px; fill: rgb(240, 249, 33); fill-opacity: 1; stroke: rgb(255, 255, 255); stroke-opacity: 1;"/><path class="point plotly-customdata" transform="translate(556.41,138.37)" d="M13.76,0A13.76,13.76 0 1,1 0,-13.76A13.76,13.76 0 0,1 13.76,0Z" style="opacity: 0.7; stroke-width: 1px; fill: rgb(13, 8, 135); fill-opacity: 1; stroke: rgb(255, 255, 255); stroke-opacity: 1;"/><path class="point plotly-customdata" transform="translate(556.41,516.61)" d="M13.76,0A13.76,13.76 0 1,1 0,-13.76A13.76,13.76 0 0,1 13.76,0Z" style="opacity: 0.7; stroke-width: 1px; fill: rgb(156, 23, 158); fill-opacity: 1; stroke: rgb(255, 255, 255); stroke-opacity: 1;"/><path class="point plotly-customdata" transform="translate(391.74,232.93)" d="M13.76,0A13.76,13.76 0 1,1 0,-13.76A13.76,13.76 0 0,1 13.76,0Z" style="opacity: 0.7; stroke-width: 1px; fill: rgb(237, 121, 83); fill-opacity: 1; stroke: rgb(255, 255, 255); stroke-opacity: 1;"/><path class="point plotly-customdata" transform="translate(556.41,232.93)" d="M14.14,0A14.14,14.14 0 1,1 0,-14.14A14.14,14.14 0 0,1 14.14,0Z" style="opacity: 0.7; stroke-width: 1px; fill: rgb(13, 8, 135); fill-opacity: 1; stroke: rgb(255, 255, 255); stroke-opacity: 1;"/><path class="point plotly-customdata" transform="translate(721.07,138.37)" d="M13.38,0A13.38,13.38 0 1,1 0,-13.38A13.38,13.38 0 0,1 13.38,0Z" style="opacity: 0.7; stroke-width: 1px; fill: rgb(237, 121, 83); fill-opacity: 1; stroke: rgb(255, 255, 255); stroke-opacity: 1;"/><path class="point plotly-customdata" transform="translate(721.07,138.37)" d="M12.57,0A12.57,12.57 0 1,1 0,-12.57A12.57,12.57 0 0,1 12.57,0Z" style="opacity: 0.7; stroke-width: 1px; fill: rgb(156, 23, 158); fill-opacity: 1; stroke: rgb(255, 255, 255); stroke-opacity: 1;"/><path class="point plotly-customdata" transform="translate(62.41,327.49)" d="M13.38,0A13.38,13.38 0 1,1 0,-13.38A13.38,13.38 0 0,1 13.38,0Z" style="opacity: 0.7; stroke-width: 1px; fill: rgb(13, 8, 135); fill-opacity: 1; stroke: rgb(255, 255, 255); stroke-opacity: 1;"/></g><g class="text"/></g></g></g></g><g class="zerolinelayer-above"/><path class="xlines-above crisp" d="M0,0" style="fill: none;"/><path class="ylines-above crisp" d="M0,0" style="fill: none;"/><g class="overlines-above"/><g class="xaxislayer-above"><g class="xtick"><text text-anchor="middle" x="0" y="661" transform="translate(145.41,0)" style="font-family: 'Open Sans', verdana, arial, sans-serif; font-size: 20px; fill: rgb(42, 63, 95); fill-opacity: 1; white-space: pre;">50</text></g><g class="xtick"><text text-anchor="middle" x="0" y="661" style="font-family: 'Open Sans', verdana, arial, sans-serif; font-size: 20px; fill: rgb(42, 63, 95); fill-opacity: 1; white-space: pre;" transform="translate(310.07,0)">60</text></g><g class="xtick"><text text-anchor="middle" x="0" y="661" style="font-family: 'Open Sans', verdana, arial, sans-serif; font-size: 20px; fill: rgb(42, 63, 95); fill-opacity: 1; white-space: pre;" transform="translate(474.74,0)">70</text></g><g class="xtick"><text text-anchor="middle" x="0" y="661" style="font-family: 'Open Sans', verdana, arial, sans-serif; font-size: 20px; fill: rgb(42, 63, 95); fill-opacity: 1; white-space: pre;" transform="translate(639.41,0)">80</text></g><g class="xtick"><text text-anchor="middle" x="0" y="661" style="font-family: 'Open Sans', verdana, arial, sans-serif; font-size: 20px; fill: rgb(42, 63, 95); fill-opacity: 1; white-space: pre;" transform="translate(804.07,0)">90</text></g><g class="xtick"><text text-anchor="middle" x="0" y="661" style="font-family: 'Open Sans', verdana, arial, sans-serif; font-size: 20px; fill: rgb(42, 63, 95); fill-opacity: 1; white-space: pre;" transform="translate(968.74,0)">100</text></g></g><g class="yaxislayer-above"><g class="ytick"><text text-anchor="end" x="82" y="7" transform="translate(0,596.61)" style="font-family: 'Open Sans', verdana, arial, sans-serif; font-size: 20px; fill: rgb(42, 63, 95); fill-opacity: 1; white-space: pre;">50</text></g><g class="ytick"><text text-anchor="end" x="82" y="7" style="font-family: 'Open Sans', verdana, arial, sans-serif; font-size: 20px; fill: rgb(42, 63, 95); fill-opacity: 1; white-space: pre;" transform="translate(0,502.05)">60</text></g><g class="ytick"><text text-anchor="end" x="82" y="7" style="font-family: 'Open Sans', verdana, arial, sans-serif; font-size: 20px; fill: rgb(42, 63, 95); fill-opacity: 1; white-space: pre;" transform="translate(0,407.49)">70</text></g><g class="ytick"><text text-anchor="end" x="82" y="7" style="font-family: 'Open Sans', verdana, arial, sans-serif; font-size: 20px; fill: rgb(42, 63, 95); fill-opacity: 1; white-space: pre;" transform="translate(0,312.93)">80</text></g><g class="ytick"><text text-anchor="end" x="82" y="7" style="font-family: 'Open Sans', verdana, arial, sans-serif; font-size: 20px; fill: rgb(42, 63, 95); fill-opacity: 1; white-space: pre;" transform="translate(0,218.37)">90</text></g><g class="ytick"><text text-anchor="end" x="82" y="7" style="font-family: 'Open Sans', verdana, arial, sans-serif; font-size: 20px; fill: rgb(42, 63, 95); fill-opacity: 1; white-space: pre;" transform="translate(0,123.81)">100</text></g></g><g class="overaxes-above"/></g></g><g class="polarlayer"/><g class="smithlayer"/><g class="ternarylayer"/><g class="geolayer"/><g class="funnelarealayer"/><g class="pielayer"/><g class="iciclelayer"/><g class="treemaplayer"/><g class="sunburstlayer"/><g class="glimages"/><defs id="topdefs-191592"><g class="clips"/></defs><g class="layer-above"><g class="imagelayer"/><g class="shapelayer"/></g><g class="infolayer"><g class="cbcoloraxis colorbar" transform="translate(83,80)"><rect class="cbbg" x="968" y="0" width="217.15234375" height="560" style="fill: rgb(0, 0, 0); fill-opacity: 0; stroke: rgb(68, 68, 68); stroke-opacity: 1; stroke-width: 0;"/><g class="cbfills" transform="translate(0,44)"><rect class="cbfill gradient_filled" style="fill: url('#g191592-cbcoloraxis');" x="978" y="0" width="30" height="506"/></g><g class="cblines" transform="translate(0,44)"/><g class="cbaxis crisp" transform="translate(0,-80)"><g class="ycbcoloraxistick"><text text-anchor="start" x="1012.5" y="7" transform="translate(0,630)" style="font-family: 'Open Sans', verdana, arial, sans-serif; font-size: 20px; fill: rgb(42, 63, 95); fill-opacity: 1; white-space: pre;">70</text></g><g class="ycbcoloraxistick"><text text-anchor="start" x="1012.5" y="7" style="font-family: 'Open Sans', verdana, arial, sans-serif; font-size: 20px; fill: rgb(42, 63, 95); fill-opacity: 1; white-space: pre;" transform="translate(0,545.6700000000001)">75</text></g><g class="ycbcoloraxistick"><text text-anchor="start" x="1012.5" y="7" style="font-family: 'Open Sans', verdana, arial, sans-serif; font-size: 20px; fill: rgb(42, 63, 95); fill-opacity: 1; white-space: pre;" transform="translate(0,461.33000000000004)">80</text></g><g class="ycbcoloraxistick"><text text-anchor="start" x="1012.5" y="7" style="font-family: 'Open Sans', verdana, arial, sans-serif; font-size: 20px; fill: rgb(42, 63, 95); fill-opacity: 1; white-space: pre;" transform="translate(0,377)">85</text></g><g class="ycbcoloraxistick"><text text-anchor="start" x="1012.5" y="7" style="font-family: 'Open Sans', verdana, arial, sans-serif; font-size: 20px; fill: rgb(42, 63, 95); fill-opacity: 1; white-space: pre;" transform="translate(0,292.67)">90</text></g><g class="ycbcoloraxistick"><text text-anchor="start" x="1012.5" y="7" style="font-family: 'Open Sans', verdana, arial, sans-serif; font-size: 20px; fill: rgb(42, 63, 95); fill-opacity: 1; white-space: pre;" transform="translate(0,208.33000000000004)">95</text></g><g class="ycbcoloraxistick"><text text-anchor="start" x="1012.5" y="7" style="font-family: 'Open Sans', verdana, arial, sans-serif; font-size: 20px; fill: rgb(42, 63, 95); fill-opacity: 1; white-space: pre;" transform="translate(0,124.00000000000003)">100</text></g></g><g class="cbtitleunshift" transform="translate(-83,-80)"><g class="cbtitle" transform=""><text class="ycbcoloraxistitle" x="1060.98" y="111" text-anchor="start" style="opacity: 1; font-family: 'Open Sans', verdana, arial, sans-serif; font-size: 24px; fill: rgb(42, 63, 95); fill-opacity: 1; white-space: pre;">consider_buying</text></g></g><rect class="cboutline" x="978" y="44" width="30" height="506" style="stroke: rgb(68, 68, 68); stroke-opacity: 1; fill: none; stroke-width: 0;"/></g><g class="g-gtitle"><text class="gtitle" x="64" y="40" text-anchor="start" dy="0em" style="opacity: 1; font-family: 'Open Sans', verdana, arial, sans-serif; font-size: 28px; fill: rgb(42, 63, 95); fill-opacity: 1; white-space: pre;">Perception space: innovation vs sustainability</text></g><g class="g-xtitle"><text class="xtitle" x="557.5" y="696.3" text-anchor="middle" style="opacity: 1; font-family: 'Open Sans', verdana, arial, sans-serif; font-size: 24px; fill: rgb(42, 63, 95); fill-opacity: 1; white-space: pre;">Innovation (0–100)</text></g><g class="g-ytitle" transform="translate(3.056640625,0)"><text class="ytitle" transform="rotate(-90,20.94375,360)" x="20.94375" y="360" text-anchor="middle" style="opacity: 1; font-family: 'Open Sans', verdana, arial, sans-serif; font-size: 24px; fill: rgb(42, 63, 95); fill-opacity: 1; white-space: pre;">Sustainability vs carbon (0–100)</text></g></g></svg>