<svg class="main-svg" xmlns="http://www.w3.org/2000/svg" xmlns:xlink="http://www.w3.org/1999/xlink" width="1280" height="720" style="" viewBox="0 0 1280 720"><rect x="0" y="0" width="1280" height="720" style="fill: rgb(255, 255, 255); fill-opacity: 1;"/><defs id="defs-7fd6c7"><g class="clips"><clipPath id="clip7fd6c7xyplot" class="plotclip"><rect width="1137" height="560"/></clipPath><clipPath class="axesclip" id="clip7fd6c7x"><rect x="103" y="0" width="1137" height="720"/></clipPath><clipPath class="axesclip" id="clip7fd6c7y"><rect x="0" y="80" width="1280" height="560"/></clipPath><clipPath class="axesclip" id="clip7fd6c7xy"><rect x="103" y="80" width="1137" height="560"/></clipPath></g><g class="gradients"/><g class="patterns"/></defs><g class="bglayer"/><g class="layer-below"><g class="imagelayer"/><g class="shapelayer"/></g><g class="cartesianlayer"><g class="subplot xy"><g class="layer-subplot"><g class="shapelayer"/><g class="imagelayer"/></g><g class="minor-gridlayer"><g class="x"/><g class="y"/></g><g class="gridlayer"><g class="x"><path class="xgrid crisp" transform="translate(229.22,0)" d="M0,80v560" style="stroke: rgb(235, 240, 248); stroke-opacity: 1; stroke-width: 1px;"/><path class="xgrid crisp" transform="translate(355.57,0)" d="M0,80v560" style="stroke: rgb(235, 240, 248); stroke-opacity: 1; stroke-width: 1px;"/><path class="xgrid crisp" transform="translate(481.92,0)" d="M0,80v560" style="stroke: rgb(235, 240, 248); stroke-opacity: 1; stroke-width: 1px;"/><path class="xgrid crisp" transform="translate(608.26,0)" d="M0,80v560" style="stroke: rgb(235, 240, 248); stroke-opacity: 1; stroke-width: 1px;"/><path class="xgrid crisp" transform="translate(734.61,0)" d="M0,80v560" style="stroke: rgb(235, 240, 248); stroke-opacity: 1; stroke-width: 1px;"/><path class="xgrid crisp" transform="translate(860.96,0)" d="M0,80v560" style="stroke: rgb(235, 240, 248); stroke-opacity: 1; stroke-width: 1px;"/><path class="xgrid crisp" transform="translate(987.31,0)" d="M0,80v560" style="stroke: rgb(235, 240, 248); stroke-opacity: 1; stroke-width: 1px;"/><path class="xgrid crisp" transform="translate(1113.65,0)" d="M0,80v560" style="stroke: rgb(235, 240, 248); stroke-opacity: 1; stroke-width: 1px;"/></g><g class="y"><path class="ygrid crisp" transform="translate(0,568.03)" d="M103,0h1137" style="stroke: rgb(235, 240, 248); stroke-opacity: 1; stroke-width: 1px;"/><path class="ygrid crisp" transform="translate(0,490.45)" d="M103,0h1137" style="stroke: rgb(235, 240, 248); stroke-opacity: 1; stroke-width: 1px;"/><path class="ygrid crisp" transform="translate(0,412.87)" d="M103,0h1137" style="stroke: rgb(235, 240, 248); stroke-opacity: 1; stroke-width: 1px;"/><path class="ygrid crisp" transform="translate(0,335.28999999999996)" d="M103,0h1137" style="stroke: rgb(235, 240, 248); stroke-opacity: 1; stroke-width: 1px;"/><path class="ygrid crisp" transform="translate(0,257.71000000000004)" d="M103,0h1137" style="stroke: rgb(235, 240, 248); stroke-opacity: 1; stroke-width: 1px;"/><path class="ygrid crisp" transform="translate(0,180.13)" d="M103,0h1137" style="stroke: rgb(235, 240, 248); stroke-opacity: 1; stroke-width: 1px;"/><path class="ygrid crisp" transform="translate(0,102.55)" d="M103,0h1137" style="stroke: rgb(235, 240, 248); stroke-opacity: 1; stroke-width: 1px;"/></g></g><g class="zerolinelayer"/><g class="layer-between"><g class="shapelayer"/><g class="imagelayer"/></g><path class="xlines-below"/><path class="ylines-below"/><g class="overlines-below"/><g class="xaxislayer-below"/><g class="yaxislayer-below"/><g class="overaxes-below"/><g class="overplot"><g class="xy" transform="translate(103,80)" clip-path="url(#clip7fd6c7xyplot)"><g class="scatterlayer mlayer"><g class="trace scatter traced3fdb2" style="stroke-miterlimit: 2; opacity: 1;"><g class="fills"/><g class="errorbars"/><g class="lines"><path class="js-line" d="M0,270.86L2.47,28L3.08,31.74L3.7,31.98L4.94,48.49L5.55,70.89L7.4,95.5L8.02,91.05L9.87,80.73L10.49,81.12L11.1,80.54L12.34,101.39L12.96,126.01L14.81,162.61L15.42,167.02L16.04,166.82L16.66,159.19L19.74,100.54L20.36,105.14L20.98,105.51L21.59,122.23L23.44,163.92L24.06,168.92L24.68,179.23L25.29,170.32L26.53,163.14L27.14,144.41L28.38,125.01L29,130.3L30.23,140.1L30.85,163.68L33.93,242.77L34.55,233.43L35.16,235.85L35.78,226.17L38.25,158.56L38.87,145.85L39.48,143.21L40.1,156.87L41.33,177.06L41.95,202.21L44.42,252.67L45.04,253.82L45.65,259.37L46.27,259.05L46.89,263.47L47.5,262.95L48.12,274.82L50.59,319.15L51.21,319.54L52.44,323.19L53.06,321.24L54.29,301.44L54.91,295.71L56.14,288.02L56.76,289.49L59.23,318.56L59.84,317.78L60.46,318.03L61.08,308.9L62.31,302.47L62.93,290.71L65.39,283.03L66.01,284.83L66.63,294.18L67.25,290.56L67.86,293.55L68.48,303.41L69.1,305.67L69.71,303.74L70.95,307.61L71.56,298.06L72.18,289.06L72.8,292.97L74.03,282.43L74.65,290.75L77.12,320.14L77.73,324.16L78.35,322.85L78.97,327.77L79.58,324.97L80.2,315.19L81.43,311L82.05,308.48L82.67,308.32L83.29,309.93L83.9,312.48L84.52,307.61L85.14,307.15L85.75,310.29L86.99,304.27L87.6,307.48L89.45,300.54L90.07,308.11L90.69,310.93L91.31,309.36L92.54,326.64L93.16,322.4L95.01,332.66L95.62,323.4L96.24,323.02L96.86,321.74L98.09,311.86L98.71,322.12L99.33,327.69L99.94,324.67L101.79,343.62L102.41,343.84L103.64,347.61L104.26,339.78L104.88,337.19L105.49,342.9L106.11,341.68L106.73,336.33L108.58,343.8L109.2,344.37L110.43,353.78L111.05,351.13L112.28,357.21L112.9,350.81L113.51,349.33L114.13,350.44L115.37,340.56L115.98,346.94L116.6,350.95L117.22,347.47L117.83,350.33L118.45,360.62L119.68,359.89L120.3,368.87L120.92,371.46L121.53,366.84L122.15,365.08L122.77,372.87L124,364.72L124.62,371.19L125.85,368.28L126.47,371.62L127.7,380.72L128.32,378.03L129.56,384.79L130.17,382.46L130.79,380.26L131.41,375.12L132.64,364.66L133.26,365.41L133.87,367.74L135.72,373.97L136.34,379.45L138.19,387.71L138.81,386.9L139.43,385.53L140.04,387.75L140.66,386.98L141.28,382.6L141.89,381.13L142.51,385.22L143.74,385.75L144.36,390.23L144.98,395.79L145.6,391.55L146.21,392.6L146.83,396.71L147.45,395.13L148.06,389.78L149.3,388.95L149.91,385.34L150.53,383.73L151.15,390.13L152.38,388.93L153,392.19L154.23,397.22L154.85,396.89L155.47,400.51L156.08,400.19L156.7,397.88L157.93,398.8L158.55,398.75L161.64,386.53L162.25,385.47L164.1,388.21L164.72,394.81L165.34,394.26L165.95,396.51L167.19,401.46L167.8,399.05L169.04,401.56L169.66,396.4L170.27,390.93L170.89,391.52L171.51,389.27L172.74,383.5L173.36,387.7L173.97,387.27L174.59,388.5L175.82,404.9L176.44,403.41L177.68,408.04L178.29,407.04L178.91,404.75L179.53,404.92L180.14,405.98L181.38,399.52L181.99,402.59L182.61,401.98L183.23,403.22L185.08,413.08L185.7,413.96L186.31,416.18L186.93,413.77L188.78,405.5L189.4,398.09L191.25,388.97L191.86,390.1L194.95,420.15L195.57,422.45L196.18,422.71L196.8,426.35L197.42,423.12L198.03,415.94L199.88,401.73L200.5,402.44L201.12,402.46L202.35,407.83L202.97,412.72L204.82,419.59L205.44,419.88L207.91,405.54L208.52,399.25L209.14,397.78L209.76,399.3L211.61,412.37L212.22,419.99L214.69,440.54L215.31,439.19L215.93,439.69L216.54,438.27L219.01,421.11L219.63,417.77L220.86,424.53L221.48,427.34L222.09,429.95L222.71,435.96L223.33,435.84L223.95,433.43L224.56,435.62L225.18,433.94L227.03,425.93L227.65,422.75L228.26,419.12L228.88,421.12L230.11,421.98L230.73,424.91L231.97,432.62L232.58,432.8L233.2,435.02L233.82,433.83L235.67,426.49L236.28,422.09L236.9,416.83L237.52,417.98L238.75,421.67L239.37,427.6L241.84,442.25L242.45,443.41L244.3,439.62L244.92,437.91L246.15,431.22L246.77,431.66L247.39,431.84L248.01,434.19L249.86,440.5L250.47,439.16L251.09,440.01L251.71,439.55L252.94,432.36L253.56,427.56L254.79,418.45L255.41,418.95L256.03,418.52L257.26,423.62L257.88,427.14L260.34,442.93L260.96,441.16L261.58,442.31L262.19,439.66L265.28,427.84L265.9,430.85L268.98,449.71L269.6,446.87L270.83,445.15L271.45,440.75L272.68,430.73L273.3,429.74L273.92,427.32L274.53,428.98L276.38,441.53L277,443.95L278.23,448.52L278.85,448.29L279.47,448.8L280.09,447.82L281.32,442.6L281.94,440.78L283.17,436.14L283.79,437.46L284.4,438.05L285.02,440.41L286.87,447.43L287.49,444.61L288.72,447.16L289.34,444.04L290.57,447.34L291.19,445.91L291.81,447.07L292.42,453.08L294.89,465.64L295.51,464.45L296.13,460.96L296.74,463.56L297.36,462.15L297.98,455.66L299.83,454.76L300.44,452.35L301.68,458.37L302.3,455.66L303.53,458.4L304.15,456.28L307.23,440.01L307.85,439.17L308.46,437.79L309.08,439.6L309.7,441.02L310.32,447.15L311.55,452.06L312.17,454.97L313.4,456.01L314.02,457.61L315.87,452.49L316.48,453.86L317.1,454.1L317.72,456.97L318.95,464.91L319.57,464.07L320.19,463.83L320.8,465L321.42,464.35L322.04,459.85L323.89,449.06L324.5,442.66L325.74,442.11L326.36,442.75L328.82,456.97L329.44,458.1L330.06,459.8L330.67,457.69L331.91,456.2L332.52,452.61L333.76,448.15L334.38,447.59L334.99,447.97L335.61,451.18L337.46,463.15L338.08,464.62L338.69,466.44L339.31,462.94L340.54,457.67L341.16,452.7L342.4,442.71L343.01,441.91L344.25,443.6L344.86,449.32L347.95,469.55L348.56,468.61L349.8,466.18L350.42,462.38L351.65,456.14L352.27,455.03L352.88,451.2L353.5,452.36L355.97,460.72L356.58,462.71L357.82,456.81L358.44,456.75L360.29,446.67L360.9,444.12L361.52,442.25L362.14,444.99L365.22,471.3L365.84,471.07L367.07,469.68L367.69,465.06L370.16,447.49L370.77,448.35L374.48,467.21L375.09,468.28L375.71,469.8L376.33,467.63L378.18,460.05L378.79,458.85L379.41,457.93L380.03,458.42L381.26,463.64L381.88,469.42L383.11,478.45L383.73,479.45L384.35,479.64L384.96,480.82L386.81,470.22L387.43,464.92L389.28,456.18L389.9,457.52L390.52,459.39L391.13,464.62L393.6,478.73L394.22,478.79L394.83,479.37L395.45,477.42L397.3,465.98L397.92,464.96L399.15,464.07L399.77,468.56L401,474.43L401.62,477.98L402.24,478.87L402.85,477.86L404.09,476.3L404.71,474.1L406.56,468.79L407.17,468.43L407.79,469.95L408.41,474.92L411.49,488.53L412.11,488.95L413.34,487.69L413.96,484.36L414.58,483.13L415.19,479.64L415.81,478.52L416.43,479.32L417.66,481.77L418.28,485.31L419.51,490.85L420.13,490.96L420.75,492.71L421.36,489.65L425.06,479.48L425.68,480.78L426.3,481.32L426.91,484.01L428.15,486.47L428.77,487.33L429.38,487.07L430,487.75L430.62,487.28L431.23,485.43L433.08,480.9L433.7,481.25L434.32,481.48L434.93,482.92L435.55,483.34L436.17,485.68L437.4,490.6L438.02,489.78L438.64,490.27L439.25,488.67L442.34,477.06L442.95,478.45L444.19,481.42L444.81,484.19L445.42,486.6L446.04,486.35L446.66,486.17L447.27,488.16L447.89,486.2L450.36,482.39L450.98,482.9L452.21,487.07L452.83,487.09L454.06,490.68L454.68,491.68L455.91,491.88L456.53,490.27L457.14,488.38L457.76,488.81L458.38,487.73L459,487.05L459.61,489.21L461.46,493.42L462.08,495.41L462.7,495.95L463.31,495.11L463.93,494.82L464.55,493.09L467.02,488.81L467.63,488.03L468.25,488.7L468.87,490.94L471.33,496.98L471.95,494.3L476.27,474.67L476.89,474.82L477.5,478.73L479.97,491.49L480.59,493.5L481.2,493.46L481.82,494.68L482.44,493.37L483.06,488.51L485.52,480.69L486.14,483.2L487.99,487.97L488.61,492.27L489.84,493.52L490.46,494.4L492.93,484.85L493.54,480.34L494.16,477.45L494.78,478L495.39,479.35L497.86,491.95L498.48,491.88L499.1,494.19L499.71,493.75L500.33,491.39L503.41,476.64L504.03,476.56L504.65,477.62L505.26,480.67L506.5,488.64L507.12,488.39L507.73,489.07L508.35,490.48L508.97,488.6L510.2,486.52L510.82,483.97L512.05,478.57L512.67,481.58L513.9,485.56L514.52,490.97L516.99,502.03L517.6,500.78L520.69,488.63L521.3,488.77L522.54,484.6L523.16,488.01L525.01,493.47L525.62,494.77L526.24,495.24L526.86,493.59L527.47,494.7L528.09,494.18L529.94,488.56L530.56,487.94L531.18,488.14L531.79,491.43L534.88,503.95L535.49,502.65L536.11,501.95L536.73,502.9L539.81,496.62L540.43,497.74L542.28,505.13L542.9,506.16L543.51,508.89L544.13,507.45L544.75,506.3L545.37,507.11L545.98,506.51L546.6,503.46L548.45,505.5L549.07,503.9L550.3,508.37L550.92,508.37L552.15,511.82L552.77,509.78L557.7,499.35L558.32,500.93L560.17,498.31L560.79,499.99L561.41,499.11L562.02,499.61L563.26,499.94L563.87,498.29L564.49,498.6L565.11,499.82L566.34,497.81L566.96,499.72L567.57,499.77L568.19,500.89L571.89,505.99L572.51,504.96L573.13,504.96L573.74,503.9L574.36,503.95L574.98,502.98L575.59,503.28L576.21,505.38L577.45,503.7L578.06,504.53L579.3,503.52L579.91,502.62L580.53,503.51L581.15,502.15L581.76,500.71L582.38,502.64L583,503.85L583.61,502.66L584.85,503.53L585.47,504.38L586.08,503.4L586.7,504.95L587.32,504.5L587.93,502.48L590.4,501.92L591.02,502.87L591.63,503.13L592.25,502.54L593.49,506.13L594.1,505.14L595.34,506.43L595.95,504.73L596.57,502.23L597.19,502.86L597.8,502.75L598.42,500.5L599.04,501.2L599.65,503.25L600.89,505.12L601.51,507.13L602.12,509.68L602.74,509.29L603.36,509.66L603.97,510.44L604.59,508.14L608.29,498.99L608.91,498.32L610.14,500.18L610.76,501.87L611.99,503.09L612.61,501.9L613.23,502.73L613.84,501.37L616.93,495.47L617.55,495.87L620.01,502.59L620.63,504.71L622.48,507.75L623.1,506.76L624.33,504.1L624.95,500.11L625.57,499.63L626.18,497.52L627.42,496.43L628.03,498.21L629.88,504.06L630.5,505.88L631.12,504.53L631.74,505.38L632.97,504.33L633.59,501.24L635.44,496.92L636.05,498.3L639.14,508.94L639.76,508.8L640.99,509.2L641.61,507.14L642.84,503.37L643.46,500.65L644.69,497.87L645.31,498.52L645.92,498.9L646.54,501.49L649.01,512.01L649.63,512.53L650.24,512.19L650.86,510.94L654.56,496.46L655.18,496.95L655.8,497.6L656.41,499.79L658.26,506.27L658.88,507.05L659.5,506.78L660.11,505.2L663.2,495.9L663.82,495.39L668.13,507.11L668.75,507.85L669.37,509.16L669.98,507.81L671.22,507L671.84,507.29L672.45,506.19L673.07,507.78L675.54,512.28L676.15,512.6L677.39,512.15L678,512.25L681.09,508.92L681.71,509.27L684.17,512.38L684.79,511.54L685.41,512.19L686.02,511.44L686.64,511.63L687.26,510.61L688.49,509.97L689.11,509.23L692.19,508.3L692.81,508.88L693.43,508.7L694.05,509.74L695.9,510.82L696.51,509.54L697.13,509.22L697.75,509.81L701.45,508.48L702.07,509.42L703.92,506.77L704.53,507.6L705.77,506.4L706.38,508.87L707.62,508.58L708.23,510.43L708.85,511.58L709.47,511.13L711.32,509.59L711.94,507.42L714.4,501.92L715.02,502.85L715.64,502.88L716.25,504.48L716.87,506.07L717.49,505.32L719.34,506.43L719.96,505.1L722.42,501.54L723.04,502.98L724.27,504.57L724.89,506.47L726.13,509.61L726.74,509.75L727.98,508.31L728.59,507.52L731.68,500.08L732.29,499.85L732.91,502.14L733.53,501.34L735.38,504.44L736,504.08L737.23,505.44L737.85,504.81L738.46,502.44L739.08,503.76L740.31,501.57L740.93,502L742.78,504.51L743.4,505.68L745.25,507.74L745.87,506.48L746.48,505.66L747.1,503.15L748.33,499.44L748.95,498.22L750.19,497.99L750.8,498.61L754.5,508.57L755.12,508.45L758.21,503.62L758.82,503.88L759.44,502.65L760.06,503L760.67,504.8L763.76,512.12L764.37,511.45L764.99,513.18L765.61,512.3L767.46,510.12L768.08,510.84L769.31,510.31L769.93,511.16L770.54,511.03L771.16,512.12L771.78,513.27L772.4,512.78L773.63,512.73L774.25,514.85L775.48,515.08L776.1,515.2L776.71,515.11L777.33,513.48L777.95,513.72L778.56,514.91L779.18,514.49L779.8,512.8L780.42,513.24L781.03,511.79L785.35,506.82L785.97,506.7L787.2,507.19L787.82,506.74L788.44,505.9L789.05,507.2L789.67,506.93L790.29,507.64L792.75,508.29L793.37,507.58L793.99,507.45L794.6,505.7L795.84,505.28L796.46,506.11L797.69,505.36L798.31,505.04L800.77,506.86L801.39,506.17L803.24,503.47L803.86,503.23L805.09,504.04L805.71,502.86L807.56,502.95L808.18,502.47L810.03,504.64L810.64,505.19L811.26,506.98L811.88,506.65L812.5,506.2L813.73,506.53L814.35,506.07L814.96,505.05L815.58,505.94L816.81,504.29L817.43,505.88L818.66,505.41L819.28,506.2L820.52,508.09L821.13,507.26L822.37,507.38L822.98,506.1L823.6,506.13L824.22,505.26L826.07,505.37L826.68,506.81L827.3,506.42L827.92,507.43L831.62,505.83L832.24,504.92L832.85,506.35L833.47,505.63L834.7,506.16L835.32,507.35L836.56,506.38L837.17,507.95L838.41,508.41L839.02,508.93L840.26,508.53L840.87,507.28L842.11,508.68L842.72,508.34L845.81,511.83L846.43,513.46L848.28,515.4L848.89,514.93L852.6,508.37L853.21,505.97L854.45,504.04L855.06,505.19L855.68,505.8L856.3,507.75L856.91,507.52L857.53,509L861.85,505.27L862.47,506.38L864.32,506.79L864.93,508.79L865.55,508.61L866.17,510.7L866.79,511.62L867.4,511.1L868.02,511.26L868.64,510.55L869.87,509.95L870.49,508.34L871.1,508.39L871.72,505.96L872.95,507.14L873.57,507.21L877.27,511.28L877.89,509.61L878.51,509.22L879.12,507.93L879.74,507.46L880.36,506L883.44,500.54L884.06,501.34L885.29,502.8L885.91,503.33L887.14,504.86L887.76,504.05L888.99,503.64L889.61,502L890.85,501.65L891.46,502.82L892.7,503.46L893.31,505.65L893.93,505.81L894.55,506.89L895.16,507.74L895.78,506.93L896.4,507.41L897.01,506.3L898.25,506.53L898.87,505.74L901.95,507.5L902.57,508.59L905.03,508.39L905.65,507.15L907.5,507L908.12,507.52L910.59,509.35L911.2,510.5L911.82,510.34L912.44,511.23L913.67,512.01L914.29,511.8L916.76,510.35L917.37,510.67L919.22,508.89L919.84,509L922.31,506.97L922.93,506.39L925.39,505.48L926.01,506.38L928.48,509.16L929.09,508.7L930.33,507.69L930.95,507.3L932.18,507.35L932.8,505.73L934.03,504.18L934.65,504.72L935.26,504.84L935.88,506.16L937.12,507.43L937.73,506.42L938.97,506.56L939.58,505.1L941.43,501.21L942.05,501.07L943.28,502.96L943.9,503.97L945.75,508.12L946.37,507.67L946.99,508.16L947.6,507.51L950.07,504.11L950.69,503.53L952.54,506.29L953.16,507.46L954.39,509.6L955.01,508.65L959.32,502.4L959.94,503.27L963.03,511.21L963.64,510.56L964.88,511.8L965.49,510.3L968.58,507.52L969.2,509.44L971.05,510.87L971.66,510.13L973.51,508.75L974.13,507.19L976.6,500.89L977.22,501.24L978.45,503.67L979.07,505.87L981.53,512.98L982.15,513.23L983.38,513.82L984,512.36L985.85,508.45L986.47,507.97L987.09,507.93L987.7,509.17L989.55,511.63L990.17,512.01L992.64,507.47L993.26,505.06L994.49,502.79L995.11,502.63L998.81,512.43L999.42,513.14L1000.66,513.11L1001.28,511.27L1003.13,507.48L1003.74,506.57L1005.59,507.73L1006.21,509.26L1008.06,511.88L1008.68,511.62L1009.3,511.31L1009.91,509.65L1012.38,506.47L1013,506.62L1016.7,513.07L1017.32,511.64L1018.55,509.3L1019.17,507.19L1022.25,497.92L1022.87,497.79L1023.49,498.2L1024.1,500.2L1025.34,502.72L1025.95,502.17L1026.57,503.78L1027.19,502.01L1028.42,500.01L1029.04,499.22L1030.27,497.18L1030.89,498.62L1032.12,500.51L1032.74,503.3L1034.59,507.65L1035.21,508.1L1038.29,506.29L1038.91,505.41L1040.14,504.59L1040.76,505.12L1044.46,509.24L1045.08,509.66L1046.31,509.37L1046.93,509.88L1051.25,511.47L1051.86,510.44L1053.1,509.07L1053.71,507.07L1056.8,502.51L1057.42,503.07L1058.65,502.88L1059.27,504.77L1062.35,509.52L1062.97,508.68L1066.05,505.48L1066.67,506.04L1067.29,505.36L1067.9,506.16L1069.14,507.41L1069.75,508.65L1070.37,508.38L1070.99,509.12L1072.84,506.03L1073.46,504.03L1074.07,504.21L1074.69,502.9L1075.31,502.53L1075.92,503.99L1078.39,505.92L1079.01,506.05L1081.48,502.89L1082.09,500.93L1083.94,504.17L1084.56,506.32L1087.65,513.83L1088.26,513.69L1090.73,507.99L1091.35,505.46L1092.58,502.79L1093.2,502.55L1096.9,508.96L1097.52,507.98L1098.75,505.13L1099.37,503.09L1100.6,501.41L1101.22,501.07L1102.45,503.17L1103.07,505.11L1104.92,509.95L1105.54,509.29L1106.15,508.99L1106.77,507.84L1108.62,501.1L1109.24,498.99L1110.47,496.44L1111.09,497.86L1112.94,505.34L1113.56,508.21L1114.79,510.45L1115.41,510.08L1119.11,500.68L1119.73,500.87L1120.96,504L1121.58,506.93L1122.81,508.95L1123.43,509.07L1124.04,508.74L1124.66,507.51L1128.36,499.26L1128.98,500.51L1132.06,510.83L1132.68,511.65L1134.53,509.82L1135.15,515.1L1137,532" style="vector-effect: none; fill: none; stroke: rgb(99, 110, 250); stroke-opacity: 1; stroke-width: 2px; opacity: 1;"/></g><g class="points"/><g class="text"/></g></g></g></g><g class="zerolinelayer-above"/><path class="xlines-above crisp" d="M0,0" style="fill: none;"/><path class="ylines-above crisp" d="M0,0" style="fill: none;"/><g class="overlines-above"/><g class="xaxislayer-above"><g class="xtick"><text text-anchor="middle" x="0" y="661" transform="translate(229.22,0)" style="font-family: 'Open Sans', verdana, arial, sans-serif; font-size: 20px; fill: rgb(42, 63, 95); fill-opacity: 1; white-space: pre;">10</text></g><g class="xtick"><text text-anchor="middle" x="0" y="661" style="font-family: 'Open Sans', verdana, arial, sans-serif; font-size: 20px; fill: rgb(42, 63, 95); fill-opacity: 1; white-space: pre;" transform="translate(355.57,0)">15</text></g><g class="xtick"><text text-anchor="middle" x="0" y="661" style="font-family: 'Open Sans', verdana, arial, sans-serif; font-size: 20px; fill: rgb(42, 63, 95); fill-opacity: 1; white-space: pre;" transform="translate(481.92,0)">20</text></g><g class="xtick"><text text-anchor="middle" x="0" y="661" style="font-family: 'Open Sans', verdana, arial, sans-serif; font-size: 20px; fill: rgb(42, 63, 95); fill-opacity: 1; white-space: pre;" transform="translate(608.26,0)">25</text></g><g class="xtick"><text text-anchor="middle" x="0" y="661" style="font-family: 'Open Sans', verdana, arial, sans-serif; font-size: 20px; fill: rgb(42, 63, 95); fill-opacity: 1; white-space: pre;" transform="translate(734.61,0)">30</text></g><g class="xtick"><text text-anchor="middle" x="0" y="661" style="font-family: 'Open Sans', verdana, arial, sans-serif; font-size: 20px; fill: rgb(42, 63, 95); fill-opacity: 1; white-space: pre;" transform="translate(860.96,0)">35</text></g><g class="xtick"><text text-anchor="middle" x="0" y="661" style="font-family: 'Open Sans', verdana, arial, sans-serif; font-size: 20px; fill: rgb(42, 63, 95); fill-opacity: 1; white-space: pre;" transform="translate(987.31,0)">40</text></g><g class="xtick"><text text-anchor="middle" x="0" y="661" style="font-family: 'Open Sans', verdana, arial, sans-serif; font-size: 20px; fill: rgb(42, 63, 95); fill-opacity: 1; white-space: pre;" transform="translate(1113.65,0)">45</text></g><g class="xtick"><text text-anchor="middle" x="0" y="661" style="font-family: 'Open Sans', verdana, arial, sans-serif; font-size: 20px; fill: rgb(42, 63, 95); fill-opacity: 1; white-space: pre;" transform="translate(1240,0)">50</text></g></g><g class="yaxislayer-above"><g class="ytick"><text text-anchor="end" x="102" y="7" transform="translate(0,568.03)" style="font-family: 'Open Sans', verdana, arial, sans-serif; font-size: 20px; fill: rgb(42, 63, 95); fill-opacity: 1; white-space: pre;">0.001</text></g><g class="ytick"><text text-anchor="end" x="102" y="7" style="font-family: 'Open Sans', verdana, arial, sans-serif; font-size: 20px; fill: rgb(42, 63, 95); fill-opacity: 1; white-space: pre;" transform="translate(0,490.45)">0.002</text></g><g class="ytick"><text text-anchor="end" x="102" y="7" style="font-family: 'Open Sans', verdana, arial, sans-serif; font-size: 20px; fill: rgb(42, 63, 95); fill-opacity: 1; white-space: pre;" transform="translate(0,412.87)">0.003</text></g><g class="ytick"><text text-anchor="end" x="102" y="7" style="font-family: 'Open Sans', verdana, arial, sans-serif; font-size: 20px; fill: rgb(42, 63, 95); fill-opacity: 1; white-space: pre;" transform="translate(0,335.28999999999996)">0.004</text></g><g class="ytick"><text text-anchor="end" x="102" y="7" style="font-family: 'Open Sans', verdana, arial, sans-serif; font-size: 20px; fill: rgb(42, 63, 95); fill-opacity: 1; white-space: pre;" transform="translate(0,257.71000000000004)">0.005</text></g><g class="ytick"><text text-anchor="end" x="102" y="7" style="font-family: 'Open Sans', verdana, arial, sans-serif; font-size: 20px; fill: rgb(42, 63, 95); fill-opacity: 1; white-space: pre;" transform="translate(0,180.13)">0.006</text></g><g class="ytick"><text text-anchor="end" x="102" y="7" style="font-family: 'Open Sans', verdana, arial, sans-serif; font-size: 20px; fill: rgb(42, 63, 95); fill-opacity: 1; white-space: pre;" transform="translate(0,102.55)">0.007</text></g></g><g class="overaxes-above"/></g></g><g class="polarlayer"/><g class="smithlayer"/><g class="ternarylayer"/><g class="geolayer"/><g class="funnelarealayer"/><g class="pielayer"/><g class="iciclelayer"/><g class="treemaplayer"/><g class="sunburstlayer"/><g class="glimages"/><defs id="topdefs-7fd6c7"><g class="clips"/></defs><g class="layer-above"><g class="imagelayer"/><g class="shapelayer"/></g><g class="infolayer"><g class="g-gtitle"><text class="gtitle" x="64" y="40" text-anchor="start" dy="0em" style="opacity: 1; font-family: 'Open Sans', verdana, arial, sans-serif; font-size: 28px; fill: rgb(42, 63, 95); fill-opacity: 1; white-space: pre;">Average vibration spectrum</text></g><g class="g-xtitle"><text class="xtitle" x="671.5" y="696.3" text-anchor="middle" style="opacity: 1; font-family: 'Open Sans', verdana, arial, sans-serif; font-size: 24px; fill: rgb(42, 63, 95); fill-opacity: 1; white-space: pre;">Frequency (Hz)</text></g><g class="g-ytitle" transform="translate(3.041015625,0)"><text class="ytitle" transform="rotate(-90,20.959374999999994,360)" x="20.959374999999994" y="360" text-anchor="middle" style="opacity: 1; font-family: 'Open Sans', verdana, arial, sans-serif; font-size: 24px; fill: rgb(42, 63, 95); fill-opacity: 1; white-space: pre;">Amplitude (a.u.)</text></g></g></svg>