<svg class="main-svg" xmlns="http://www.w3.org/2000/svg" xmlns:xlink="http://www.w3.org/1999/xlink" width="1280" height="720" style="" viewBox="0 0 1280 720"><rect x="0" y="0" width="1280" height="720" style="fill: rgb(255, 255, 255); fill-opacity: 1;"/><defs id="defs-52d02d"><g class="clips"><clipPath id="clip52d02dxyplot" class="plotclip"><rect width="1137" height="560"/></clipPath><clipPath class="axesclip" id="clip52d02dx"><rect x="103" y="0" width="1137" height="720"/></clipPath><clipPath class="axesclip" id="clip52d02dy"><rect x="0" y="80" width="1280" height="560"/></clipPath><clipPath class="axesclip" id="clip52d02dxy"><rect x="103" y="80" width="1137" height="560"/></clipPath></g><g class="gradients"/><g class="patterns"/></defs><g class="bglayer"/><g class="layer-below"><g class="imagelayer"/><g class="shapelayer"/></g><g class="cartesianlayer"><g class="subplot xy"><g class="layer-subplot"><g class="shapelayer"/><g class="imagelayer"/></g><g class="minor-gridlayer"><g class="x"/><g class="y"/></g><g class="gridlayer"><g class="x"><path class="xgrid crisp" transform="translate(229.22,0)" d="M0,80v560" style="stroke: rgb(235, 240, 248); stroke-opacity: 1; stroke-width: 1px;"/><path class="xgrid crisp" transform="translate(355.57,0)" d="M0,80v560" style="stroke: rgb(235, 240, 248); stroke-opacity: 1; stroke-width: 1px;"/><path class="xgrid crisp" transform="translate(481.92,0)" d="M0,80v560" style="stroke: rgb(235, 240, 248); stroke-opacity: 1; stroke-width: 1px;"/><path class="xgrid crisp" transform="translate(608.26,0)" d="M0,80v560" style="stroke: rgb(235, 240, 248); stroke-opacity: 1; stroke-width: 1px;"/><path class="xgrid crisp" transform="translate(734.61,0)" d="M0,80v560" style="stroke: rgb(235, 240, 248); stroke-opacity: 1; stroke-width: 1px;"/><path class="xgrid crisp" transform="translate(860.96,0)" d="M0,80v560" style="stroke: rgb(235, 240, 248); stroke-opacity: 1; stroke-width: 1px;"/><path class="xgrid crisp" transform="translate(987.31,0)" d="M0,80v560" style="stroke: rgb(235, 240, 248); stroke-opacity: 1; stroke-width: 1px;"/><path class="xgrid crisp" transform="translate(1113.65,0)" d="M0,80v560" style="stroke: rgb(235, 240, 248); stroke-opacity: 1; stroke-width: 1px;"/></g><g class="y"><path class="ygrid crisp" transform="translate(0,535.6800000000001)" d="M103,0h1137" style="stroke: rgb(235, 240, 248); stroke-opacity: 1; stroke-width: 1px;"/><path class="ygrid crisp" transform="translate(0,425.59)" d="M103,0h1137" style="stroke: rgb(235, 240, 248); stroke-opacity: 1; stroke-width: 1px;"/><path class="ygrid crisp" transform="translate(0,315.5)" d="M103,0h1137" style="stroke: rgb(235, 240, 248); stroke-opacity: 1; stroke-width: 1px;"/><path class="ygrid crisp" transform="translate(0,205.41)" d="M103,0h1137" style="stroke: rgb(235, 240, 248); stroke-opacity: 1; stroke-width: 1px;"/><path class="ygrid crisp" transform="translate(0,95.32)" d="M103,0h1137" style="stroke: rgb(235, 240, 248); stroke-opacity: 1; stroke-width: 1px;"/></g></g><g class="zerolinelayer"/><g class="layer-between"><g class="shapelayer"/><g class="imagelayer"/></g><path class="xlines-below"/><path class="ylines-below"/><g class="overlines-below"/><g class="xaxislayer-below"/><g class="yaxislayer-below"/><g class="overaxes-below"/><g class="overplot"><g class="xy" transform="translate(103,80)" clip-path="url(#clip52d02dxyplot)"><g class="scatterlayer mlayer"><g class="trace scatter trace882d45" style="stroke-miterlimit: 2; opacity: 1;"><g class="fills"/><g class="errorbars"/><g class="lines"><path class="js-line" d="M0,293.32L2.47,72.23L3.08,74.22L3.7,74.68L4.32,73.74L4.94,69.71L5.55,77.51L6.17,76.83L6.79,74.55L7.4,74.11L8.02,67.51L11.1,45.51L11.72,45.37L12.34,41.77L12.96,45.17L13.57,47.08L14.19,44.69L15.42,44.79L16.04,40.74L16.66,35.31L17.27,36.85L18.51,30.05L19.12,30.33L19.74,28L20.36,33.5L20.98,32.28L25.29,68.64L25.91,65.12L27.14,75.89L27.76,75.39L28.38,74.29L29,82.69L29.61,82.9L30.23,75.83L31.46,88.5L32.08,85.98L32.7,83.25L33.31,86.2L33.93,86.52L34.55,76.35L35.78,86.08L36.4,77.46L37.02,79.29L37.63,84.69L40.1,101.62L40.72,100.52L42.57,113.49L43.19,111.53L43.8,115.03L44.42,123.22L45.04,123.91L45.65,134.58L46.89,147.69L47.5,154.01L48.12,158.03L48.74,168.87L49.97,174.93L50.59,183.2L51.82,187.59L52.44,187.11L53.06,195.38L53.67,191.74L54.29,191.77L54.91,201.14L56.14,207.44L56.76,208.85L57.99,223.4L58.61,219.72L59.84,233.31L60.46,226.72L61.08,221.77L61.69,224.4L62.31,222.9L62.93,217.81L64.16,232.12L64.78,231.24L66.63,248.83L67.25,247.61L68.48,258.76L69.1,257.91L70.33,267.54L70.95,271.33L71.56,267.56L72.18,270.7L72.8,277.17L73.41,275.85L74.03,279.09L75.27,294.6L75.88,291.8L77.12,302.66L77.73,298.51L78.35,294.81L78.97,300.02L79.58,297.83L80.2,289.89L80.82,289.49L81.43,293.5L82.67,286.69L83.29,290.34L83.9,290.91L84.52,285.4L89.45,258.25L90.07,260.24L90.69,263.56L91.31,260.53L92.54,268.5L93.16,266.65L93.77,265.82L94.39,272.28L95.01,274.73L95.62,267.39L96.86,269.72L97.47,262.39L98.09,260.45L98.71,268.64L99.33,268.35L99.94,261.9L101.18,274.56L101.79,271.47L103.03,282.27L103.64,279.1L104.26,271.62L104.88,275.08L105.49,277.95L106.11,273.85L106.73,271.36L107.35,273.55L109.2,267.3L109.81,269.55L111.05,266.53L111.66,268.07L112.28,272.12L112.9,270.36L113.51,267.08L114.13,269.62L114.75,271.1L115.37,267.73L115.98,269.09L116.6,274.48L117.83,268.11L118.45,276.58L119.07,279.95L119.68,276.9L120.92,288.97L121.53,287.29L122.15,286.25L122.77,297.85L123.39,300.58L124,296.07L125.24,309.57L125.85,307.88L126.47,308.56L127.09,315.93L127.7,315.95L128.32,310.87L129.56,317.99L130.17,317.62L130.79,318.21L131.41,321.2L132.64,322.43L133.26,326.88L134.49,330.81L135.11,330.54L135.72,330.94L136.34,333.8L136.96,332.86L137.58,333.69L138.81,335.41L139.43,333.86L140.04,334.62L140.66,338.21L141.89,333.55L142.51,340.26L143.74,342.54L144.36,348.21L144.98,353.38L145.6,349.13L146.21,348.05L146.83,356.1L147.45,355.83L148.06,353.23L149.3,361.07L149.91,359.01L150.53,361.92L151.15,370.96L151.76,371.39L152.38,369.91L153.62,376.08L154.23,376.73L154.85,375.64L155.47,378.37L156.7,374.06L157.32,376.03L158.55,379.81L159.17,377.35L159.78,378.13L160.4,380.3L161.02,377.24L161.64,378.28L162.25,381.13L162.87,380.21L163.49,375.46L164.1,375.97L164.72,378.12L165.95,371.82L166.57,373.91L167.8,367.88L168.42,371.56L169.04,373.3L169.66,368.9L170.89,372.64L171.51,369.82L172.74,370.65L173.36,369.48L173.97,366.64L174.59,367.33L175.21,368.78L175.82,367.32L178.91,362.86L179.53,363.15L181.38,357.35L181.99,358.1L182.61,357.72L183.23,355.06L184.46,356.12L185.08,352.63L185.7,353.6L186.31,355.98L186.93,354.61L187.55,351.17L188.78,353.9L189.4,349.51L190.63,353.45L191.25,350.56L191.86,350.08L192.48,352.62L193.1,352.57L193.72,350.45L194.95,353.85L195.57,352.66L196.8,354.95L197.42,353.67L198.65,352.35L199.27,352.71L199.88,351.98L200.5,353.26L201.74,353.94L202.35,356.11L204.2,359.01L204.82,358.35L205.44,357.65L206.05,358.53L206.67,359.32L207.29,358.48L208.52,360.58L209.14,359.86L211.61,368.55L212.22,372.74L215.31,383.38L215.93,384.85L216.54,386.41L217.16,385.77L217.78,385.45L218.39,388.55L219.01,387.91L219.63,388.39L220.86,394.12L221.48,393.41L222.71,396.99L223.33,395.74L223.95,395.07L224.56,397.76L225.8,396.76L226.41,397.59L227.65,399.53L228.26,399.49L228.88,400.21L229.5,398.53L231.35,399.16L231.97,400.41L232.58,399.53L233.2,400.51L235.67,405.42L236.28,408.06L236.9,407.7L237.52,411.39L238.75,415.84L239.37,416.33L240.6,417.82L241.22,415.03L242.45,416.66L243.07,414L244.92,418.85L245.54,418.18L246.15,419.02L246.77,421.63L247.39,420.38L248.01,421.6L248.62,422.21L249.24,420.27L254.79,402.4L255.41,404.34L256.03,404.32L256.64,401.8L257.88,403.64L258.49,402.94L259.11,401.54L259.73,404.18L260.34,402.95L260.96,398.66L262.19,403.56L262.81,402.67L263.43,402.98L264.05,404.99L264.66,404.95L265.28,402.49L266.51,408.11L267.13,406.3L267.75,406.61L268.36,407.91L268.98,408.36L269.6,406.89L270.83,408.04L271.45,406.85L273.3,406.19L273.92,403.83L274.53,400.91L275.15,401.9L275.77,400.88L276.38,397.93L278.85,389.94L279.47,392.26L280.09,392.53L280.7,389.85L281.32,390.25L281.94,391.82L283.17,387.91L283.79,390.5L285.02,386.29L285.64,388.12L286.26,389.44L286.87,387.91L287.49,386.85L288.11,389.48L289.34,388.92L289.96,393.14L290.57,395.02L291.19,394.8L291.81,394.8L293.04,397.65L293.66,397.8L294.89,401.48L295.51,401.15L296.13,400.32L296.74,401.46L297.36,402.59L297.98,401.23L299.21,402.61L299.83,403.13L300.44,400.97L301.06,401.7L301.68,403.25L302.3,400.96L302.91,400.87L303.53,403.74L304.15,404.23L304.76,402.86L306,406.42L306.61,404.74L307.23,405.76L307.85,409.23L308.46,408.81L309.08,406.73L310.32,410.83L310.93,409.7L314.02,418.7L314.63,422.35L315.87,424.63L316.48,428.41L319.57,436.18L320.19,435.05L322.04,438.24L322.65,439.03L323.89,443.73L324.5,442.23L325.74,446.78L326.36,445.16L326.97,445.62L327.59,447.75L328.21,447.58L328.82,444.99L330.06,447.11L330.67,444.52L331.91,447.59L332.52,446.7L333.76,445.59L334.38,445.51L334.99,443.66L335.61,444.02L336.23,444.96L338.08,442.04L338.69,442.83L342.4,438.89L343.01,440.43L343.63,439.1L344.25,435.39L345.48,434.72L346.1,432.24L346.71,431.24L347.33,432.78L348.56,428.42L349.18,430.92L349.8,431.68L350.42,429.51L351.65,431.06L352.27,429.25L352.88,426.65L353.5,427.88L355.35,423.87L355.97,423.93L357.2,421.08L357.82,421.39L358.44,421.53L359.05,420.92L359.67,421.63L360.9,421.08L361.52,419.73L362.75,418.94L363.37,418.57L364.6,416.98L365.22,417.57L366.46,415.41L367.07,417.55L367.69,417.72L368.31,417.03L369.54,419.78L370.16,418.69L370.77,418.22L371.39,420.73L372.63,417.9L373.24,419.78L374.48,420L375.09,420.31L375.71,422.37L376.33,421.65L376.94,421.33L377.56,423.76L381.26,427.65L381.88,430.63L383.11,432.17L383.73,433.13L384.35,433.34L384.96,434.79L386.2,435.12L386.81,436.63L387.43,436.59L388.05,437.6L388.67,437.46L389.28,438.94L390.52,438.29L391.13,440.43L392.37,440.88L392.98,442.89L394.22,444.96L394.83,446.12L395.45,449.15L396.07,448.85L396.69,448.66L397.92,450.31L398.54,449.65L399.15,450.57L399.77,453.03L400.39,453.07L401,454.1L402.85,458.02L403.47,459.21L407.79,467.39L408.41,467.79L411.49,469.04L412.11,468.45L413.34,469.65L413.96,468.14L415.19,468.6L415.81,467.52L416.43,467.2L417.04,468.1L418.28,465.75L418.89,467.28L419.51,467.03L420.13,465.64L421.36,464.05L421.98,462.38L422.6,460.41L423.21,460.64L423.83,459.24L425.68,456.1L426.3,455.78L427.53,455.92L428.15,455.02L430,453.5L430.62,453.96L431.23,454.47L431.85,453.28L436.17,449.04L436.79,450L438.02,448.11L438.64,449.41L440.49,446.75L441.1,446.77L442.34,443.38L442.95,444.49L444.19,441.97L444.81,442.96L446.66,440.24L447.27,441.48L448.51,439.99L449.12,441.43L450.36,439.4L450.98,440.12L451.59,440.98L452.21,439.58L452.83,439.36L453.44,440.99L454.06,440.1L454.68,440.61L455.91,442.52L456.53,442.8L457.14,442.96L457.76,445.26L460.85,449.35L461.46,448.99L462.7,451.98L463.31,451.62L463.93,452.03L465.16,454.03L465.78,452.41L467.02,455.03L467.63,454L468.25,454.55L468.87,457.29L469.48,457.35L470.1,456.44L471.33,459.37L471.95,457.79L473.8,459.93L474.42,458.98L475.65,463.06L476.27,462.47L479.35,469.54L479.97,470.89L480.59,470.76L481.2,472.2L483.06,476.88L483.67,477.72L484.91,480.79L485.52,481.7L486.76,486.15L487.37,485.9L487.99,486.15L488.61,488.63L489.22,488.65L489.84,487.26L491.08,489.63L491.69,487.85L492.31,487.81L492.93,489.35L494.16,486.2L494.78,487.86L495.39,487.86L496.01,486.63L497.24,486.65L497.86,484.97L498.48,482.65L499.1,483.42L500.33,481.52L500.95,480.29L503.41,475.63L504.03,475.62L505.26,472.29L505.88,472.61L506.5,473.4L507.12,471.21L507.73,470.44L508.35,471.71L509.58,469.09L510.2,470.92L510.82,470.63L511.43,467.75L512.05,466.66L512.67,468.02L513.9,464.85L514.52,466.52L516.37,463.33L516.99,464.42L518.22,461.9L518.84,463.14L521.3,461.84L521.92,460.74L522.54,459.28L523.16,459.73L523.77,459.83L525.62,457.43L526.24,458.38L526.86,457.63L527.47,458.97L528.09,460.32L528.71,459.88L529.33,458.83L530.56,461.93L531.18,460.59L531.79,461L532.41,463.01L533.64,461.18L534.26,462.89L534.88,463.21L535.49,460.64L536.11,460.96L536.73,463.25L537.35,462.88L537.96,463.76L539.2,467.17L539.81,466.28L541.05,470.02L541.66,469.73L542.28,469.77L543.51,471.23L544.13,470.75L545.98,473.1L546.6,473.31L548.45,477.27L549.07,476.97L552.15,483.28L552.77,482.73L553.39,481.47L554,483.11L554.62,484.43L555.24,483.2L556.47,486.24L557.09,485.01L557.7,484.68L558.32,487.34L558.94,488.14L559.55,486.17L560.79,489.26L561.41,488.17L562.02,488.56L562.64,490.83L563.26,491.03L563.87,490.17L565.11,492.49L565.72,491.85L566.34,491.51L566.96,492.98L568.81,494.04L569.43,495.24L570.04,495.69L570.66,495.01L571.89,496.8L572.51,495.76L573.13,495.32L573.74,496.7L574.98,495.05L575.59,495.89L576.21,496.54L576.83,494.54L577.45,493.18L578.06,494.36L579.3,492.15L579.91,493.53L580.53,493.48L581.15,491.06L582.38,490.93L583,489.21L585.47,484.1L586.08,483.87L586.7,484.14L587.32,483.05L588.55,482.4L589.17,482.35L595.34,478.04L595.95,478.46L596.57,477.28L597.19,477.64L597.8,478.71L599.04,478.15L599.65,479.15L600.27,480.06L600.89,478.38L601.51,478.4L602.12,479.31L603.36,476.84L603.97,477.12L605.82,474.6L606.44,475.23L607.67,473.94L608.29,474.53L611.38,473.75L611.99,473.72L613.84,472.68L614.46,472.54L616.31,473.54L616.93,473.95L620.01,476.91L620.63,476.73L622.48,478.63L623.1,478.23L624.33,480.12L624.95,479.41L626.18,482.56L626.8,482.58L628.65,484.88L629.27,483.84L630.5,484.34L631.12,483.36L632.35,484.49L632.97,484.03L635.44,485.23L636.05,486.2L637.29,486.66L637.9,488.04L639.76,489.14L640.37,490.02L641.61,491.3L642.22,492.29L642.84,492.2L643.46,493.39L646.54,497.78L647.16,498.19L648.39,499.56L649.01,499.51L651.48,501.02L652.09,500.73L653.33,499.77L653.94,500.08L655.18,499.23L655.8,499.21L657.03,497.55L657.65,497.3L660.11,493.97L660.73,492.36L664.43,488.32L665.05,487.91L668.75,486.35L669.37,487.07L670.6,485.92L671.22,486.19L672.45,485.15L673.07,485.81L674.92,485.51L675.54,486.38L676.77,485.45L677.39,486.29L678.62,485.31L679.24,486.01L680.47,484.88L681.09,483.9L684.17,483.16L684.79,482.66L690.34,480.58L690.96,481.12L692.81,480.91L693.43,481.57L694.66,481.53L695.28,482.98L695.9,483.23L696.51,482.58L697.75,483.87L698.36,483.44L700.83,484.76L701.45,486.31L703.92,487.58L704.53,487.68L707,487.13L707.62,487.09L710.09,485.9L710.7,486.79L711.94,487.06L712.55,487.17L713.79,487.51L714.4,486.74L715.64,487.92L716.25,486.89L717.49,488.18L718.11,487.53L718.72,487.43L719.34,488.83L720.57,487.59L721.19,488.58L721.81,489L722.42,488.29L724.89,488.2L725.51,489.38L726.74,489.78L727.36,489.62L728.59,489.33L729.21,489.31L731.06,490.16L731.68,489.29L734.15,487.17L734.76,487.86L736.61,486.56L737.23,487.23L738.46,486.01L739.08,487.39L740.31,485.92L740.93,487.01L741.55,487.1L742.17,485.81L743.4,487.83L744.02,486.95L744.63,486.46L745.25,487.16L747.1,485.97L747.72,486.36L748.95,485.36L749.57,485.46L750.8,485.51L751.42,484.95L752.65,485.04L753.27,484.99L755.12,485.67L755.74,484.11L756.35,483.86L756.97,484.55L758.21,483.67L758.82,484.52L760.06,482.15L760.67,483.34L761.29,483.8L761.91,482.91L763.14,485L763.76,484.49L764.37,484.14L764.99,485.59L765.61,485.21L766.23,483.93L767.46,485.72L768.08,485.06L769.31,485.01L769.93,484.08L770.54,483.68L771.16,484.76L773.01,485.18L773.63,484.76L775.48,485.02L776.1,484.75L776.71,485.05L777.33,484.28L777.95,483.59L778.56,484.53L779.18,484.26L779.8,482.87L781.03,483.71L781.65,482.86L782.27,482.57L782.88,484.04L784.12,481.85L784.73,483.37L785.35,483.51L785.97,482.5L787.2,483.78L787.82,482.5L788.44,481.92L789.05,483.86L790.29,483.14L790.9,483.94L792.14,483.87L792.75,483.91L793.99,484.44L794.6,484.13L796.46,485.25L797.07,484.56L798.31,484.22L798.92,484.31L800.77,485.55L801.39,484.08L802.01,483.17L802.62,484.57L803.86,483.23L804.48,484.17L805.09,484.36L805.71,483.09L806.33,483.12L806.94,484.71L808.18,482.89L808.79,484.24L810.64,484.42L811.26,485.43L812.5,484.83L813.11,486.22L814.35,486.07L814.96,486.58L817.43,487.86L818.05,487.72L820.52,489.96L821.13,489.32L824.83,490.49L825.45,488.87L826.07,488.29L826.68,489.38L827.92,487.74L828.54,488.41L830.39,486.52L831,487.71L832.24,486.29L832.85,487.48L834.09,485.79L834.7,486.21L835.32,486.49L835.94,485.4L836.56,485.42L837.17,486.33L838.41,486.38L839.02,486.55L843.96,488.92L844.58,489.77L845.81,488.55L846.43,489.06L848.89,488.4L849.51,486.61L850.74,487.36L851.36,486.55L853.21,485.78L853.83,484.82L855.06,485.51L855.68,484.12L856.91,484.51L857.53,483.89L860,482.18L860.62,482.59L861.85,482.16L862.47,483L864.93,483.8L865.55,483.31L866.79,484.21L867.4,483.6L869.25,484.47L869.87,484.39L871.72,483.09L872.34,483.95L874.19,482.92L874.81,482.93L876.66,483.71L877.27,482.76L877.89,481.8L878.51,482.98L879.74,482.57L880.36,482.54L882.21,481.61L882.83,482.28L884.06,481.43L884.68,482.19L885.91,481.68L886.53,482.29L888.99,484.73L889.61,484.1L890.85,485.37L891.46,485.54L896.4,488.84L897.01,488.51L900.72,491.17L901.33,490.21L902.57,491.1L903.18,490.5L905.03,491.94L905.65,491.55L906.89,493.26L907.5,492.31L908.74,493.23L909.35,492.65L911.2,493.38L911.82,492.84L913.05,493.44L913.67,493.37L914.91,493.18L915.52,492.91L916.76,493.34L917.37,493.27L918.61,493.11L919.22,492.05L920.46,491.82L921.07,491.1L922.93,489.54L923.54,489.16L924.16,489.58L924.78,488.79L925.39,488.14L926.01,488.95L927.24,488.49L927.86,488.82L928.48,488.66L929.09,487.33L929.71,486.92L930.33,487.74L931.56,487.11L932.18,487.76L934.03,485.69L934.65,486.27L935.88,485.35L936.5,485.57L937.73,484.18L938.35,484.4L944.52,480.58L945.14,480.75L946.37,480.39L946.99,479.63L948.84,478.87L949.45,479.29L951.3,478.91L951.92,479.76L953.77,479.33L954.39,480L955.01,479.62L955.62,480.23L960.56,483.73L961.18,483.58L963.03,486.01L963.64,486.43L964.88,486.76L965.49,486.78L966.73,487.99L967.34,487.94L970.43,490.86L971.05,490.49L975.98,493.09L976.6,493.7L979.07,494.7L979.68,495.34L982.77,498L983.38,498.85L984,499.39L984.62,498.83L987.09,498.75L987.7,499.39L989.55,498.77L990.17,498.94L991.4,498.78L992.02,498.5L993.87,497.77L994.49,497.81L997.57,494.77L998.19,494.1L1003.74,492.09L1004.36,491.25L1010.53,489.05L1011.15,489.41L1011.76,489.97L1012.38,489.03L1013,488.44L1013.61,488.94L1014.85,487.53L1015.47,487.56L1016.7,485.5L1017.32,484.33L1019.17,483.81L1019.78,484.27L1023.49,481.69L1024.1,481.79L1026.57,481.83L1027.19,482.3L1028.42,481.98L1029.04,482.96L1030.89,483.69L1031.51,484.96L1032.12,484.52L1032.74,485.11L1033.97,486.58L1034.59,486.15L1037.06,487.85L1037.67,489.38L1041.38,491.08L1041.99,491.85L1045.69,491.99L1046.31,492.75L1050.01,492.97L1050.63,493.57L1051.86,494.4L1052.48,494.54L1053.71,494.87L1054.33,494.36L1055.57,495.07L1056.18,495.2L1058.03,496.75L1058.65,496.53L1059.88,497.14L1060.5,497.13L1061.73,498.52L1062.35,498.14L1064.82,496.92L1065.44,497.59L1068.52,496.33L1069.14,496.52L1071.61,496.52L1072.22,496.09L1072.84,496.34L1073.46,495.64L1075.92,494.36L1076.54,494.37L1077.16,494.39L1077.77,493.54L1078.39,493.38L1079.01,494.28L1080.24,493.03L1080.86,493.55L1081.48,493.69L1082.09,492.85L1083.33,494.22L1083.94,493.49L1084.56,493.32L1085.18,494.16L1088.26,492.23L1088.88,493.09L1090.11,493.32L1090.73,493L1091.96,491.98L1092.58,491.67L1093.81,491.37L1094.43,490.98L1095.67,490.38L1096.28,489.87L1097.52,489.38L1098.13,488.82L1099.37,488.63L1099.98,488.01L1101.84,487.79L1102.45,487.85L1103.69,488.42L1104.3,488.26L1105.54,489.27L1106.15,488.92L1107.39,491.53L1108,491.22L1109.86,492.86L1110.47,493.03L1111.71,494.23L1112.32,493.78L1114.17,495.19L1114.79,495.75L1118.49,494.76L1119.11,495.49L1120.34,496.07L1120.96,497.11L1124.04,498.55L1124.66,498.74L1128.98,500.65L1129.6,500.54L1130.21,500.8L1130.83,502.22L1133.3,503.99L1133.92,503.69L1134.53,504.4L1135.15,511.85L1137,532" style="vector-effect: none; fill: none; stroke: rgb(99, 110, 250); stroke-opacity: 1; stroke-width: 2px; opacity: 1;"/></g><g class="points"/><g class="text"/></g></g></g></g><g class="zerolinelayer-above"/><path class="xlines-above crisp" d="M0,0" style="fill: none;"/><path class="ylines-above crisp" d="M0,0" style="fill: none;"/><g class="overlines-above"/><g class="xaxislayer-above"><g class="xtick"><text text-anchor="middle" x="0" y="661" transform="translate(229.22,0)" style="font-family: 'Open Sans', verdana, arial, sans-serif; font-size: 20px; fill: rgb(42, 63, 95); fill-opacity: 1; white-space: pre;">10</text></g><g class="xtick"><text text-anchor="middle" x="0" y="661" style="font-family: 'Open Sans', verdana, arial, sans-serif; font-size: 20px; fill: rgb(42, 63, 95); fill-opacity: 1; white-space: pre;" transform="translate(355.57,0)">15</text></g><g class="xtick"><text text-anchor="middle" x="0" y="661" style="font-family: 'Open Sans', verdana, arial, sans-serif; font-size: 20px; fill: rgb(42, 63, 95); fill-opacity: 1; white-space: pre;" transform="translate(481.92,0)">20</text></g><g class="xtick"><text text-anchor="middle" x="0" y="661" style="font-family: 'Open Sans', verdana, arial, sans-serif; font-size: 20px; fill: rgb(42, 63, 95); fill-opacity: 1; white-space: pre;" transform="translate(608.26,0)">25</text></g><g class="xtick"><text text-anchor="middle" x="0" y="661" style="font-family: 'Open Sans', verdana, arial, sans-serif; font-size: 20px; fill: rgb(42, 63, 95); fill-opacity: 1; white-space: pre;" transform="translate(734.61,0)">30</text></g><g class="xtick"><text text-anchor="middle" x="0" y="661" style="font-family: 'Open Sans', verdana, arial, sans-serif; font-size: 20px; fill: rgb(42, 63, 95); fill-opacity: 1; white-space: pre;" transform="translate(860.96,0)">35</text></g><g class="xtick"><text text-anchor="middle" x="0" y="661" style="font-family: 'Open Sans', verdana, arial, sans-serif; font-size: 20px; fill: rgb(42, 63, 95); fill-opacity: 1; white-space: pre;" transform="translate(987.31,0)">40</text></g><g class="xtick"><text text-anchor="middle" x="0" y="661" style="font-family: 'Open Sans', verdana, arial, sans-serif; font-size: 20px; fill: rgb(42, 63, 95); fill-opacity: 1; white-space: pre;" transform="translate(1113.65,0)">45</text></g><g class="xtick"><text text-anchor="middle" x="0" y="661" style="font-family: 'Open Sans', verdana, arial, sans-serif; font-size: 20px; fill: rgb(42, 63, 95); fill-opacity: 1; white-space: pre;" transform="translate(1240,0)">50</text></g></g><g class="yaxislayer-above"><g class="ytick"><text text-anchor="end" x="102" y="7" transform="translate(0,535.6800000000001)" style="font-family: 'Open Sans', verdana, arial, sans-serif; font-size: 20px; fill: rgb(42, 63, 95); fill-opacity: 1; white-space: pre;">0.001</text></g><g class="ytick"><text text-anchor="end" x="102" y="7" style="font-family: 'Open Sans', verdana, arial, sans-serif; font-size: 20px; fill: rgb(42, 63, 95); fill-opacity: 1; white-space: pre;" transform="translate(0,425.59)">0.002</text></g><g class="ytick"><text text-anchor="end" x="102" y="7" style="font-family: 'Open Sans', verdana, arial, sans-serif; font-size: 20px; fill: rgb(42, 63, 95); fill-opacity: 1; white-space: pre;" transform="translate(0,315.5)">0.003</text></g><g class="ytick"><text text-anchor="end" x="102" y="7" style="font-family: 'Open Sans', verdana, arial, sans-serif; font-size: 20px; fill: rgb(42, 63, 95); fill-opacity: 1; white-space: pre;" transform="translate(0,205.41)">0.004</text></g><g class="ytick"><text text-anchor="end" x="102" y="7" style="font-family: 'Open Sans', verdana, arial, sans-serif; font-size: 20px; fill: rgb(42, 63, 95); fill-opacity: 1; white-space: pre;" transform="translate(0,95.32)">0.005</text></g></g><g class="overaxes-above"/></g></g><g class="polarlayer"/><g class="smithlayer"/><g class="ternarylayer"/><g class="geolayer"/><g class="funnelarealayer"/><g class="pielayer"/><g class="iciclelayer"/><g class="treemaplayer"/><g class="sunburstlayer"/><g class="glimages"/><defs id="topdefs-52d02d"><g class="clips"/></defs><g class="layer-above"><g class="imagelayer"/><g class="shapelayer"/></g><g class="infolayer"><g class="g-gtitle"><text class="gtitle" x="64" y="40" text-anchor="start" dy="0em" style="opacity: 1; font-family: 'Open Sans', verdana, arial, sans-serif; font-size: 28px; fill: rgb(42, 63, 95); fill-opacity: 1; white-space: pre;">Average vibration spectrum</text></g><g class="g-xtitle"><text class="xtitle" x="671.5" y="696.3" text-anchor="middle" style="opacity: 1; font-family: 'Open Sans', verdana, arial, sans-serif; font-size: 24px; fill: rgb(42, 63, 95); fill-opacity: 1; white-space: pre;">Frequency (Hz)</text></g><g class="g-ytitle" transform="translate(3.041015625,0)"><text class="ytitle" transform="rotate(-90,20.959374999999994,360)" x="20.959374999999994" y="360" text-anchor="middle" style="opacity: 1; font-family: 'Open Sans', verdana, arial, sans-serif; font-size: 24px; fill: rgb(42, 63, 95); fill-opacity: 1; white-space: pre;">Amplitude (a.u.)</text></g></g></svg>